G04 #@! TF.FileFunction,Copper,L1,Top,Signal*
%FSLAX46Y46*%
G04 Gerber Fmt 4.6, Leading zero omitted, Abs format (unit mm)*
G04 Created by KiCad (PCBNEW 4.0.7) date Sunday, July 29, 2018 'PMt' 07:28:34 PM*
%MOMM*%
%LPD*%
G01*
G04 APERTURE LIST*
%ADD10C,0.100000*%
%ADD11R,1.500000X1.250000*%
%ADD12R,1.600000X3.000000*%
%ADD13R,1.200000X0.750000*%
%ADD14R,0.750000X1.200000*%
%ADD15R,1.700000X1.700000*%
%ADD16O,1.700000X1.700000*%
%ADD17R,3.300000X1.700000*%
%ADD18R,1.500000X1.300000*%
%ADD19R,1.300000X1.500000*%
%ADD20R,1.350000X0.400000*%
%ADD21O,0.950000X1.250000*%
%ADD22O,1.550000X1.000000*%
%ADD23R,3.500000X3.500000*%
%ADD24R,1.200000X0.900000*%
%ADD25R,2.200000X1.000000*%
%ADD26C,2.000000*%
%ADD27R,2.200000X1.200000*%
%ADD28R,6.400000X5.800000*%
%ADD29R,3.050000X2.750000*%
%ADD30R,1.500000X0.550000*%
%ADD31R,0.550000X1.500000*%
%ADD32R,0.450000X1.450000*%
%ADD33R,1.650000X0.650000*%
%ADD34R,3.325000X2.500000*%
%ADD35C,1.000000*%
%ADD36C,0.250000*%
%ADD37C,0.300000*%
%ADD38C,0.254000*%
G04 APERTURE END LIST*
D10*
D11*
X184170000Y-97028000D03*
X186670000Y-97028000D03*
X191496000Y-97028000D03*
X188996000Y-97028000D03*
D12*
X170688000Y-118196000D03*
X170688000Y-122596000D03*
D13*
X203012000Y-102362000D03*
X204912000Y-102362000D03*
D14*
X166116000Y-117414000D03*
X166116000Y-119314000D03*
X198374000Y-124140000D03*
X198374000Y-122240000D03*
D11*
X198394000Y-104394000D03*
X200894000Y-104394000D03*
D13*
X203012000Y-100584000D03*
X204912000Y-100584000D03*
D12*
X152400000Y-126070000D03*
X152400000Y-130470000D03*
D14*
X196596000Y-114954000D03*
X196596000Y-112608000D03*
D12*
X159258000Y-126070000D03*
X159258000Y-130470000D03*
D13*
X161102000Y-113284000D03*
X163002000Y-113284000D03*
D11*
X147086000Y-104140000D03*
X149586000Y-104140000D03*
D13*
X154874000Y-106680000D03*
X152974000Y-106680000D03*
D11*
X154412000Y-104140000D03*
X151912000Y-104140000D03*
D13*
X194376000Y-104140000D03*
X196276000Y-104140000D03*
X184658000Y-120142000D03*
X182758000Y-120142000D03*
X180274000Y-106426000D03*
X178374000Y-106426000D03*
X194122000Y-119634000D03*
X196022000Y-119634000D03*
D15*
X209658000Y-105686000D03*
D16*
X207118000Y-105686000D03*
X209658000Y-108226000D03*
X207118000Y-108226000D03*
X209658000Y-110766000D03*
X207118000Y-110766000D03*
D17*
X203752000Y-98552000D03*
X209252000Y-98552000D03*
X152952000Y-121412000D03*
X158452000Y-121412000D03*
D18*
X181690000Y-101346000D03*
X178990000Y-101346000D03*
X197786000Y-110236000D03*
X200486000Y-110236000D03*
D19*
X142748000Y-101266000D03*
X142748000Y-103966000D03*
X163576000Y-103298000D03*
X163576000Y-105998000D03*
D20*
X206676000Y-119918000D03*
X206676000Y-119268000D03*
X206676000Y-118618000D03*
X206676000Y-117968000D03*
X206676000Y-117318000D03*
D21*
X206676000Y-121118000D03*
X206676000Y-116118000D03*
D22*
X209376000Y-122118000D03*
X209376000Y-115118000D03*
D23*
X145542000Y-126492000D03*
X139542000Y-126492000D03*
X142542000Y-131192000D03*
D15*
X171438000Y-133316000D03*
D16*
X173978000Y-133316000D03*
X176518000Y-133316000D03*
X179058000Y-133316000D03*
X181598000Y-133316000D03*
X184138000Y-133316000D03*
X186678000Y-133316000D03*
X189218000Y-133316000D03*
D15*
X162314000Y-85316000D03*
D16*
X164854000Y-85316000D03*
X167394000Y-85316000D03*
X169934000Y-85316000D03*
X172474000Y-85316000D03*
X175014000Y-85316000D03*
X177554000Y-85316000D03*
X180094000Y-85316000D03*
X182634000Y-85316000D03*
X185174000Y-85316000D03*
D15*
X189238000Y-85316000D03*
D16*
X191778000Y-85316000D03*
X194318000Y-85316000D03*
X196858000Y-85316000D03*
X199398000Y-85316000D03*
X201938000Y-85316000D03*
X204478000Y-85316000D03*
X207018000Y-85316000D03*
D15*
X207018000Y-133316000D03*
D16*
X204478000Y-133316000D03*
X201938000Y-133316000D03*
X199398000Y-133316000D03*
X196858000Y-133316000D03*
X194318000Y-133316000D03*
D24*
X200068000Y-117856000D03*
X202268000Y-117856000D03*
D25*
X147460000Y-107254000D03*
X147460000Y-109154000D03*
X150360000Y-108204000D03*
D18*
X199818000Y-113538000D03*
X202518000Y-113538000D03*
X199818000Y-115570000D03*
X202518000Y-115570000D03*
X207438000Y-100838000D03*
X210138000Y-100838000D03*
D19*
X200914000Y-124540000D03*
X200914000Y-121840000D03*
X203708000Y-124540000D03*
X203708000Y-121840000D03*
X179832000Y-119206000D03*
X179832000Y-116506000D03*
D18*
X181690000Y-98806000D03*
X178990000Y-98806000D03*
D19*
X202946000Y-107616000D03*
X202946000Y-110316000D03*
X142748000Y-109046000D03*
X142748000Y-106346000D03*
D18*
X154352000Y-117348000D03*
X157052000Y-117348000D03*
X159940000Y-116840000D03*
X162640000Y-116840000D03*
X160448000Y-108712000D03*
X163148000Y-108712000D03*
D26*
X209804000Y-90750000D03*
X209804000Y-95250000D03*
X203304000Y-90750000D03*
X203304000Y-95250000D03*
D27*
X150758000Y-117596000D03*
X150758000Y-115316000D03*
X150758000Y-113036000D03*
D28*
X144458000Y-115316000D03*
D29*
X142783000Y-113791000D03*
X146133000Y-116841000D03*
X142783000Y-116841000D03*
X146133000Y-113791000D03*
D30*
X193914000Y-116014000D03*
X193914000Y-115214000D03*
X193914000Y-114414000D03*
X193914000Y-113614000D03*
X193914000Y-112814000D03*
X193914000Y-112014000D03*
X193914000Y-111214000D03*
X193914000Y-110414000D03*
X193914000Y-109614000D03*
X193914000Y-108814000D03*
X193914000Y-108014000D03*
D31*
X192214000Y-106314000D03*
X191414000Y-106314000D03*
X190614000Y-106314000D03*
X189814000Y-106314000D03*
X189014000Y-106314000D03*
X188214000Y-106314000D03*
X187414000Y-106314000D03*
X186614000Y-106314000D03*
X185814000Y-106314000D03*
X185014000Y-106314000D03*
X184214000Y-106314000D03*
D30*
X182514000Y-108014000D03*
X182514000Y-108814000D03*
X182514000Y-109614000D03*
X182514000Y-110414000D03*
X182514000Y-111214000D03*
X182514000Y-112014000D03*
X182514000Y-112814000D03*
X182514000Y-113614000D03*
X182514000Y-114414000D03*
X182514000Y-115214000D03*
X182514000Y-116014000D03*
D31*
X184214000Y-117714000D03*
X185014000Y-117714000D03*
X185814000Y-117714000D03*
X186614000Y-117714000D03*
X187414000Y-117714000D03*
X188214000Y-117714000D03*
X189014000Y-117714000D03*
X189814000Y-117714000D03*
X190614000Y-117714000D03*
X191414000Y-117714000D03*
X192214000Y-117714000D03*
D32*
X155489000Y-113960000D03*
X156139000Y-113960000D03*
X156789000Y-113960000D03*
X157439000Y-113960000D03*
X157439000Y-109560000D03*
X156789000Y-109560000D03*
X156139000Y-109560000D03*
X155489000Y-109560000D03*
D33*
X157158000Y-104714000D03*
X157158000Y-105664000D03*
X157158000Y-106614000D03*
X159908000Y-106614000D03*
X159908000Y-104714000D03*
D34*
X185301500Y-101600000D03*
X191126500Y-101600000D03*
D35*
X202946000Y-104394000D03*
X186182000Y-129730990D03*
X196029522Y-122726781D03*
X166568990Y-102616000D03*
X198628000Y-102362000D03*
X204470000Y-113030000D03*
X198882000Y-97028000D03*
X158766012Y-115633010D03*
X153162000Y-115824000D03*
X159258000Y-119380000D03*
X148082000Y-130556000D03*
X198002820Y-117936079D03*
X174498000Y-116840000D03*
X152400000Y-108966000D03*
X195834000Y-111252000D03*
X182447371Y-123773371D03*
X194310000Y-105215002D03*
X197104000Y-102362000D03*
X195326000Y-120904000D03*
X204216000Y-104902000D03*
X163068000Y-127254000D03*
X149606000Y-123444000D03*
X155702000Y-123444000D03*
X167386000Y-88138000D03*
X191516000Y-119634000D03*
X176784000Y-124968000D03*
X155702000Y-125222000D03*
X148590000Y-121920000D03*
X153670000Y-119380000D03*
X195786127Y-107872853D03*
X195827109Y-109522865D03*
X196850000Y-108458000D03*
X199390000Y-87630000D03*
X200406000Y-92710000D03*
X188158235Y-104478899D03*
X186961513Y-104390107D03*
X175134278Y-113982990D03*
X159258000Y-110236000D03*
X174244000Y-87630000D03*
X195700789Y-106222841D03*
X177546000Y-87630000D03*
X199136000Y-94488000D03*
X176475704Y-110792963D03*
X178443809Y-112887963D03*
X178150156Y-111449227D03*
X188976000Y-88646000D03*
X179832000Y-111252000D03*
X173482000Y-91948000D03*
X196850000Y-87630000D03*
X184562796Y-104338335D03*
X185761508Y-104394177D03*
X206502000Y-130556000D03*
X203454000Y-130556000D03*
X201422000Y-130556000D03*
X198374000Y-130556000D03*
X196596000Y-130556000D03*
X194310000Y-130556000D03*
X176530000Y-130556000D03*
X190500000Y-130048000D03*
X192212744Y-104863997D03*
X210312000Y-102616000D03*
D36*
X188214000Y-105615005D02*
X189039002Y-104790003D01*
X188214000Y-106314000D02*
X188214000Y-105615005D01*
X189039002Y-104790003D02*
X189039002Y-103425002D01*
X189039002Y-103425002D02*
X187214000Y-101600000D01*
X187214000Y-101600000D02*
X185301500Y-101600000D01*
X185301500Y-101600000D02*
X185301500Y-100211500D01*
X184170000Y-99080000D02*
X184170000Y-97028000D01*
X185301500Y-100211500D02*
X184170000Y-99080000D01*
X159860000Y-112014000D02*
X162306000Y-112014000D01*
X157914000Y-113960000D02*
X159860000Y-112014000D01*
X157439000Y-113960000D02*
X157914000Y-113960000D01*
X207118000Y-110766000D02*
X205043001Y-108691001D01*
X205043001Y-108691001D02*
X202035999Y-108691001D01*
X202035999Y-108691001D02*
X201970999Y-108626001D01*
X201970999Y-108626001D02*
X201970999Y-106605999D01*
X201970999Y-106605999D02*
X202495990Y-106081008D01*
X202495990Y-106081008D02*
X202495990Y-104844010D01*
X202495990Y-104844010D02*
X202946000Y-104394000D01*
X185682001Y-129230991D02*
X186182000Y-129730990D01*
X184658000Y-128206990D02*
X185682001Y-129230991D01*
X184658000Y-126492000D02*
X184658000Y-128206990D01*
X195529523Y-122226782D02*
X196029522Y-122726781D01*
X195275523Y-122226782D02*
X195529523Y-122226782D01*
X194122000Y-121073259D02*
X195275523Y-122226782D01*
X194122000Y-119634000D02*
X194122000Y-121073259D01*
X191414000Y-118714000D02*
X191489001Y-118789001D01*
X191414000Y-117714000D02*
X191414000Y-118714000D01*
X192427001Y-118789001D02*
X193272000Y-119634000D01*
X191489001Y-118789001D02*
X192427001Y-118789001D01*
X193272000Y-119634000D02*
X194122000Y-119634000D01*
X179832000Y-120206000D02*
X179832000Y-119206000D01*
X179832000Y-123141004D02*
X179832000Y-120206000D01*
X177180002Y-125793002D02*
X179832000Y-123141004D01*
X173190996Y-122596000D02*
X176387998Y-125793002D01*
X170688000Y-122596000D02*
X173190996Y-122596000D01*
X176387998Y-125793002D02*
X177180002Y-125793002D01*
X166068991Y-103115999D02*
X166568990Y-102616000D01*
X165886990Y-103298000D02*
X166068991Y-103115999D01*
X163576000Y-103298000D02*
X165886990Y-103298000D01*
X198394000Y-102596000D02*
X198394000Y-104394000D01*
X198628000Y-102362000D02*
X198394000Y-102596000D01*
X189814000Y-105314000D02*
X190049991Y-105078009D01*
X190049991Y-105078009D02*
X190049991Y-104461599D01*
X190049991Y-104461599D02*
X191133589Y-103378000D01*
X191133589Y-103378000D02*
X192764000Y-103378000D01*
X189814000Y-106314000D02*
X189814000Y-105314000D01*
X198394000Y-104394000D02*
X198269000Y-104394000D01*
X194769002Y-104140000D02*
X194376000Y-104140000D01*
X195898002Y-105269000D02*
X194769002Y-104140000D01*
X198269000Y-104394000D02*
X197394000Y-105269000D01*
X197394000Y-105269000D02*
X195898002Y-105269000D01*
X192764000Y-103378000D02*
X193526000Y-104140000D01*
X188996000Y-97028000D02*
X188996000Y-96153000D01*
X188996000Y-96153000D02*
X189071001Y-96077999D01*
X189071001Y-96077999D02*
X192506001Y-96077999D01*
X192506001Y-96077999D02*
X193114001Y-96685999D01*
X193114001Y-96685999D02*
X193114001Y-103027999D01*
X193114001Y-103027999D02*
X192764000Y-103378000D01*
X193526000Y-104140000D02*
X194376000Y-104140000D01*
X204470000Y-116687000D02*
X204470000Y-113030000D01*
X206676000Y-117968000D02*
X205751000Y-117968000D01*
X205751000Y-117968000D02*
X204470000Y-116687000D01*
X203454000Y-112014000D02*
X204470000Y-113030000D01*
X198374000Y-112014000D02*
X203454000Y-112014000D01*
X197780000Y-112608000D02*
X198374000Y-112014000D01*
X196596000Y-112608000D02*
X197780000Y-112608000D01*
X179832000Y-119206000D02*
X179832000Y-125222000D01*
X181102000Y-126492000D02*
X184658000Y-126492000D01*
X179832000Y-125222000D02*
X181102000Y-126492000D01*
X142748000Y-101266000D02*
X147587000Y-101266000D01*
X147587000Y-101266000D02*
X149586000Y-103265000D01*
X149586000Y-103265000D02*
X149586000Y-104140000D01*
X198882000Y-97028000D02*
X199230999Y-97376999D01*
X199230999Y-97376999D02*
X205662001Y-97376999D01*
X205662001Y-97376999D02*
X205762000Y-97476998D01*
X205762000Y-97476998D02*
X205762000Y-99959000D01*
X205137000Y-100584000D02*
X204912000Y-100584000D01*
X205762000Y-99959000D02*
X205137000Y-100584000D01*
X206676000Y-117968000D02*
X207884000Y-117968000D01*
X207264000Y-122428000D02*
X204296000Y-122428000D01*
X208026000Y-121666000D02*
X207264000Y-122428000D01*
X208026000Y-118110000D02*
X208026000Y-121666000D01*
X207884000Y-117968000D02*
X208026000Y-118110000D01*
X204296000Y-122428000D02*
X203708000Y-121840000D01*
X203708000Y-121840000D02*
X203708000Y-124540000D01*
X203708000Y-124540000D02*
X200914000Y-124540000D01*
X200914000Y-124540000D02*
X200914000Y-121840000D01*
X200914000Y-121840000D02*
X200514000Y-122240000D01*
X200514000Y-122240000D02*
X198374000Y-122240000D01*
X186670000Y-97028000D02*
X188996000Y-97028000D01*
X189814000Y-106314000D02*
X189814000Y-107366000D01*
X189166000Y-108014000D02*
X182514000Y-108014000D01*
X189814000Y-107366000D02*
X189166000Y-108014000D01*
X166116000Y-119314000D02*
X165114000Y-119314000D01*
X165114000Y-119314000D02*
X162640000Y-116840000D01*
X170688000Y-122596000D02*
X169398000Y-122596000D01*
X169398000Y-122596000D02*
X166116000Y-119314000D01*
X157439000Y-113960000D02*
X157439000Y-114460000D01*
X158612010Y-115633010D02*
X158766012Y-115633010D01*
X157439000Y-114460000D02*
X158612010Y-115633010D01*
X182514000Y-108014000D02*
X181862000Y-108014000D01*
X181862000Y-108014000D02*
X180274000Y-106426000D01*
X204912000Y-100584000D02*
X204912000Y-102362000D01*
X191414000Y-117714000D02*
X191414000Y-113894000D01*
X192494000Y-112814000D02*
X193914000Y-112814000D01*
X191414000Y-113894000D02*
X192494000Y-112814000D01*
X152974000Y-106680000D02*
X152974000Y-105156000D01*
X152974000Y-105156000D02*
X152908000Y-105156000D01*
X163576000Y-103298000D02*
X160702000Y-103298000D01*
X160702000Y-103298000D02*
X160782000Y-103378000D01*
X184658000Y-120142000D02*
X184658000Y-126492000D01*
X193914000Y-112814000D02*
X196390000Y-112814000D01*
X196390000Y-112814000D02*
X196596000Y-112608000D01*
X185014000Y-117714000D02*
X185014000Y-119786000D01*
X185014000Y-119786000D02*
X184658000Y-120142000D01*
X160308000Y-130470000D02*
X159258000Y-130470000D01*
X161073004Y-130470000D02*
X160308000Y-130470000D01*
X163893002Y-127650002D02*
X161073004Y-130470000D01*
X163893002Y-126053002D02*
X163893002Y-127650002D01*
X159252000Y-121412000D02*
X163893002Y-126053002D01*
X158452000Y-121412000D02*
X159252000Y-121412000D01*
X149586000Y-104140000D02*
X149606000Y-104140000D01*
X149606000Y-104140000D02*
X151892000Y-101854000D01*
X161994002Y-111702002D02*
X162306000Y-112014000D01*
X161994002Y-104590002D02*
X161994002Y-111702002D01*
X159258000Y-101854000D02*
X160782000Y-103378000D01*
X160782000Y-103378000D02*
X161994002Y-104590002D01*
X151892000Y-101854000D02*
X159258000Y-101854000D01*
X153162000Y-115824000D02*
X151390000Y-117596000D01*
X151390000Y-117596000D02*
X150758000Y-117596000D01*
X149586000Y-103906000D02*
X149586000Y-104140000D01*
X154412000Y-104140000D02*
X154412000Y-104374000D01*
X154412000Y-104374000D02*
X155702000Y-105664000D01*
X155702000Y-105664000D02*
X157158000Y-105664000D01*
X149586000Y-104140000D02*
X149586000Y-104628000D01*
X149586000Y-104628000D02*
X150114000Y-105156000D01*
X150114000Y-105156000D02*
X152908000Y-105156000D01*
X152908000Y-105156000D02*
X153396000Y-105156000D01*
X153396000Y-105156000D02*
X154412000Y-104140000D01*
X158452000Y-120186000D02*
X158452000Y-121412000D01*
X159258000Y-119380000D02*
X158452000Y-120186000D01*
X163002000Y-112710000D02*
X163002000Y-113284000D01*
X162306000Y-112014000D02*
X163002000Y-112710000D01*
X162640000Y-116840000D02*
X162640000Y-113646000D01*
X162640000Y-113646000D02*
X163002000Y-113284000D01*
D37*
X152400000Y-130470000D02*
X148168000Y-130470000D01*
X148168000Y-130470000D02*
X148082000Y-130556000D01*
X152400000Y-130470000D02*
X159258000Y-130470000D01*
X158452000Y-121412000D02*
X158452000Y-121028000D01*
D36*
X189599980Y-104865435D02*
X189599980Y-103126520D01*
X189599980Y-103126520D02*
X191126500Y-101600000D01*
X189014000Y-105451415D02*
X189599980Y-104865435D01*
X189014000Y-106314000D02*
X189014000Y-105451415D01*
X191126500Y-101600000D02*
X191126500Y-99957500D01*
X191496000Y-99588000D02*
X191496000Y-97028000D01*
X191126500Y-99957500D02*
X191496000Y-99588000D01*
X198082899Y-117856000D02*
X198002820Y-117936079D01*
X200068000Y-117856000D02*
X198082899Y-117856000D01*
X170688000Y-118196000D02*
X166898000Y-118196000D01*
X166898000Y-118196000D02*
X166116000Y-117414000D01*
X173142000Y-118196000D02*
X170688000Y-118196000D01*
X174498000Y-116840000D02*
X173142000Y-118196000D01*
X150360000Y-108204000D02*
X151638000Y-108204000D01*
X151638000Y-108204000D02*
X152400000Y-108966000D01*
X193914000Y-111214000D02*
X195796000Y-111214000D01*
X195796000Y-111214000D02*
X195834000Y-111252000D01*
X182758000Y-123462742D02*
X182447371Y-123773371D01*
X182758000Y-120142000D02*
X182758000Y-123462742D01*
X194310000Y-105215002D02*
X193766332Y-105215002D01*
X193766332Y-105215002D02*
X192437330Y-103886000D01*
X192437330Y-103886000D02*
X191262000Y-103886000D01*
X191262000Y-103886000D02*
X190614000Y-104534000D01*
X190614000Y-104534000D02*
X190614000Y-106314000D01*
X196276000Y-103190000D02*
X196276000Y-104140000D01*
X197104000Y-102362000D02*
X196276000Y-103190000D01*
X196276000Y-104140000D02*
X196501000Y-104140000D01*
X178374000Y-106426000D02*
X178149000Y-106426000D01*
X176720999Y-99089999D02*
X177979999Y-97830999D01*
X177979999Y-97830999D02*
X180614999Y-97830999D01*
X180614999Y-97830999D02*
X181590000Y-98806000D01*
X181590000Y-98806000D02*
X181690000Y-98806000D01*
X178149000Y-106426000D02*
X176720999Y-104997999D01*
X176720999Y-104997999D02*
X176720999Y-99089999D01*
X182514000Y-108814000D02*
X181537413Y-108814000D01*
X181537413Y-108814000D02*
X179849414Y-107126001D01*
X179849414Y-107126001D02*
X179469825Y-107126001D01*
X179469825Y-107126001D02*
X178769824Y-106426000D01*
X178769824Y-106426000D02*
X178374000Y-106426000D01*
X195326000Y-120904000D02*
X195326000Y-120330000D01*
X195326000Y-120330000D02*
X196022000Y-119634000D01*
X185166000Y-108814000D02*
X185166000Y-115062000D01*
X184214000Y-116014000D02*
X184214000Y-117714000D01*
X185166000Y-115062000D02*
X184214000Y-116014000D01*
X142783000Y-113791000D02*
X142783000Y-109081000D01*
X142783000Y-109081000D02*
X142748000Y-109046000D01*
X182514000Y-108814000D02*
X185166000Y-108814000D01*
X185166000Y-108814000D02*
X189636000Y-108814000D01*
X190614000Y-107836000D02*
X190614000Y-106314000D01*
X189636000Y-108814000D02*
X190500000Y-107950000D01*
X190500000Y-107950000D02*
X190614000Y-107836000D01*
X154940000Y-107950000D02*
X154874000Y-107884000D01*
X152020411Y-107950000D02*
X154940000Y-107950000D01*
X151892000Y-107821589D02*
X152020411Y-107950000D01*
X151892000Y-106934000D02*
X151892000Y-107821589D01*
X151130000Y-106172000D02*
X151892000Y-106934000D01*
X148844000Y-106172000D02*
X151130000Y-106172000D01*
X147762000Y-107254000D02*
X148844000Y-106172000D01*
X147460000Y-107254000D02*
X147762000Y-107254000D01*
X204216000Y-103886000D02*
X204216000Y-103566000D01*
X204216000Y-103566000D02*
X203012000Y-102362000D01*
X203012000Y-102362000D02*
X203012000Y-100584000D01*
X192214000Y-117714000D02*
X192214000Y-115634000D01*
X192634000Y-115214000D02*
X193914000Y-115214000D01*
X192214000Y-115634000D02*
X192634000Y-115214000D01*
X204216000Y-103378000D02*
X207010000Y-103378000D01*
X207438000Y-102950000D02*
X207438000Y-100838000D01*
X207010000Y-103378000D02*
X207438000Y-102950000D01*
X204216000Y-104902000D02*
X204216000Y-103886000D01*
X204216000Y-103886000D02*
X204216000Y-103378000D01*
X202946000Y-107616000D02*
X202946000Y-106172000D01*
X202946000Y-106172000D02*
X204216000Y-104902000D01*
X203012000Y-100584000D02*
X203752000Y-99844000D01*
X203752000Y-99844000D02*
X203752000Y-98552000D01*
X154874000Y-107884000D02*
X154874000Y-108945000D01*
X154874000Y-108945000D02*
X155489000Y-109560000D01*
X154874000Y-106680000D02*
X157092000Y-106680000D01*
X157092000Y-106680000D02*
X157158000Y-106614000D01*
X154874000Y-107884000D02*
X154874000Y-106680000D01*
X196342000Y-119954000D02*
X196022000Y-119634000D01*
X193914000Y-115214000D02*
X195580000Y-115214000D01*
X195580000Y-115214000D02*
X196336000Y-115214000D01*
X196336000Y-115214000D02*
X196596000Y-114954000D01*
X192214000Y-117714000D02*
X194102000Y-117714000D01*
X194102000Y-117714000D02*
X194404000Y-118016000D01*
X194404000Y-118016000D02*
X196022000Y-119634000D01*
X184214000Y-117714000D02*
X183689000Y-117714000D01*
X183689000Y-117714000D02*
X182758000Y-118645000D01*
X182758000Y-118645000D02*
X182758000Y-119517000D01*
X182758000Y-119517000D02*
X182758000Y-120142000D01*
X159258000Y-126070000D02*
X161884000Y-126070000D01*
X161884000Y-126070000D02*
X163068000Y-127254000D01*
X159258000Y-126070000D02*
X158328000Y-126070000D01*
X144458000Y-118804000D02*
X147574000Y-121920000D01*
X147574000Y-121920000D02*
X147574000Y-123444000D01*
X147574000Y-123444000D02*
X149606000Y-123444000D01*
X144458000Y-118804000D02*
X144458000Y-115316000D01*
X158328000Y-126070000D02*
X155702000Y-123444000D01*
X157158000Y-106614000D02*
X158054000Y-106614000D01*
X158308000Y-104714000D02*
X157158000Y-104714000D01*
X158496000Y-104902000D02*
X158308000Y-104714000D01*
X158496000Y-106172000D02*
X158496000Y-104902000D01*
X158054000Y-106614000D02*
X158496000Y-106172000D01*
X156992500Y-106448500D02*
X157158000Y-106614000D01*
X144458000Y-115316000D02*
X150758000Y-115316000D01*
X156398000Y-104714000D02*
X157158000Y-104714000D01*
X147460000Y-107254000D02*
X147508000Y-107254000D01*
X147460000Y-107254000D02*
X147460000Y-104514000D01*
X147460000Y-104514000D02*
X147086000Y-104140000D01*
X147460000Y-107254000D02*
X145730000Y-107254000D01*
X145730000Y-107254000D02*
X144458000Y-108526000D01*
X144458000Y-108526000D02*
X144458000Y-115316000D01*
D37*
X159258000Y-126070000D02*
X158836000Y-126070000D01*
D36*
X167394000Y-107704000D02*
X167394000Y-88146000D01*
X167394000Y-88146000D02*
X167386000Y-88138000D01*
X198334988Y-125515012D02*
X198374000Y-125476000D01*
X198374000Y-125476000D02*
X198374000Y-124140000D01*
X191516000Y-119634000D02*
X197397012Y-125515012D01*
X197397012Y-125515012D02*
X198334988Y-125515012D01*
X191516000Y-119634000D02*
X190614000Y-118732000D01*
X190614000Y-118732000D02*
X190614000Y-117714000D01*
X176784000Y-117094000D02*
X176784000Y-124968000D01*
X167394000Y-107704000D02*
X176784000Y-117094000D01*
X200769000Y-104394000D02*
X200894000Y-104394000D01*
X199368988Y-105794012D02*
X200769000Y-104394000D01*
X197350622Y-105794012D02*
X199368988Y-105794012D01*
X196096791Y-107047843D02*
X197350622Y-105794012D01*
X193270155Y-107047843D02*
X196096791Y-107047843D01*
X192838999Y-111749001D02*
X192838999Y-107478999D01*
X192838999Y-107478999D02*
X193270155Y-107047843D01*
X193103998Y-112014000D02*
X192838999Y-111749001D01*
X193914000Y-112014000D02*
X193103998Y-112014000D01*
X152400000Y-126070000D02*
X154854000Y-126070000D01*
X154854000Y-126070000D02*
X155702000Y-125222000D01*
X154352000Y-117348000D02*
X154178000Y-117348000D01*
X154178000Y-117348000D02*
X152400000Y-119126000D01*
X152400000Y-119126000D02*
X152400000Y-120860000D01*
X152400000Y-120860000D02*
X152952000Y-121412000D01*
X154352000Y-117348000D02*
X153924000Y-117348000D01*
X150758000Y-113036000D02*
X152152000Y-113036000D01*
X154352000Y-115236000D02*
X154352000Y-117348000D01*
X152152000Y-113036000D02*
X154352000Y-115236000D01*
X152952000Y-121412000D02*
X152952000Y-125518000D01*
X152952000Y-125518000D02*
X152400000Y-126070000D01*
X148590000Y-121920000D02*
X149098000Y-121412000D01*
X149098000Y-121412000D02*
X152952000Y-121412000D01*
X157052000Y-117348000D02*
X157052000Y-116158000D01*
X156789000Y-115895000D02*
X156789000Y-113960000D01*
X157052000Y-116158000D02*
X156789000Y-115895000D01*
X157052000Y-117348000D02*
X159432000Y-117348000D01*
X159432000Y-117348000D02*
X159940000Y-116840000D01*
X159940000Y-116840000D02*
X159940000Y-114446000D01*
X159940000Y-114446000D02*
X161102000Y-113284000D01*
X156798000Y-113969000D02*
X156789000Y-113960000D01*
X159131002Y-112014000D02*
X157110000Y-112014000D01*
X157110000Y-112014000D02*
X156139000Y-112985000D01*
X156139000Y-112985000D02*
X156139000Y-113960000D01*
X159908000Y-104714000D02*
X160408000Y-104714000D01*
X160408000Y-104714000D02*
X161523001Y-105829001D01*
X161523001Y-109622001D02*
X159131002Y-112014000D01*
X161523001Y-105829001D02*
X161523001Y-109622001D01*
X156139000Y-113960000D02*
X156139000Y-115641000D01*
X155194000Y-119380000D02*
X153670000Y-119380000D01*
X155702000Y-118872000D02*
X155194000Y-119380000D01*
X155702000Y-116078000D02*
X155702000Y-118872000D01*
X156139000Y-115641000D02*
X155702000Y-116078000D01*
X151912000Y-104140000D02*
X151912000Y-103104000D01*
X157810000Y-102616000D02*
X159908000Y-104714000D01*
X152400000Y-102616000D02*
X157810000Y-102616000D01*
X151912000Y-103104000D02*
X152400000Y-102616000D01*
X193914000Y-108014000D02*
X195644980Y-108014000D01*
X195644980Y-108014000D02*
X195786127Y-107872853D01*
X195735974Y-109614000D02*
X195827109Y-109522865D01*
X193914000Y-109614000D02*
X195735974Y-109614000D01*
X194914000Y-108814000D02*
X195030145Y-108697855D01*
X195030145Y-108697855D02*
X196610145Y-108697855D01*
X196610145Y-108697855D02*
X196850000Y-108458000D01*
X193914000Y-108814000D02*
X194914000Y-108814000D01*
X184214000Y-106314000D02*
X184038000Y-106314000D01*
X184038000Y-106314000D02*
X181690000Y-103966000D01*
X181690000Y-103966000D02*
X181690000Y-101346000D01*
X178990000Y-101346000D02*
X178990000Y-98806000D01*
X193914000Y-110414000D02*
X197608000Y-110414000D01*
X197608000Y-110414000D02*
X197786000Y-110236000D01*
X200486000Y-110236000D02*
X202866000Y-110236000D01*
X202866000Y-110236000D02*
X202946000Y-110316000D01*
X142748000Y-106346000D02*
X142748000Y-103966000D01*
X163148000Y-108712000D02*
X163148000Y-106426000D01*
X163148000Y-106426000D02*
X163576000Y-105998000D01*
X163148000Y-106426000D02*
X163576000Y-105998000D01*
X202268000Y-117856000D02*
X202268000Y-118556000D01*
X202268000Y-118556000D02*
X203630000Y-119918000D01*
X203630000Y-119918000D02*
X205751000Y-119918000D01*
X205751000Y-119918000D02*
X206676000Y-119918000D01*
X205751000Y-119268000D02*
X206676000Y-119268000D01*
X202518000Y-115570000D02*
X202518000Y-116470000D01*
X202518000Y-116470000D02*
X205316000Y-119268000D01*
X205316000Y-119268000D02*
X205751000Y-119268000D01*
X205751000Y-118618000D02*
X206676000Y-118618000D01*
X204019989Y-116886989D02*
X205751000Y-118618000D01*
X204019989Y-114939989D02*
X204019989Y-116886989D01*
X202618000Y-113538000D02*
X204019989Y-114939989D01*
X202518000Y-113538000D02*
X202618000Y-113538000D01*
X199390000Y-90986894D02*
X199390000Y-87630000D01*
X200406000Y-92710000D02*
X200406000Y-92002894D01*
X200406000Y-92002894D02*
X199390000Y-90986894D01*
X187414000Y-106314000D02*
X187414000Y-105223134D01*
X187414000Y-105223134D02*
X188158235Y-104478899D01*
X186614000Y-106314000D02*
X186614000Y-104737620D01*
X186614000Y-104737620D02*
X186961513Y-104390107D01*
X175634277Y-114482989D02*
X175134278Y-113982990D01*
X176365288Y-115214000D02*
X175634277Y-114482989D01*
X182514000Y-115214000D02*
X176365288Y-115214000D01*
X157439000Y-109560000D02*
X158582000Y-109560000D01*
X158582000Y-109560000D02*
X159258000Y-110236000D01*
X174244000Y-91488996D02*
X174244000Y-88337106D01*
X174244000Y-88337106D02*
X174244000Y-87630000D01*
X174307002Y-91551998D02*
X174244000Y-91488996D01*
X174307002Y-106186004D02*
X174307002Y-91551998D01*
X178534998Y-110414000D02*
X174307002Y-106186004D01*
X182514000Y-110414000D02*
X178534998Y-110414000D01*
X195609630Y-106314000D02*
X195700789Y-106222841D01*
X192214000Y-106314000D02*
X195609630Y-106314000D01*
X199136000Y-94488000D02*
X192278000Y-87630000D01*
X192278000Y-87630000D02*
X177546000Y-87630000D01*
X176475704Y-112140860D02*
X176475704Y-111500069D01*
X176475704Y-111500069D02*
X176475704Y-110792963D01*
X182514000Y-113614000D02*
X181514000Y-113614000D01*
X181514000Y-113614000D02*
X181415036Y-113712964D01*
X181415036Y-113712964D02*
X178047808Y-113712964D01*
X178047808Y-113712964D02*
X176475704Y-112140860D01*
X179150915Y-112887963D02*
X178443809Y-112887963D01*
X179239975Y-112977023D02*
X179150915Y-112887963D01*
X182514000Y-112814000D02*
X181514000Y-112814000D01*
X181514000Y-112814000D02*
X181350977Y-112977023D01*
X181350977Y-112977023D02*
X179239975Y-112977023D01*
X180927413Y-112014000D02*
X180414401Y-112527012D01*
X182514000Y-112014000D02*
X180927413Y-112014000D01*
X180414401Y-112527012D02*
X179935047Y-112527012D01*
X178857262Y-111449227D02*
X178150156Y-111449227D01*
X179935047Y-112527012D02*
X178857262Y-111449227D01*
X201970999Y-105969589D02*
X201970999Y-101640999D01*
X201970999Y-101640999D02*
X189475999Y-89145999D01*
X189475999Y-89145999D02*
X188976000Y-88646000D01*
X201849599Y-109141012D02*
X201520988Y-108812401D01*
X201520988Y-108812401D02*
X201520988Y-106419599D01*
X201520988Y-106419599D02*
X201970999Y-105969589D01*
X210476010Y-117659750D02*
X203921001Y-111104741D01*
X203921001Y-111104741D02*
X203921001Y-109305999D01*
X203921001Y-109305999D02*
X203756014Y-109141012D01*
X203756014Y-109141012D02*
X201849599Y-109141012D01*
X206697740Y-126238000D02*
X210476010Y-122459730D01*
X210476010Y-122459730D02*
X210476010Y-117659750D01*
X197738999Y-123214999D02*
X199009001Y-123214999D01*
X199009001Y-123214999D02*
X199772411Y-123978409D01*
X199772411Y-123978409D02*
X199772411Y-126238000D01*
X199772411Y-126238000D02*
X206697740Y-126238000D01*
X197673999Y-123149999D02*
X197738999Y-123214999D01*
X194389000Y-116014000D02*
X197673999Y-119298999D01*
X197673999Y-119298999D02*
X197673999Y-123149999D01*
X193914000Y-116014000D02*
X194389000Y-116014000D01*
X179832000Y-111252000D02*
X182476000Y-111252000D01*
X182476000Y-111252000D02*
X182514000Y-111214000D01*
X182514000Y-111214000D02*
X182588000Y-111214000D01*
X182588000Y-111214000D02*
X182787999Y-111413999D01*
X182514000Y-114414000D02*
X178112433Y-114414000D01*
X173482000Y-92655106D02*
X173482000Y-91948000D01*
X173482000Y-109783567D02*
X173482000Y-92655106D01*
X178112433Y-114414000D02*
X173482000Y-109783567D01*
X196350001Y-87130001D02*
X196850000Y-87630000D01*
X176720998Y-87233998D02*
X177149998Y-86804998D01*
X177149998Y-86804998D02*
X196024998Y-86804998D01*
X196024998Y-86804998D02*
X196350001Y-87130001D01*
X176720998Y-97091002D02*
X176720998Y-87233998D01*
X175514000Y-98298000D02*
X176720998Y-97091002D01*
X180001998Y-109614000D02*
X175514000Y-105126002D01*
X182514000Y-109614000D02*
X180001998Y-109614000D01*
X175514000Y-105126002D02*
X175514000Y-98298000D01*
X185014000Y-104789539D02*
X184562796Y-104338335D01*
X185014000Y-106314000D02*
X185014000Y-104789539D01*
X185814000Y-104446669D02*
X185761508Y-104394177D01*
X185814000Y-106314000D02*
X185814000Y-104446669D01*
X206002001Y-130056001D02*
X206502000Y-130556000D01*
X204978000Y-129032000D02*
X206002001Y-130056001D01*
X200132000Y-129032000D02*
X204978000Y-129032000D01*
X191559001Y-120459001D02*
X200132000Y-129032000D01*
X189814000Y-119153002D02*
X191119999Y-120459001D01*
X189814000Y-117714000D02*
X189814000Y-119153002D01*
X191119999Y-120459001D02*
X191559001Y-120459001D01*
X189014000Y-118714000D02*
X189014000Y-117714000D01*
X189014000Y-119623002D02*
X189014000Y-118714000D01*
X190357999Y-120967001D02*
X189014000Y-119623002D01*
X191267001Y-120967001D02*
X190357999Y-120967001D01*
X202380011Y-129482011D02*
X199782011Y-129482011D01*
X203454000Y-130556000D02*
X202380011Y-129482011D01*
X199782011Y-129482011D02*
X191267001Y-120967001D01*
X188214000Y-118714000D02*
X188214000Y-117714000D01*
X188214000Y-119459413D02*
X188214000Y-118714000D01*
X190171599Y-121417012D02*
X188214000Y-119459413D01*
X201422000Y-130556000D02*
X199644000Y-130556000D01*
X190505012Y-121417012D02*
X190171599Y-121417012D01*
X199644000Y-130556000D02*
X190505012Y-121417012D01*
X198374000Y-130556000D02*
X189235012Y-121417012D01*
X189235012Y-121417012D02*
X188901599Y-121417012D01*
X188901599Y-121417012D02*
X187414000Y-119929413D01*
X187414000Y-118714000D02*
X187414000Y-117714000D01*
X187414000Y-119929413D02*
X187414000Y-118714000D01*
X186614000Y-117714000D02*
X186614000Y-120574000D01*
X186614000Y-120574000D02*
X196596000Y-130556000D01*
X185814000Y-120536000D02*
X194310000Y-129032000D01*
X194310000Y-129032000D02*
X194310000Y-130556000D01*
X185814000Y-117714000D02*
X185814000Y-120536000D01*
X147460000Y-109154000D02*
X147460000Y-110376000D01*
X152527000Y-110998000D02*
X155489000Y-113960000D01*
X148082000Y-110998000D02*
X152527000Y-110998000D01*
X147460000Y-110376000D02*
X148082000Y-110998000D01*
X193914000Y-113614000D02*
X195250000Y-113614000D01*
X195326000Y-113538000D02*
X199818000Y-113538000D01*
X195250000Y-113614000D02*
X195326000Y-113538000D01*
X199742000Y-113614000D02*
X199818000Y-113538000D01*
X193914000Y-114414000D02*
X195212000Y-114414000D01*
X197808002Y-113988002D02*
X199390000Y-115570000D01*
X195637998Y-113988002D02*
X197808002Y-113988002D01*
X195212000Y-114414000D02*
X195637998Y-113988002D01*
X199390000Y-115570000D02*
X199818000Y-115570000D01*
X182514000Y-116014000D02*
X180324000Y-116014000D01*
X180324000Y-116014000D02*
X179832000Y-116506000D01*
X156789000Y-109560000D02*
X156789000Y-108641000D01*
X156789000Y-108641000D02*
X157480000Y-107950000D01*
X156139000Y-109560000D02*
X156139000Y-108021000D01*
X159686000Y-107950000D02*
X160448000Y-108712000D01*
X156210000Y-107950000D02*
X157480000Y-107950000D01*
X157480000Y-107950000D02*
X159686000Y-107950000D01*
X156139000Y-108021000D02*
X156210000Y-107950000D01*
X190500000Y-130048000D02*
X189992000Y-130556000D01*
X189992000Y-130556000D02*
X176530000Y-130556000D01*
X191414000Y-105314000D02*
X191864003Y-104863997D01*
X191414000Y-106314000D02*
X191414000Y-105314000D01*
X191864003Y-104863997D02*
X192212744Y-104863997D01*
X210138000Y-100838000D02*
X210138000Y-99438000D01*
X210138000Y-99438000D02*
X209252000Y-98552000D01*
X210138000Y-99438000D02*
X209252000Y-98552000D01*
X210138000Y-102442000D02*
X210138000Y-99438000D01*
X210312000Y-102616000D02*
X210138000Y-102442000D01*
D38*
G36*
X210979033Y-81884999D02*
X211285568Y-82150294D01*
X211459450Y-82393728D01*
X211613100Y-82700228D01*
X211659000Y-83336676D01*
X211659000Y-134044533D01*
X211505398Y-134816743D01*
X211270471Y-135168335D01*
X210612457Y-135744097D01*
X210508741Y-135813398D01*
X209736533Y-135967000D01*
X136627666Y-135967000D01*
X134806695Y-134601271D01*
X134797000Y-134552533D01*
X134797000Y-131477750D01*
X140157000Y-131477750D01*
X140157000Y-133068310D01*
X140253673Y-133301699D01*
X140432302Y-133480327D01*
X140665691Y-133577000D01*
X142256250Y-133577000D01*
X142415000Y-133418250D01*
X142415000Y-131319000D01*
X142669000Y-131319000D01*
X142669000Y-133418250D01*
X142827750Y-133577000D01*
X144418309Y-133577000D01*
X144651698Y-133480327D01*
X144830327Y-133301699D01*
X144927000Y-133068310D01*
X144927000Y-131477750D01*
X144768250Y-131319000D01*
X142669000Y-131319000D01*
X142415000Y-131319000D01*
X140315750Y-131319000D01*
X140157000Y-131477750D01*
X134797000Y-131477750D01*
X134797000Y-126777750D01*
X137157000Y-126777750D01*
X137157000Y-128368310D01*
X137253673Y-128601699D01*
X137432302Y-128780327D01*
X137665691Y-128877000D01*
X139256250Y-128877000D01*
X139415000Y-128718250D01*
X139415000Y-126619000D01*
X139669000Y-126619000D01*
X139669000Y-128718250D01*
X139827750Y-128877000D01*
X140496696Y-128877000D01*
X140432302Y-128903673D01*
X140253673Y-129082301D01*
X140157000Y-129315690D01*
X140157000Y-130906250D01*
X140315750Y-131065000D01*
X142415000Y-131065000D01*
X142415000Y-128965750D01*
X142256250Y-128807000D01*
X141587304Y-128807000D01*
X141651698Y-128780327D01*
X141830327Y-128601699D01*
X141927000Y-128368310D01*
X141927000Y-126777750D01*
X141768250Y-126619000D01*
X139669000Y-126619000D01*
X139415000Y-126619000D01*
X137315750Y-126619000D01*
X137157000Y-126777750D01*
X134797000Y-126777750D01*
X134797000Y-124615690D01*
X137157000Y-124615690D01*
X137157000Y-126206250D01*
X137315750Y-126365000D01*
X139415000Y-126365000D01*
X139415000Y-124265750D01*
X139669000Y-124265750D01*
X139669000Y-126365000D01*
X141768250Y-126365000D01*
X141927000Y-126206250D01*
X141927000Y-124615690D01*
X141830327Y-124382301D01*
X141651698Y-124203673D01*
X141418309Y-124107000D01*
X139827750Y-124107000D01*
X139669000Y-124265750D01*
X139415000Y-124265750D01*
X139256250Y-124107000D01*
X137665691Y-124107000D01*
X137432302Y-124203673D01*
X137253673Y-124382301D01*
X137157000Y-124615690D01*
X134797000Y-124615690D01*
X134797000Y-112416000D01*
X140610560Y-112416000D01*
X140610560Y-118216000D01*
X140654838Y-118451317D01*
X140793910Y-118667441D01*
X141006110Y-118812431D01*
X141258000Y-118863440D01*
X143709823Y-118863440D01*
X143755852Y-119094839D01*
X143920599Y-119341401D01*
X146814000Y-122234802D01*
X146814000Y-123444000D01*
X146871852Y-123734839D01*
X147036599Y-123981401D01*
X147205954Y-124094560D01*
X143792000Y-124094560D01*
X143556683Y-124138838D01*
X143340559Y-124277910D01*
X143195569Y-124490110D01*
X143144560Y-124742000D01*
X143144560Y-128242000D01*
X143188838Y-128477317D01*
X143327910Y-128693441D01*
X143494109Y-128807000D01*
X142827750Y-128807000D01*
X142669000Y-128965750D01*
X142669000Y-131065000D01*
X144768250Y-131065000D01*
X144927000Y-130906250D01*
X144927000Y-130755750D01*
X150965000Y-130755750D01*
X150965000Y-132096309D01*
X151061673Y-132329698D01*
X151240301Y-132508327D01*
X151473690Y-132605000D01*
X152114250Y-132605000D01*
X152273000Y-132446250D01*
X152273000Y-130597000D01*
X152527000Y-130597000D01*
X152527000Y-132446250D01*
X152685750Y-132605000D01*
X153326310Y-132605000D01*
X153559699Y-132508327D01*
X153738327Y-132329698D01*
X153835000Y-132096309D01*
X153835000Y-130755750D01*
X157823000Y-130755750D01*
X157823000Y-132096309D01*
X157919673Y-132329698D01*
X158098301Y-132508327D01*
X158331690Y-132605000D01*
X158972250Y-132605000D01*
X159131000Y-132446250D01*
X159131000Y-130597000D01*
X159385000Y-130597000D01*
X159385000Y-132446250D01*
X159543750Y-132605000D01*
X160184310Y-132605000D01*
X160417699Y-132508327D01*
X160460025Y-132466000D01*
X169940560Y-132466000D01*
X169940560Y-134166000D01*
X169984838Y-134401317D01*
X170123910Y-134617441D01*
X170336110Y-134762431D01*
X170588000Y-134813440D01*
X172288000Y-134813440D01*
X172523317Y-134769162D01*
X172739441Y-134630090D01*
X172884431Y-134417890D01*
X172898086Y-134350459D01*
X172927946Y-134395147D01*
X173409715Y-134717054D01*
X173978000Y-134830093D01*
X174546285Y-134717054D01*
X175028054Y-134395147D01*
X175248000Y-134065974D01*
X175467946Y-134395147D01*
X175949715Y-134717054D01*
X176518000Y-134830093D01*
X177086285Y-134717054D01*
X177568054Y-134395147D01*
X177788000Y-134065974D01*
X178007946Y-134395147D01*
X178489715Y-134717054D01*
X179058000Y-134830093D01*
X179626285Y-134717054D01*
X180108054Y-134395147D01*
X180328000Y-134065974D01*
X180547946Y-134395147D01*
X181029715Y-134717054D01*
X181598000Y-134830093D01*
X182166285Y-134717054D01*
X182648054Y-134395147D01*
X182875702Y-134054447D01*
X182942817Y-134197358D01*
X183371076Y-134587645D01*
X183781110Y-134757476D01*
X184011000Y-134636155D01*
X184011000Y-133443000D01*
X184265000Y-133443000D01*
X184265000Y-134636155D01*
X184494890Y-134757476D01*
X184904924Y-134587645D01*
X185333183Y-134197358D01*
X185408000Y-134038046D01*
X185482817Y-134197358D01*
X185911076Y-134587645D01*
X186321110Y-134757476D01*
X186551000Y-134636155D01*
X186551000Y-133443000D01*
X184265000Y-133443000D01*
X184011000Y-133443000D01*
X183991000Y-133443000D01*
X183991000Y-133189000D01*
X184011000Y-133189000D01*
X184011000Y-131995845D01*
X184265000Y-131995845D01*
X184265000Y-133189000D01*
X186551000Y-133189000D01*
X186551000Y-131995845D01*
X186805000Y-131995845D01*
X186805000Y-133189000D01*
X186825000Y-133189000D01*
X186825000Y-133443000D01*
X186805000Y-133443000D01*
X186805000Y-134636155D01*
X187034890Y-134757476D01*
X187444924Y-134587645D01*
X187873183Y-134197358D01*
X187940298Y-134054447D01*
X188167946Y-134395147D01*
X188649715Y-134717054D01*
X189218000Y-134830093D01*
X189786285Y-134717054D01*
X190268054Y-134395147D01*
X190589961Y-133913378D01*
X190703000Y-133345093D01*
X190703000Y-133286907D01*
X192833000Y-133286907D01*
X192833000Y-133345093D01*
X192946039Y-133913378D01*
X193267946Y-134395147D01*
X193749715Y-134717054D01*
X194318000Y-134830093D01*
X194886285Y-134717054D01*
X195368054Y-134395147D01*
X195588000Y-134065974D01*
X195807946Y-134395147D01*
X196289715Y-134717054D01*
X196858000Y-134830093D01*
X197426285Y-134717054D01*
X197908054Y-134395147D01*
X198128000Y-134065974D01*
X198347946Y-134395147D01*
X198829715Y-134717054D01*
X199398000Y-134830093D01*
X199966285Y-134717054D01*
X200448054Y-134395147D01*
X200668000Y-134065974D01*
X200887946Y-134395147D01*
X201369715Y-134717054D01*
X201938000Y-134830093D01*
X202506285Y-134717054D01*
X202988054Y-134395147D01*
X203208000Y-134065974D01*
X203427946Y-134395147D01*
X203909715Y-134717054D01*
X204478000Y-134830093D01*
X205046285Y-134717054D01*
X205528054Y-134395147D01*
X205555850Y-134353548D01*
X205564838Y-134401317D01*
X205703910Y-134617441D01*
X205916110Y-134762431D01*
X206168000Y-134813440D01*
X207868000Y-134813440D01*
X208103317Y-134769162D01*
X208319441Y-134630090D01*
X208464431Y-134417890D01*
X208515440Y-134166000D01*
X208515440Y-132466000D01*
X208471162Y-132230683D01*
X208332090Y-132014559D01*
X208119890Y-131869569D01*
X207868000Y-131818560D01*
X206168000Y-131818560D01*
X205932683Y-131862838D01*
X205716559Y-132001910D01*
X205571569Y-132214110D01*
X205557914Y-132281541D01*
X205528054Y-132236853D01*
X205046285Y-131914946D01*
X204478000Y-131801907D01*
X203909715Y-131914946D01*
X203427946Y-132236853D01*
X203208000Y-132566026D01*
X202988054Y-132236853D01*
X202506285Y-131914946D01*
X201938000Y-131801907D01*
X201369715Y-131914946D01*
X200887946Y-132236853D01*
X200668000Y-132566026D01*
X200448054Y-132236853D01*
X199966285Y-131914946D01*
X199398000Y-131801907D01*
X198829715Y-131914946D01*
X198347946Y-132236853D01*
X198128000Y-132566026D01*
X197908054Y-132236853D01*
X197426285Y-131914946D01*
X196858000Y-131801907D01*
X196289715Y-131914946D01*
X195807946Y-132236853D01*
X195588000Y-132566026D01*
X195368054Y-132236853D01*
X194886285Y-131914946D01*
X194318000Y-131801907D01*
X193749715Y-131914946D01*
X193267946Y-132236853D01*
X192946039Y-132718622D01*
X192833000Y-133286907D01*
X190703000Y-133286907D01*
X190589961Y-132718622D01*
X190268054Y-132236853D01*
X189786285Y-131914946D01*
X189218000Y-131801907D01*
X188649715Y-131914946D01*
X188167946Y-132236853D01*
X187940298Y-132577553D01*
X187873183Y-132434642D01*
X187444924Y-132044355D01*
X187034890Y-131874524D01*
X186805000Y-131995845D01*
X186551000Y-131995845D01*
X186321110Y-131874524D01*
X185911076Y-132044355D01*
X185482817Y-132434642D01*
X185408000Y-132593954D01*
X185333183Y-132434642D01*
X184904924Y-132044355D01*
X184494890Y-131874524D01*
X184265000Y-131995845D01*
X184011000Y-131995845D01*
X183781110Y-131874524D01*
X183371076Y-132044355D01*
X182942817Y-132434642D01*
X182875702Y-132577553D01*
X182648054Y-132236853D01*
X182166285Y-131914946D01*
X181598000Y-131801907D01*
X181029715Y-131914946D01*
X180547946Y-132236853D01*
X180328000Y-132566026D01*
X180108054Y-132236853D01*
X179626285Y-131914946D01*
X179058000Y-131801907D01*
X178489715Y-131914946D01*
X178007946Y-132236853D01*
X177788000Y-132566026D01*
X177568054Y-132236853D01*
X177086285Y-131914946D01*
X176518000Y-131801907D01*
X175949715Y-131914946D01*
X175467946Y-132236853D01*
X175248000Y-132566026D01*
X175028054Y-132236853D01*
X174546285Y-131914946D01*
X173978000Y-131801907D01*
X173409715Y-131914946D01*
X172927946Y-132236853D01*
X172900150Y-132278452D01*
X172891162Y-132230683D01*
X172752090Y-132014559D01*
X172539890Y-131869569D01*
X172288000Y-131818560D01*
X170588000Y-131818560D01*
X170352683Y-131862838D01*
X170136559Y-132001910D01*
X169991569Y-132214110D01*
X169940560Y-132466000D01*
X160460025Y-132466000D01*
X160596327Y-132329698D01*
X160693000Y-132096309D01*
X160693000Y-130780775D01*
X175394803Y-130780775D01*
X175567233Y-131198086D01*
X175886235Y-131517645D01*
X176303244Y-131690803D01*
X176754775Y-131691197D01*
X177172086Y-131518767D01*
X177375207Y-131316000D01*
X189992000Y-131316000D01*
X190282839Y-131258148D01*
X190395441Y-131182910D01*
X190724775Y-131183197D01*
X191142086Y-131010767D01*
X191461645Y-130691765D01*
X191634803Y-130274756D01*
X191635197Y-129823225D01*
X191462767Y-129405914D01*
X191143765Y-129086355D01*
X190726756Y-128913197D01*
X190275225Y-128912803D01*
X189857914Y-129085233D01*
X189538355Y-129404235D01*
X189375679Y-129796000D01*
X177375059Y-129796000D01*
X177173765Y-129594355D01*
X176756756Y-129421197D01*
X176305225Y-129420803D01*
X175887914Y-129593233D01*
X175568355Y-129912235D01*
X175395197Y-130329244D01*
X175394803Y-130780775D01*
X160693000Y-130780775D01*
X160693000Y-130755750D01*
X160534250Y-130597000D01*
X159385000Y-130597000D01*
X159131000Y-130597000D01*
X157981750Y-130597000D01*
X157823000Y-130755750D01*
X153835000Y-130755750D01*
X153676250Y-130597000D01*
X152527000Y-130597000D01*
X152273000Y-130597000D01*
X151123750Y-130597000D01*
X150965000Y-130755750D01*
X144927000Y-130755750D01*
X144927000Y-129315690D01*
X144830327Y-129082301D01*
X144651698Y-128903673D01*
X144617337Y-128889440D01*
X147292000Y-128889440D01*
X147527317Y-128845162D01*
X147529602Y-128843691D01*
X150965000Y-128843691D01*
X150965000Y-130184250D01*
X151123750Y-130343000D01*
X152273000Y-130343000D01*
X152273000Y-128493750D01*
X152527000Y-128493750D01*
X152527000Y-130343000D01*
X153676250Y-130343000D01*
X153835000Y-130184250D01*
X153835000Y-128843691D01*
X157823000Y-128843691D01*
X157823000Y-130184250D01*
X157981750Y-130343000D01*
X159131000Y-130343000D01*
X159131000Y-128493750D01*
X159385000Y-128493750D01*
X159385000Y-130343000D01*
X160534250Y-130343000D01*
X160693000Y-130184250D01*
X160693000Y-128843691D01*
X160596327Y-128610302D01*
X160417699Y-128431673D01*
X160184310Y-128335000D01*
X159543750Y-128335000D01*
X159385000Y-128493750D01*
X159131000Y-128493750D01*
X158972250Y-128335000D01*
X158331690Y-128335000D01*
X158098301Y-128431673D01*
X157919673Y-128610302D01*
X157823000Y-128843691D01*
X153835000Y-128843691D01*
X153738327Y-128610302D01*
X153559699Y-128431673D01*
X153326310Y-128335000D01*
X152685750Y-128335000D01*
X152527000Y-128493750D01*
X152273000Y-128493750D01*
X152114250Y-128335000D01*
X151473690Y-128335000D01*
X151240301Y-128431673D01*
X151061673Y-128610302D01*
X150965000Y-128843691D01*
X147529602Y-128843691D01*
X147743441Y-128706090D01*
X147888431Y-128493890D01*
X147939440Y-128242000D01*
X147939440Y-124742000D01*
X147895162Y-124506683D01*
X147756090Y-124290559D01*
X147629407Y-124204000D01*
X148760941Y-124204000D01*
X148962235Y-124405645D01*
X149379244Y-124578803D01*
X149830775Y-124579197D01*
X150248086Y-124406767D01*
X150567645Y-124087765D01*
X150740803Y-123670756D01*
X150741197Y-123219225D01*
X150568767Y-122801914D01*
X150249765Y-122482355D01*
X149832756Y-122309197D01*
X149657415Y-122309044D01*
X149714321Y-122172000D01*
X150654560Y-122172000D01*
X150654560Y-122262000D01*
X150698838Y-122497317D01*
X150837910Y-122713441D01*
X151050110Y-122858431D01*
X151302000Y-122909440D01*
X152192000Y-122909440D01*
X152192000Y-123922560D01*
X151600000Y-123922560D01*
X151364683Y-123966838D01*
X151148559Y-124105910D01*
X151003569Y-124318110D01*
X150952560Y-124570000D01*
X150952560Y-127570000D01*
X150996838Y-127805317D01*
X151135910Y-128021441D01*
X151348110Y-128166431D01*
X151600000Y-128217440D01*
X153200000Y-128217440D01*
X153435317Y-128173162D01*
X153651441Y-128034090D01*
X153796431Y-127821890D01*
X153847440Y-127570000D01*
X153847440Y-126830000D01*
X154854000Y-126830000D01*
X155144839Y-126772148D01*
X155391401Y-126607401D01*
X155641854Y-126356948D01*
X155926775Y-126357197D01*
X156344086Y-126184767D01*
X156663645Y-125865765D01*
X156776699Y-125593501D01*
X157790599Y-126607401D01*
X157810560Y-126620738D01*
X157810560Y-127570000D01*
X157854838Y-127805317D01*
X157993910Y-128021441D01*
X158206110Y-128166431D01*
X158458000Y-128217440D01*
X160058000Y-128217440D01*
X160293317Y-128173162D01*
X160509441Y-128034090D01*
X160654431Y-127821890D01*
X160705440Y-127570000D01*
X160705440Y-126830000D01*
X161569198Y-126830000D01*
X161933052Y-127193854D01*
X161932803Y-127478775D01*
X162105233Y-127896086D01*
X162424235Y-128215645D01*
X162841244Y-128388803D01*
X163292775Y-128389197D01*
X163710086Y-128216767D01*
X164029645Y-127897765D01*
X164202803Y-127480756D01*
X164203197Y-127029225D01*
X164030767Y-126611914D01*
X163711765Y-126292355D01*
X163294756Y-126119197D01*
X163007749Y-126118947D01*
X162421401Y-125532599D01*
X162174839Y-125367852D01*
X161884000Y-125310000D01*
X160705440Y-125310000D01*
X160705440Y-124570000D01*
X160661162Y-124334683D01*
X160522090Y-124118559D01*
X160309890Y-123973569D01*
X160058000Y-123922560D01*
X158458000Y-123922560D01*
X158222683Y-123966838D01*
X158006559Y-124105910D01*
X157861569Y-124318110D01*
X157826094Y-124493292D01*
X156836948Y-123504146D01*
X156837197Y-123219225D01*
X156704056Y-122897000D01*
X158166250Y-122897000D01*
X158325000Y-122738250D01*
X158325000Y-121539000D01*
X158579000Y-121539000D01*
X158579000Y-122738250D01*
X158737750Y-122897000D01*
X160228309Y-122897000D01*
X160265125Y-122881750D01*
X169253000Y-122881750D01*
X169253000Y-124222309D01*
X169349673Y-124455698D01*
X169528301Y-124634327D01*
X169761690Y-124731000D01*
X170402250Y-124731000D01*
X170561000Y-124572250D01*
X170561000Y-122723000D01*
X170815000Y-122723000D01*
X170815000Y-124572250D01*
X170973750Y-124731000D01*
X171614310Y-124731000D01*
X171847699Y-124634327D01*
X172026327Y-124455698D01*
X172123000Y-124222309D01*
X172123000Y-122881750D01*
X171964250Y-122723000D01*
X170815000Y-122723000D01*
X170561000Y-122723000D01*
X169411750Y-122723000D01*
X169253000Y-122881750D01*
X160265125Y-122881750D01*
X160461698Y-122800327D01*
X160640327Y-122621699D01*
X160737000Y-122388310D01*
X160737000Y-121697750D01*
X160578250Y-121539000D01*
X158579000Y-121539000D01*
X158325000Y-121539000D01*
X156325750Y-121539000D01*
X156167000Y-121697750D01*
X156167000Y-122388310D01*
X156176913Y-122412241D01*
X155928756Y-122309197D01*
X155477225Y-122308803D01*
X155218297Y-122415790D01*
X155249440Y-122262000D01*
X155249440Y-120562000D01*
X155225674Y-120435690D01*
X156167000Y-120435690D01*
X156167000Y-121126250D01*
X156325750Y-121285000D01*
X158325000Y-121285000D01*
X158325000Y-120085750D01*
X158579000Y-120085750D01*
X158579000Y-121285000D01*
X160578250Y-121285000D01*
X160737000Y-121126250D01*
X160737000Y-120969691D01*
X169253000Y-120969691D01*
X169253000Y-122310250D01*
X169411750Y-122469000D01*
X170561000Y-122469000D01*
X170561000Y-120619750D01*
X170815000Y-120619750D01*
X170815000Y-122469000D01*
X171964250Y-122469000D01*
X172123000Y-122310250D01*
X172123000Y-120969691D01*
X172026327Y-120736302D01*
X171847699Y-120557673D01*
X171614310Y-120461000D01*
X170973750Y-120461000D01*
X170815000Y-120619750D01*
X170561000Y-120619750D01*
X170402250Y-120461000D01*
X169761690Y-120461000D01*
X169528301Y-120557673D01*
X169349673Y-120736302D01*
X169253000Y-120969691D01*
X160737000Y-120969691D01*
X160737000Y-120435690D01*
X160640327Y-120202301D01*
X160461698Y-120023673D01*
X160228309Y-119927000D01*
X158737750Y-119927000D01*
X158579000Y-120085750D01*
X158325000Y-120085750D01*
X158166250Y-119927000D01*
X156675691Y-119927000D01*
X156442302Y-120023673D01*
X156263673Y-120202301D01*
X156167000Y-120435690D01*
X155225674Y-120435690D01*
X155205162Y-120326683D01*
X155085035Y-120140000D01*
X155194000Y-120140000D01*
X155484839Y-120082148D01*
X155731401Y-119917401D01*
X156049052Y-119599750D01*
X165106000Y-119599750D01*
X165106000Y-120040309D01*
X165202673Y-120273698D01*
X165381301Y-120452327D01*
X165614690Y-120549000D01*
X165830250Y-120549000D01*
X165989000Y-120390250D01*
X165989000Y-119441000D01*
X166243000Y-119441000D01*
X166243000Y-120390250D01*
X166401750Y-120549000D01*
X166617310Y-120549000D01*
X166850699Y-120452327D01*
X167029327Y-120273698D01*
X167126000Y-120040309D01*
X167126000Y-119599750D01*
X166967250Y-119441000D01*
X166243000Y-119441000D01*
X165989000Y-119441000D01*
X165264750Y-119441000D01*
X165106000Y-119599750D01*
X156049052Y-119599750D01*
X156239401Y-119409401D01*
X156361100Y-119227265D01*
X156404148Y-119162839D01*
X156462000Y-118872000D01*
X156462000Y-118645440D01*
X157802000Y-118645440D01*
X158037317Y-118601162D01*
X158253441Y-118462090D01*
X158398431Y-118249890D01*
X158427164Y-118108000D01*
X159044621Y-118108000D01*
X159190000Y-118137440D01*
X160690000Y-118137440D01*
X160925317Y-118093162D01*
X161141441Y-117954090D01*
X161286431Y-117741890D01*
X161293191Y-117708510D01*
X161351673Y-117849699D01*
X161530302Y-118028327D01*
X161763691Y-118125000D01*
X162354250Y-118125000D01*
X162513000Y-117966250D01*
X162513000Y-116967000D01*
X162767000Y-116967000D01*
X162767000Y-117966250D01*
X162925750Y-118125000D01*
X163516309Y-118125000D01*
X163749698Y-118028327D01*
X163928327Y-117849699D01*
X164025000Y-117616310D01*
X164025000Y-117125750D01*
X163866250Y-116967000D01*
X162767000Y-116967000D01*
X162513000Y-116967000D01*
X162493000Y-116967000D01*
X162493000Y-116814000D01*
X165093560Y-116814000D01*
X165093560Y-118014000D01*
X165137838Y-118249317D01*
X165204329Y-118352646D01*
X165202673Y-118354302D01*
X165106000Y-118587691D01*
X165106000Y-119028250D01*
X165264750Y-119187000D01*
X165989000Y-119187000D01*
X165989000Y-119167000D01*
X166243000Y-119167000D01*
X166243000Y-119187000D01*
X166967250Y-119187000D01*
X167126000Y-119028250D01*
X167126000Y-118956000D01*
X169240560Y-118956000D01*
X169240560Y-119696000D01*
X169284838Y-119931317D01*
X169423910Y-120147441D01*
X169636110Y-120292431D01*
X169888000Y-120343440D01*
X171488000Y-120343440D01*
X171723317Y-120299162D01*
X171939441Y-120160090D01*
X172084431Y-119947890D01*
X172135440Y-119696000D01*
X172135440Y-118956000D01*
X173142000Y-118956000D01*
X173432839Y-118898148D01*
X173679401Y-118733401D01*
X174437854Y-117974948D01*
X174722775Y-117975197D01*
X175140086Y-117802767D01*
X175459645Y-117483765D01*
X175632803Y-117066756D01*
X175632846Y-117017648D01*
X176024000Y-117408802D01*
X176024000Y-124122941D01*
X175822355Y-124324235D01*
X175649197Y-124741244D01*
X175648803Y-125192775D01*
X175821233Y-125610086D01*
X176140235Y-125929645D01*
X176557244Y-126102803D01*
X177008775Y-126103197D01*
X177426086Y-125930767D01*
X177745645Y-125611765D01*
X177918803Y-125194756D01*
X177919197Y-124743225D01*
X177746767Y-124325914D01*
X177544000Y-124122793D01*
X177544000Y-119491750D01*
X178547000Y-119491750D01*
X178547000Y-120082309D01*
X178643673Y-120315698D01*
X178822301Y-120494327D01*
X179055690Y-120591000D01*
X179546250Y-120591000D01*
X179705000Y-120432250D01*
X179705000Y-119333000D01*
X179959000Y-119333000D01*
X179959000Y-120432250D01*
X180117750Y-120591000D01*
X180608310Y-120591000D01*
X180841699Y-120494327D01*
X181020327Y-120315698D01*
X181117000Y-120082309D01*
X181117000Y-119491750D01*
X180958250Y-119333000D01*
X179959000Y-119333000D01*
X179705000Y-119333000D01*
X178705750Y-119333000D01*
X178547000Y-119491750D01*
X177544000Y-119491750D01*
X177544000Y-117094000D01*
X177520217Y-116974434D01*
X177486148Y-116803160D01*
X177321401Y-116556599D01*
X176738802Y-115974000D01*
X178534560Y-115974000D01*
X178534560Y-117256000D01*
X178578838Y-117491317D01*
X178717910Y-117707441D01*
X178930110Y-117852431D01*
X178963490Y-117859191D01*
X178822301Y-117917673D01*
X178643673Y-118096302D01*
X178547000Y-118329691D01*
X178547000Y-118920250D01*
X178705750Y-119079000D01*
X179705000Y-119079000D01*
X179705000Y-119059000D01*
X179959000Y-119059000D01*
X179959000Y-119079000D01*
X180958250Y-119079000D01*
X181117000Y-118920250D01*
X181117000Y-118329691D01*
X181020327Y-118096302D01*
X180841699Y-117917673D01*
X180705713Y-117861346D01*
X180717317Y-117859162D01*
X180933441Y-117720090D01*
X181078431Y-117507890D01*
X181129440Y-117256000D01*
X181129440Y-116774000D01*
X181349025Y-116774000D01*
X181512110Y-116885431D01*
X181764000Y-116936440D01*
X183264000Y-116936440D01*
X183298454Y-116929957D01*
X183291560Y-116964000D01*
X183291560Y-117083080D01*
X183151599Y-117176599D01*
X182220599Y-118107599D01*
X182055852Y-118354161D01*
X181998000Y-118645000D01*
X181998000Y-119149666D01*
X181922683Y-119163838D01*
X181706559Y-119302910D01*
X181561569Y-119515110D01*
X181510560Y-119767000D01*
X181510560Y-120517000D01*
X181554838Y-120752317D01*
X181693910Y-120968441D01*
X181906110Y-121113431D01*
X181998000Y-121132039D01*
X181998000Y-122730976D01*
X181805285Y-122810604D01*
X181485726Y-123129606D01*
X181312568Y-123546615D01*
X181312174Y-123998146D01*
X181484604Y-124415457D01*
X181803606Y-124735016D01*
X182220615Y-124908174D01*
X182672146Y-124908568D01*
X183089457Y-124736138D01*
X183409016Y-124417136D01*
X183582174Y-124000127D01*
X183582568Y-123548596D01*
X183518000Y-123392330D01*
X183518000Y-121134334D01*
X183593317Y-121120162D01*
X183696646Y-121053671D01*
X183698302Y-121055327D01*
X183931691Y-121152000D01*
X184372250Y-121152000D01*
X184531000Y-120993250D01*
X184531000Y-120269000D01*
X184511000Y-120269000D01*
X184511000Y-120015000D01*
X184531000Y-120015000D01*
X184531000Y-119290750D01*
X184372250Y-119132000D01*
X183931691Y-119132000D01*
X183698302Y-119228673D01*
X183696932Y-119230043D01*
X183609890Y-119170569D01*
X183518000Y-119151961D01*
X183518000Y-118959802D01*
X183526863Y-118950939D01*
X183687110Y-119060431D01*
X183939000Y-119111440D01*
X184489000Y-119111440D01*
X184594705Y-119091550D01*
X184612690Y-119099000D01*
X184728250Y-119099000D01*
X184824651Y-119002599D01*
X184940441Y-118928090D01*
X185013884Y-118820603D01*
X185054000Y-118882946D01*
X185054000Y-119132000D01*
X184943750Y-119132000D01*
X184785000Y-119290750D01*
X184785000Y-120015000D01*
X184805000Y-120015000D01*
X184805000Y-120269000D01*
X184785000Y-120269000D01*
X184785000Y-120993250D01*
X184943750Y-121152000D01*
X185355198Y-121152000D01*
X193550000Y-129346802D01*
X193550000Y-129710941D01*
X193348355Y-129912235D01*
X193175197Y-130329244D01*
X193174803Y-130780775D01*
X193347233Y-131198086D01*
X193666235Y-131517645D01*
X194083244Y-131690803D01*
X194534775Y-131691197D01*
X194952086Y-131518767D01*
X195271645Y-131199765D01*
X195444803Y-130782756D01*
X195445067Y-130479869D01*
X195461052Y-130495854D01*
X195460803Y-130780775D01*
X195633233Y-131198086D01*
X195952235Y-131517645D01*
X196369244Y-131690803D01*
X196820775Y-131691197D01*
X197238086Y-131518767D01*
X197485151Y-131272133D01*
X197730235Y-131517645D01*
X198147244Y-131690803D01*
X198598775Y-131691197D01*
X199016086Y-131518767D01*
X199307634Y-131227728D01*
X199353161Y-131258148D01*
X199644000Y-131316000D01*
X200576941Y-131316000D01*
X200778235Y-131517645D01*
X201195244Y-131690803D01*
X201646775Y-131691197D01*
X202064086Y-131518767D01*
X202383645Y-131199765D01*
X202437920Y-131069058D01*
X202491233Y-131198086D01*
X202810235Y-131517645D01*
X203227244Y-131690803D01*
X203678775Y-131691197D01*
X204096086Y-131518767D01*
X204415645Y-131199765D01*
X204588803Y-130782756D01*
X204589197Y-130331225D01*
X204416767Y-129913914D01*
X204295065Y-129792000D01*
X204663198Y-129792000D01*
X205367052Y-130495854D01*
X205366803Y-130780775D01*
X205539233Y-131198086D01*
X205858235Y-131517645D01*
X206275244Y-131690803D01*
X206726775Y-131691197D01*
X207144086Y-131518767D01*
X207463645Y-131199765D01*
X207636803Y-130782756D01*
X207637197Y-130331225D01*
X207464767Y-129913914D01*
X207145765Y-129594355D01*
X206728756Y-129421197D01*
X206441749Y-129420947D01*
X205515401Y-128494599D01*
X205268839Y-128329852D01*
X204978000Y-128272000D01*
X200446802Y-128272000D01*
X198430763Y-126255961D01*
X198625827Y-126217160D01*
X198872389Y-126052413D01*
X198911401Y-126013401D01*
X199012411Y-125862229D01*
X199012411Y-126238000D01*
X199070263Y-126528839D01*
X199235010Y-126775401D01*
X199481572Y-126940148D01*
X199772411Y-126998000D01*
X206697740Y-126998000D01*
X206988579Y-126940148D01*
X207235141Y-126775401D01*
X211013411Y-122997131D01*
X211178158Y-122750569D01*
X211236010Y-122459730D01*
X211236010Y-117659750D01*
X211178158Y-117368911D01*
X211013411Y-117122349D01*
X210066841Y-116175779D01*
X210112970Y-116166603D01*
X210481190Y-115920566D01*
X210727227Y-115552346D01*
X210813624Y-115118000D01*
X210727227Y-114683654D01*
X210481190Y-114315434D01*
X210112970Y-114069397D01*
X209678624Y-113983000D01*
X209073376Y-113983000D01*
X208639030Y-114069397D01*
X208270810Y-114315434D01*
X208245049Y-114353987D01*
X205013952Y-111122890D01*
X205676524Y-111122890D01*
X205846355Y-111532924D01*
X206236642Y-111961183D01*
X206761108Y-112207486D01*
X206991000Y-112086819D01*
X206991000Y-110893000D01*
X205797845Y-110893000D01*
X205676524Y-111122890D01*
X205013952Y-111122890D01*
X204681001Y-110789939D01*
X204681001Y-109305999D01*
X204623149Y-109015160D01*
X204458402Y-108768598D01*
X204293415Y-108603611D01*
X204207013Y-108545880D01*
X204243440Y-108366000D01*
X204243440Y-106866000D01*
X204199162Y-106630683D01*
X204060090Y-106414559D01*
X203892650Y-106300152D01*
X204155854Y-106036948D01*
X204440775Y-106037197D01*
X204858086Y-105864767D01*
X205037165Y-105686000D01*
X205603907Y-105686000D01*
X205716946Y-106254285D01*
X206038853Y-106736054D01*
X206368026Y-106956000D01*
X206038853Y-107175946D01*
X205716946Y-107657715D01*
X205603907Y-108226000D01*
X205716946Y-108794285D01*
X206038853Y-109276054D01*
X206379553Y-109503702D01*
X206236642Y-109570817D01*
X205846355Y-109999076D01*
X205676524Y-110409110D01*
X205797845Y-110639000D01*
X206991000Y-110639000D01*
X206991000Y-110619000D01*
X207245000Y-110619000D01*
X207245000Y-110639000D01*
X207265000Y-110639000D01*
X207265000Y-110893000D01*
X207245000Y-110893000D01*
X207245000Y-112086819D01*
X207474892Y-112207486D01*
X207999358Y-111961183D01*
X208389645Y-111532924D01*
X208389655Y-111532899D01*
X208578853Y-111816054D01*
X209060622Y-112137961D01*
X209628907Y-112251000D01*
X209687093Y-112251000D01*
X210255378Y-112137961D01*
X210737147Y-111816054D01*
X211059054Y-111334285D01*
X211172093Y-110766000D01*
X211059054Y-110197715D01*
X210737147Y-109715946D01*
X210407974Y-109496000D01*
X210737147Y-109276054D01*
X211059054Y-108794285D01*
X211172093Y-108226000D01*
X211059054Y-107657715D01*
X210737147Y-107175946D01*
X210695548Y-107148150D01*
X210743317Y-107139162D01*
X210959441Y-107000090D01*
X211104431Y-106787890D01*
X211155440Y-106536000D01*
X211155440Y-104836000D01*
X211111162Y-104600683D01*
X210972090Y-104384559D01*
X210759890Y-104239569D01*
X210508000Y-104188560D01*
X208808000Y-104188560D01*
X208572683Y-104232838D01*
X208356559Y-104371910D01*
X208211569Y-104584110D01*
X208200159Y-104640454D01*
X208197147Y-104635946D01*
X207715378Y-104314039D01*
X207147093Y-104201000D01*
X207088907Y-104201000D01*
X206520622Y-104314039D01*
X206038853Y-104635946D01*
X205716946Y-105117715D01*
X205603907Y-105686000D01*
X205037165Y-105686000D01*
X205177645Y-105545765D01*
X205350803Y-105128756D01*
X205351197Y-104677225D01*
X205178767Y-104259914D01*
X205057065Y-104138000D01*
X207010000Y-104138000D01*
X207300839Y-104080148D01*
X207547401Y-103915401D01*
X207975401Y-103487401D01*
X208140148Y-103240840D01*
X208150571Y-103188441D01*
X208198000Y-102950000D01*
X208198000Y-102133558D01*
X208423317Y-102091162D01*
X208639441Y-101952090D01*
X208784431Y-101739890D01*
X208787081Y-101726803D01*
X208923910Y-101939441D01*
X209136110Y-102084431D01*
X209290763Y-102115749D01*
X209177197Y-102389244D01*
X209176803Y-102840775D01*
X209349233Y-103258086D01*
X209668235Y-103577645D01*
X210085244Y-103750803D01*
X210536775Y-103751197D01*
X210954086Y-103578767D01*
X211273645Y-103259765D01*
X211446803Y-102842756D01*
X211447197Y-102391225D01*
X211281227Y-101989549D01*
X211339441Y-101952090D01*
X211484431Y-101739890D01*
X211535440Y-101488000D01*
X211535440Y-100188000D01*
X211491162Y-99952683D01*
X211395671Y-99804285D01*
X211498431Y-99653890D01*
X211549440Y-99402000D01*
X211549440Y-97702000D01*
X211505162Y-97466683D01*
X211366090Y-97250559D01*
X211153890Y-97105569D01*
X210902000Y-97054560D01*
X207602000Y-97054560D01*
X207366683Y-97098838D01*
X207150559Y-97237910D01*
X207005569Y-97450110D01*
X206954560Y-97702000D01*
X206954560Y-99402000D01*
X206980632Y-99540560D01*
X206688000Y-99540560D01*
X206452683Y-99584838D01*
X206236559Y-99723910D01*
X206091569Y-99936110D01*
X206089834Y-99944679D01*
X206050327Y-99849301D01*
X205940175Y-99739150D01*
X205998431Y-99653890D01*
X206049440Y-99402000D01*
X206049440Y-97702000D01*
X206005162Y-97466683D01*
X205866090Y-97250559D01*
X205653890Y-97105569D01*
X205402000Y-97054560D01*
X202102000Y-97054560D01*
X201866683Y-97098838D01*
X201650559Y-97237910D01*
X201505569Y-97450110D01*
X201454560Y-97702000D01*
X201454560Y-99402000D01*
X201498838Y-99637317D01*
X201637910Y-99853441D01*
X201812417Y-99972676D01*
X201764560Y-100209000D01*
X201764560Y-100359758D01*
X190110948Y-88706146D01*
X190111197Y-88421225D01*
X190098295Y-88390000D01*
X191963198Y-88390000D01*
X198001052Y-94427854D01*
X198000803Y-94712775D01*
X198173233Y-95130086D01*
X198492235Y-95449645D01*
X198909244Y-95622803D01*
X199360775Y-95623197D01*
X199480336Y-95573795D01*
X201668716Y-95573795D01*
X201917106Y-96174943D01*
X202376637Y-96635278D01*
X202977352Y-96884716D01*
X203627795Y-96885284D01*
X204228943Y-96636894D01*
X204689278Y-96177363D01*
X204938716Y-95576648D01*
X204938718Y-95573795D01*
X208168716Y-95573795D01*
X208417106Y-96174943D01*
X208876637Y-96635278D01*
X209477352Y-96884716D01*
X210127795Y-96885284D01*
X210728943Y-96636894D01*
X211189278Y-96177363D01*
X211438716Y-95576648D01*
X211439284Y-94926205D01*
X211190894Y-94325057D01*
X210731363Y-93864722D01*
X210130648Y-93615284D01*
X209480205Y-93614716D01*
X208879057Y-93863106D01*
X208418722Y-94322637D01*
X208169284Y-94923352D01*
X208168716Y-95573795D01*
X204938718Y-95573795D01*
X204939284Y-94926205D01*
X204690894Y-94325057D01*
X204231363Y-93864722D01*
X203630648Y-93615284D01*
X202980205Y-93614716D01*
X202379057Y-93863106D01*
X201918722Y-94322637D01*
X201669284Y-94923352D01*
X201668716Y-95573795D01*
X199480336Y-95573795D01*
X199778086Y-95450767D01*
X200097645Y-95131765D01*
X200270803Y-94714756D01*
X200271197Y-94263225D01*
X200098767Y-93845914D01*
X200039896Y-93786941D01*
X200179244Y-93844803D01*
X200630775Y-93845197D01*
X201048086Y-93672767D01*
X201367645Y-93353765D01*
X201540803Y-92936756D01*
X201541197Y-92485225D01*
X201368767Y-92067914D01*
X201203674Y-91902532D01*
X202331073Y-91902532D01*
X202429736Y-92169387D01*
X203039461Y-92395908D01*
X203689460Y-92371856D01*
X204178264Y-92169387D01*
X204276927Y-91902532D01*
X208831073Y-91902532D01*
X208929736Y-92169387D01*
X209539461Y-92395908D01*
X210189460Y-92371856D01*
X210678264Y-92169387D01*
X210776927Y-91902532D01*
X209804000Y-90929605D01*
X208831073Y-91902532D01*
X204276927Y-91902532D01*
X203304000Y-90929605D01*
X202331073Y-91902532D01*
X201203674Y-91902532D01*
X201131694Y-91830427D01*
X201108148Y-91712055D01*
X200943401Y-91465493D01*
X200150000Y-90672092D01*
X200150000Y-90485461D01*
X201658092Y-90485461D01*
X201682144Y-91135460D01*
X201884613Y-91624264D01*
X202151468Y-91722927D01*
X203124395Y-90750000D01*
X203483605Y-90750000D01*
X204456532Y-91722927D01*
X204723387Y-91624264D01*
X204949908Y-91014539D01*
X204930331Y-90485461D01*
X208158092Y-90485461D01*
X208182144Y-91135460D01*
X208384613Y-91624264D01*
X208651468Y-91722927D01*
X209624395Y-90750000D01*
X209983605Y-90750000D01*
X210956532Y-91722927D01*
X211223387Y-91624264D01*
X211449908Y-91014539D01*
X211425856Y-90364540D01*
X211223387Y-89875736D01*
X210956532Y-89777073D01*
X209983605Y-90750000D01*
X209624395Y-90750000D01*
X208651468Y-89777073D01*
X208384613Y-89875736D01*
X208158092Y-90485461D01*
X204930331Y-90485461D01*
X204925856Y-90364540D01*
X204723387Y-89875736D01*
X204456532Y-89777073D01*
X203483605Y-90750000D01*
X203124395Y-90750000D01*
X202151468Y-89777073D01*
X201884613Y-89875736D01*
X201658092Y-90485461D01*
X200150000Y-90485461D01*
X200150000Y-89597468D01*
X202331073Y-89597468D01*
X203304000Y-90570395D01*
X204276927Y-89597468D01*
X208831073Y-89597468D01*
X209804000Y-90570395D01*
X210776927Y-89597468D01*
X210678264Y-89330613D01*
X210068539Y-89104092D01*
X209418540Y-89128144D01*
X208929736Y-89330613D01*
X208831073Y-89597468D01*
X204276927Y-89597468D01*
X204178264Y-89330613D01*
X203568539Y-89104092D01*
X202918540Y-89128144D01*
X202429736Y-89330613D01*
X202331073Y-89597468D01*
X200150000Y-89597468D01*
X200150000Y-88475059D01*
X200351645Y-88273765D01*
X200524803Y-87856756D01*
X200525197Y-87405225D01*
X200352767Y-86987914D01*
X200035927Y-86670521D01*
X200448054Y-86395147D01*
X200668000Y-86065974D01*
X200887946Y-86395147D01*
X201369715Y-86717054D01*
X201938000Y-86830093D01*
X202506285Y-86717054D01*
X202988054Y-86395147D01*
X203208000Y-86065974D01*
X203427946Y-86395147D01*
X203909715Y-86717054D01*
X204478000Y-86830093D01*
X205046285Y-86717054D01*
X205528054Y-86395147D01*
X205748000Y-86065974D01*
X205967946Y-86395147D01*
X206449715Y-86717054D01*
X207018000Y-86830093D01*
X207586285Y-86717054D01*
X208068054Y-86395147D01*
X208389961Y-85913378D01*
X208503000Y-85345093D01*
X208503000Y-85286907D01*
X208389961Y-84718622D01*
X208068054Y-84236853D01*
X207586285Y-83914946D01*
X207018000Y-83801907D01*
X206449715Y-83914946D01*
X205967946Y-84236853D01*
X205748000Y-84566026D01*
X205528054Y-84236853D01*
X205046285Y-83914946D01*
X204478000Y-83801907D01*
X203909715Y-83914946D01*
X203427946Y-84236853D01*
X203208000Y-84566026D01*
X202988054Y-84236853D01*
X202506285Y-83914946D01*
X201938000Y-83801907D01*
X201369715Y-83914946D01*
X200887946Y-84236853D01*
X200668000Y-84566026D01*
X200448054Y-84236853D01*
X199966285Y-83914946D01*
X199398000Y-83801907D01*
X198829715Y-83914946D01*
X198347946Y-84236853D01*
X198128000Y-84566026D01*
X197908054Y-84236853D01*
X197426285Y-83914946D01*
X196858000Y-83801907D01*
X196289715Y-83914946D01*
X195807946Y-84236853D01*
X195588000Y-84566026D01*
X195368054Y-84236853D01*
X194886285Y-83914946D01*
X194318000Y-83801907D01*
X193749715Y-83914946D01*
X193267946Y-84236853D01*
X193048000Y-84566026D01*
X192828054Y-84236853D01*
X192346285Y-83914946D01*
X191778000Y-83801907D01*
X191209715Y-83914946D01*
X190727946Y-84236853D01*
X190700150Y-84278452D01*
X190691162Y-84230683D01*
X190552090Y-84014559D01*
X190339890Y-83869569D01*
X190088000Y-83818560D01*
X188388000Y-83818560D01*
X188152683Y-83862838D01*
X187936559Y-84001910D01*
X187791569Y-84214110D01*
X187740560Y-84466000D01*
X187740560Y-86044998D01*
X186458016Y-86044998D01*
X186545961Y-85913378D01*
X186659000Y-85345093D01*
X186659000Y-85286907D01*
X186545961Y-84718622D01*
X186224054Y-84236853D01*
X185742285Y-83914946D01*
X185174000Y-83801907D01*
X184605715Y-83914946D01*
X184123946Y-84236853D01*
X183904000Y-84566026D01*
X183684054Y-84236853D01*
X183202285Y-83914946D01*
X182634000Y-83801907D01*
X182065715Y-83914946D01*
X181583946Y-84236853D01*
X181364000Y-84566026D01*
X181144054Y-84236853D01*
X180662285Y-83914946D01*
X180094000Y-83801907D01*
X179525715Y-83914946D01*
X179043946Y-84236853D01*
X178824000Y-84566026D01*
X178604054Y-84236853D01*
X178122285Y-83914946D01*
X177554000Y-83801907D01*
X176985715Y-83914946D01*
X176503946Y-84236853D01*
X176284000Y-84566026D01*
X176064054Y-84236853D01*
X175582285Y-83914946D01*
X175014000Y-83801907D01*
X174445715Y-83914946D01*
X173963946Y-84236853D01*
X173744000Y-84566026D01*
X173524054Y-84236853D01*
X173042285Y-83914946D01*
X172474000Y-83801907D01*
X171905715Y-83914946D01*
X171423946Y-84236853D01*
X171196298Y-84577553D01*
X171129183Y-84434642D01*
X170700924Y-84044355D01*
X170290890Y-83874524D01*
X170061000Y-83995845D01*
X170061000Y-85189000D01*
X170081000Y-85189000D01*
X170081000Y-85443000D01*
X170061000Y-85443000D01*
X170061000Y-86636155D01*
X170290890Y-86757476D01*
X170700924Y-86587645D01*
X171129183Y-86197358D01*
X171196298Y-86054447D01*
X171423946Y-86395147D01*
X171905715Y-86717054D01*
X172474000Y-86830093D01*
X173042285Y-86717054D01*
X173524054Y-86395147D01*
X173744000Y-86065974D01*
X173963946Y-86395147D01*
X174113215Y-86494885D01*
X174019225Y-86494803D01*
X173601914Y-86667233D01*
X173282355Y-86986235D01*
X173109197Y-87403244D01*
X173108803Y-87854775D01*
X173281233Y-88272086D01*
X173484000Y-88475207D01*
X173484000Y-90813001D01*
X173257225Y-90812803D01*
X172839914Y-90985233D01*
X172520355Y-91304235D01*
X172347197Y-91721244D01*
X172346803Y-92172775D01*
X172519233Y-92590086D01*
X172722000Y-92793207D01*
X172722000Y-109783567D01*
X172779852Y-110074406D01*
X172944599Y-110320968D01*
X175550485Y-112926854D01*
X175361034Y-112848187D01*
X174909503Y-112847793D01*
X174492192Y-113020223D01*
X174172633Y-113339225D01*
X174152504Y-113387702D01*
X168154000Y-107389198D01*
X168154000Y-88975072D01*
X168347645Y-88781765D01*
X168520803Y-88364756D01*
X168521197Y-87913225D01*
X168348767Y-87495914D01*
X168029765Y-87176355D01*
X167612756Y-87003197D01*
X167161225Y-87002803D01*
X166743914Y-87175233D01*
X166424355Y-87494235D01*
X166251197Y-87911244D01*
X166250803Y-88362775D01*
X166423233Y-88780086D01*
X166634000Y-88991221D01*
X166634000Y-107704000D01*
X166691852Y-107994839D01*
X166856599Y-108241401D01*
X174320042Y-115704844D01*
X174273225Y-115704803D01*
X173855914Y-115877233D01*
X173536355Y-116196235D01*
X173363197Y-116613244D01*
X173362947Y-116900251D01*
X172827198Y-117436000D01*
X172135440Y-117436000D01*
X172135440Y-116696000D01*
X172091162Y-116460683D01*
X171952090Y-116244559D01*
X171739890Y-116099569D01*
X171488000Y-116048560D01*
X169888000Y-116048560D01*
X169652683Y-116092838D01*
X169436559Y-116231910D01*
X169291569Y-116444110D01*
X169240560Y-116696000D01*
X169240560Y-117436000D01*
X167212802Y-117436000D01*
X167138440Y-117361638D01*
X167138440Y-116814000D01*
X167094162Y-116578683D01*
X166955090Y-116362559D01*
X166742890Y-116217569D01*
X166491000Y-116166560D01*
X165741000Y-116166560D01*
X165505683Y-116210838D01*
X165289559Y-116349910D01*
X165144569Y-116562110D01*
X165093560Y-116814000D01*
X162493000Y-116814000D01*
X162493000Y-116713000D01*
X162513000Y-116713000D01*
X162513000Y-115713750D01*
X162767000Y-115713750D01*
X162767000Y-116713000D01*
X163866250Y-116713000D01*
X164025000Y-116554250D01*
X164025000Y-116063690D01*
X163928327Y-115830301D01*
X163749698Y-115651673D01*
X163516309Y-115555000D01*
X162925750Y-115555000D01*
X162767000Y-115713750D01*
X162513000Y-115713750D01*
X162354250Y-115555000D01*
X161763691Y-115555000D01*
X161530302Y-115651673D01*
X161351673Y-115830301D01*
X161295346Y-115966287D01*
X161293162Y-115954683D01*
X161154090Y-115738559D01*
X160941890Y-115593569D01*
X160700000Y-115544585D01*
X160700000Y-114760802D01*
X161154362Y-114306440D01*
X161702000Y-114306440D01*
X161937317Y-114262162D01*
X162040646Y-114195671D01*
X162042302Y-114197327D01*
X162275691Y-114294000D01*
X162716250Y-114294000D01*
X162875000Y-114135250D01*
X162875000Y-113411000D01*
X163129000Y-113411000D01*
X163129000Y-114135250D01*
X163287750Y-114294000D01*
X163728309Y-114294000D01*
X163961698Y-114197327D01*
X164140327Y-114018699D01*
X164237000Y-113785310D01*
X164237000Y-113569750D01*
X164078250Y-113411000D01*
X163129000Y-113411000D01*
X162875000Y-113411000D01*
X162855000Y-113411000D01*
X162855000Y-113157000D01*
X162875000Y-113157000D01*
X162875000Y-112432750D01*
X163129000Y-112432750D01*
X163129000Y-113157000D01*
X164078250Y-113157000D01*
X164237000Y-112998250D01*
X164237000Y-112782690D01*
X164140327Y-112549301D01*
X163961698Y-112370673D01*
X163728309Y-112274000D01*
X163287750Y-112274000D01*
X163129000Y-112432750D01*
X162875000Y-112432750D01*
X162716250Y-112274000D01*
X162275691Y-112274000D01*
X162042302Y-112370673D01*
X162040932Y-112372043D01*
X161953890Y-112312569D01*
X161702000Y-112261560D01*
X160502000Y-112261560D01*
X160266683Y-112305838D01*
X160050559Y-112444910D01*
X159905569Y-112657110D01*
X159854560Y-112909000D01*
X159854560Y-113456638D01*
X159402599Y-113908599D01*
X159237852Y-114155161D01*
X159180000Y-114446000D01*
X159180000Y-115544442D01*
X158954683Y-115586838D01*
X158738559Y-115725910D01*
X158593569Y-115938110D01*
X158542560Y-116190000D01*
X158542560Y-116588000D01*
X158428742Y-116588000D01*
X158405162Y-116462683D01*
X158266090Y-116246559D01*
X158053890Y-116101569D01*
X157802000Y-116050560D01*
X157790629Y-116050560D01*
X157790231Y-116048560D01*
X157754148Y-115867160D01*
X157589401Y-115620599D01*
X157549000Y-115580198D01*
X157549000Y-115320000D01*
X157566002Y-115320000D01*
X157566002Y-115175752D01*
X157710250Y-115320000D01*
X157790310Y-115320000D01*
X158023699Y-115223327D01*
X158202327Y-115044698D01*
X158299000Y-114811309D01*
X158299000Y-114245750D01*
X158140250Y-114087000D01*
X157661440Y-114087000D01*
X157661440Y-113833000D01*
X158140250Y-113833000D01*
X158299000Y-113674250D01*
X158299000Y-113108691D01*
X158202327Y-112875302D01*
X158101026Y-112774000D01*
X159131002Y-112774000D01*
X159421841Y-112716148D01*
X159668403Y-112551401D01*
X162060402Y-110159402D01*
X162188897Y-109967096D01*
X162398000Y-110009440D01*
X163898000Y-110009440D01*
X164133317Y-109965162D01*
X164349441Y-109826090D01*
X164494431Y-109613890D01*
X164545440Y-109362000D01*
X164545440Y-108062000D01*
X164501162Y-107826683D01*
X164362090Y-107610559D01*
X164149890Y-107465569D01*
X163908000Y-107416585D01*
X163908000Y-107395440D01*
X164226000Y-107395440D01*
X164461317Y-107351162D01*
X164677441Y-107212090D01*
X164822431Y-106999890D01*
X164873440Y-106748000D01*
X164873440Y-105248000D01*
X164829162Y-105012683D01*
X164690090Y-104796559D01*
X164477890Y-104651569D01*
X164444510Y-104644809D01*
X164585699Y-104586327D01*
X164764327Y-104407698D01*
X164861000Y-104174309D01*
X164861000Y-103583750D01*
X164702250Y-103425000D01*
X163703000Y-103425000D01*
X163703000Y-103445000D01*
X163449000Y-103445000D01*
X163449000Y-103425000D01*
X162449750Y-103425000D01*
X162291000Y-103583750D01*
X162291000Y-104174309D01*
X162387673Y-104407698D01*
X162566301Y-104586327D01*
X162702287Y-104642654D01*
X162690683Y-104644838D01*
X162474559Y-104783910D01*
X162329569Y-104996110D01*
X162278560Y-105248000D01*
X162278560Y-105806675D01*
X162225149Y-105538162D01*
X162060402Y-105291600D01*
X161380440Y-104611638D01*
X161380440Y-104389000D01*
X161336162Y-104153683D01*
X161197090Y-103937559D01*
X160984890Y-103792569D01*
X160733000Y-103741560D01*
X160010362Y-103741560D01*
X158690493Y-102421691D01*
X162291000Y-102421691D01*
X162291000Y-103012250D01*
X162449750Y-103171000D01*
X163449000Y-103171000D01*
X163449000Y-102071750D01*
X163703000Y-102071750D01*
X163703000Y-103171000D01*
X164702250Y-103171000D01*
X164861000Y-103012250D01*
X164861000Y-102421691D01*
X164764327Y-102188302D01*
X164585699Y-102009673D01*
X164352310Y-101913000D01*
X163861750Y-101913000D01*
X163703000Y-102071750D01*
X163449000Y-102071750D01*
X163290250Y-101913000D01*
X162799690Y-101913000D01*
X162566301Y-102009673D01*
X162387673Y-102188302D01*
X162291000Y-102421691D01*
X158690493Y-102421691D01*
X158347401Y-102078599D01*
X158100839Y-101913852D01*
X157810000Y-101856000D01*
X152400000Y-101856000D01*
X152109160Y-101913852D01*
X151862599Y-102078599D01*
X151374599Y-102566599D01*
X151209852Y-102813161D01*
X151199031Y-102867560D01*
X151162000Y-102867560D01*
X150926683Y-102911838D01*
X150746687Y-103027662D01*
X150695698Y-102976673D01*
X150462309Y-102880000D01*
X149871750Y-102880000D01*
X149713000Y-103038750D01*
X149713000Y-104013000D01*
X149733000Y-104013000D01*
X149733000Y-104267000D01*
X149713000Y-104267000D01*
X149713000Y-105241250D01*
X149871750Y-105400000D01*
X150462309Y-105400000D01*
X150695698Y-105303327D01*
X150748213Y-105250812D01*
X150910110Y-105361431D01*
X151162000Y-105412440D01*
X152662000Y-105412440D01*
X152897317Y-105368162D01*
X153113441Y-105229090D01*
X153159969Y-105160994D01*
X153302302Y-105303327D01*
X153535691Y-105400000D01*
X154126250Y-105400000D01*
X154285000Y-105241250D01*
X154285000Y-104267000D01*
X154265000Y-104267000D01*
X154265000Y-104013000D01*
X154285000Y-104013000D01*
X154285000Y-103993000D01*
X154539000Y-103993000D01*
X154539000Y-104013000D01*
X154559000Y-104013000D01*
X154559000Y-104267000D01*
X154539000Y-104267000D01*
X154539000Y-105241250D01*
X154697750Y-105400000D01*
X155288309Y-105400000D01*
X155521698Y-105303327D01*
X155700327Y-105124699D01*
X155701261Y-105122444D01*
X155711919Y-105179086D01*
X155698000Y-105212690D01*
X155698000Y-105378250D01*
X155856750Y-105537000D01*
X155937051Y-105537000D01*
X156081110Y-105635431D01*
X156218120Y-105663176D01*
X156097683Y-105685838D01*
X155934257Y-105791000D01*
X155856750Y-105791000D01*
X155852602Y-105795148D01*
X155725890Y-105708569D01*
X155474000Y-105657560D01*
X154274000Y-105657560D01*
X154038683Y-105701838D01*
X153935354Y-105768329D01*
X153933698Y-105766673D01*
X153700309Y-105670000D01*
X153259750Y-105670000D01*
X153101000Y-105828750D01*
X153101000Y-106553000D01*
X153121000Y-106553000D01*
X153121000Y-106807000D01*
X153101000Y-106807000D01*
X153101000Y-106827000D01*
X152847000Y-106827000D01*
X152847000Y-106807000D01*
X152827000Y-106807000D01*
X152827000Y-106553000D01*
X152847000Y-106553000D01*
X152847000Y-105828750D01*
X152688250Y-105670000D01*
X152247691Y-105670000D01*
X152014302Y-105766673D01*
X151906888Y-105874086D01*
X151667401Y-105634599D01*
X151420839Y-105469852D01*
X151130000Y-105412000D01*
X148844000Y-105412000D01*
X148553161Y-105469852D01*
X148306599Y-105634599D01*
X148220000Y-105721198D01*
X148220000Y-105272487D01*
X148287441Y-105229090D01*
X148333969Y-105160994D01*
X148476302Y-105303327D01*
X148709691Y-105400000D01*
X149300250Y-105400000D01*
X149459000Y-105241250D01*
X149459000Y-104267000D01*
X149439000Y-104267000D01*
X149439000Y-104013000D01*
X149459000Y-104013000D01*
X149459000Y-103038750D01*
X149300250Y-102880000D01*
X148709691Y-102880000D01*
X148476302Y-102976673D01*
X148335064Y-103117910D01*
X148300090Y-103063559D01*
X148087890Y-102918569D01*
X147836000Y-102867560D01*
X146336000Y-102867560D01*
X146100683Y-102911838D01*
X145884559Y-103050910D01*
X145739569Y-103263110D01*
X145688560Y-103515000D01*
X145688560Y-104765000D01*
X145732838Y-105000317D01*
X145871910Y-105216441D01*
X146084110Y-105361431D01*
X146336000Y-105412440D01*
X146700000Y-105412440D01*
X146700000Y-106106560D01*
X146360000Y-106106560D01*
X146124683Y-106150838D01*
X145908559Y-106289910D01*
X145769110Y-106494000D01*
X145730000Y-106494000D01*
X145439161Y-106551852D01*
X145192599Y-106716599D01*
X143941395Y-107967803D01*
X143862090Y-107844559D01*
X143649890Y-107699569D01*
X143636803Y-107696919D01*
X143849441Y-107560090D01*
X143994431Y-107347890D01*
X144045440Y-107096000D01*
X144045440Y-105596000D01*
X144001162Y-105360683D01*
X143867730Y-105153323D01*
X143994431Y-104967890D01*
X144045440Y-104716000D01*
X144045440Y-103216000D01*
X144001162Y-102980683D01*
X143862090Y-102764559D01*
X143649890Y-102619569D01*
X143616510Y-102612809D01*
X143757699Y-102554327D01*
X143936327Y-102375698D01*
X144033000Y-102142309D01*
X144033000Y-101551750D01*
X143874250Y-101393000D01*
X142875000Y-101393000D01*
X142875000Y-101413000D01*
X142621000Y-101413000D01*
X142621000Y-101393000D01*
X141621750Y-101393000D01*
X141463000Y-101551750D01*
X141463000Y-102142309D01*
X141559673Y-102375698D01*
X141738301Y-102554327D01*
X141874287Y-102610654D01*
X141862683Y-102612838D01*
X141646559Y-102751910D01*
X141501569Y-102964110D01*
X141450560Y-103216000D01*
X141450560Y-104716000D01*
X141494838Y-104951317D01*
X141628270Y-105158677D01*
X141501569Y-105344110D01*
X141450560Y-105596000D01*
X141450560Y-107096000D01*
X141494838Y-107331317D01*
X141633910Y-107547441D01*
X141846110Y-107692431D01*
X141859197Y-107695081D01*
X141646559Y-107831910D01*
X141501569Y-108044110D01*
X141450560Y-108296000D01*
X141450560Y-109796000D01*
X141494838Y-110031317D01*
X141633910Y-110247441D01*
X141846110Y-110392431D01*
X142023000Y-110428252D01*
X142023000Y-111768560D01*
X141258000Y-111768560D01*
X141022683Y-111812838D01*
X140806559Y-111951910D01*
X140661569Y-112164110D01*
X140610560Y-112416000D01*
X134797000Y-112416000D01*
X134797000Y-100389691D01*
X141463000Y-100389691D01*
X141463000Y-100980250D01*
X141621750Y-101139000D01*
X142621000Y-101139000D01*
X142621000Y-100039750D01*
X142875000Y-100039750D01*
X142875000Y-101139000D01*
X143874250Y-101139000D01*
X144033000Y-100980250D01*
X144033000Y-100389691D01*
X143936327Y-100156302D01*
X143757699Y-99977673D01*
X143524310Y-99881000D01*
X143033750Y-99881000D01*
X142875000Y-100039750D01*
X142621000Y-100039750D01*
X142462250Y-99881000D01*
X141971690Y-99881000D01*
X141738301Y-99977673D01*
X141559673Y-100156302D01*
X141463000Y-100389691D01*
X134797000Y-100389691D01*
X134797000Y-86135736D01*
X136466736Y-84466000D01*
X160816560Y-84466000D01*
X160816560Y-86166000D01*
X160860838Y-86401317D01*
X160999910Y-86617441D01*
X161212110Y-86762431D01*
X161464000Y-86813440D01*
X163164000Y-86813440D01*
X163399317Y-86769162D01*
X163615441Y-86630090D01*
X163760431Y-86417890D01*
X163774086Y-86350459D01*
X163803946Y-86395147D01*
X164285715Y-86717054D01*
X164854000Y-86830093D01*
X165422285Y-86717054D01*
X165904054Y-86395147D01*
X166124000Y-86065974D01*
X166343946Y-86395147D01*
X166825715Y-86717054D01*
X167394000Y-86830093D01*
X167962285Y-86717054D01*
X168444054Y-86395147D01*
X168671702Y-86054447D01*
X168738817Y-86197358D01*
X169167076Y-86587645D01*
X169577110Y-86757476D01*
X169807000Y-86636155D01*
X169807000Y-85443000D01*
X169787000Y-85443000D01*
X169787000Y-85189000D01*
X169807000Y-85189000D01*
X169807000Y-83995845D01*
X169577110Y-83874524D01*
X169167076Y-84044355D01*
X168738817Y-84434642D01*
X168671702Y-84577553D01*
X168444054Y-84236853D01*
X167962285Y-83914946D01*
X167394000Y-83801907D01*
X166825715Y-83914946D01*
X166343946Y-84236853D01*
X166124000Y-84566026D01*
X165904054Y-84236853D01*
X165422285Y-83914946D01*
X164854000Y-83801907D01*
X164285715Y-83914946D01*
X163803946Y-84236853D01*
X163776150Y-84278452D01*
X163767162Y-84230683D01*
X163628090Y-84014559D01*
X163415890Y-83869569D01*
X163164000Y-83818560D01*
X161464000Y-83818560D01*
X161228683Y-83862838D01*
X161012559Y-84001910D01*
X160867569Y-84214110D01*
X160816560Y-84466000D01*
X136466736Y-84466000D01*
X139221736Y-81711000D01*
X210455209Y-81711000D01*
X210979033Y-81884999D01*
X210979033Y-81884999D01*
G37*
X210979033Y-81884999D02*
X211285568Y-82150294D01*
X211459450Y-82393728D01*
X211613100Y-82700228D01*
X211659000Y-83336676D01*
X211659000Y-134044533D01*
X211505398Y-134816743D01*
X211270471Y-135168335D01*
X210612457Y-135744097D01*
X210508741Y-135813398D01*
X209736533Y-135967000D01*
X136627666Y-135967000D01*
X134806695Y-134601271D01*
X134797000Y-134552533D01*
X134797000Y-131477750D01*
X140157000Y-131477750D01*
X140157000Y-133068310D01*
X140253673Y-133301699D01*
X140432302Y-133480327D01*
X140665691Y-133577000D01*
X142256250Y-133577000D01*
X142415000Y-133418250D01*
X142415000Y-131319000D01*
X142669000Y-131319000D01*
X142669000Y-133418250D01*
X142827750Y-133577000D01*
X144418309Y-133577000D01*
X144651698Y-133480327D01*
X144830327Y-133301699D01*
X144927000Y-133068310D01*
X144927000Y-131477750D01*
X144768250Y-131319000D01*
X142669000Y-131319000D01*
X142415000Y-131319000D01*
X140315750Y-131319000D01*
X140157000Y-131477750D01*
X134797000Y-131477750D01*
X134797000Y-126777750D01*
X137157000Y-126777750D01*
X137157000Y-128368310D01*
X137253673Y-128601699D01*
X137432302Y-128780327D01*
X137665691Y-128877000D01*
X139256250Y-128877000D01*
X139415000Y-128718250D01*
X139415000Y-126619000D01*
X139669000Y-126619000D01*
X139669000Y-128718250D01*
X139827750Y-128877000D01*
X140496696Y-128877000D01*
X140432302Y-128903673D01*
X140253673Y-129082301D01*
X140157000Y-129315690D01*
X140157000Y-130906250D01*
X140315750Y-131065000D01*
X142415000Y-131065000D01*
X142415000Y-128965750D01*
X142256250Y-128807000D01*
X141587304Y-128807000D01*
X141651698Y-128780327D01*
X141830327Y-128601699D01*
X141927000Y-128368310D01*
X141927000Y-126777750D01*
X141768250Y-126619000D01*
X139669000Y-126619000D01*
X139415000Y-126619000D01*
X137315750Y-126619000D01*
X137157000Y-126777750D01*
X134797000Y-126777750D01*
X134797000Y-124615690D01*
X137157000Y-124615690D01*
X137157000Y-126206250D01*
X137315750Y-126365000D01*
X139415000Y-126365000D01*
X139415000Y-124265750D01*
X139669000Y-124265750D01*
X139669000Y-126365000D01*
X141768250Y-126365000D01*
X141927000Y-126206250D01*
X141927000Y-124615690D01*
X141830327Y-124382301D01*
X141651698Y-124203673D01*
X141418309Y-124107000D01*
X139827750Y-124107000D01*
X139669000Y-124265750D01*
X139415000Y-124265750D01*
X139256250Y-124107000D01*
X137665691Y-124107000D01*
X137432302Y-124203673D01*
X137253673Y-124382301D01*
X137157000Y-124615690D01*
X134797000Y-124615690D01*
X134797000Y-112416000D01*
X140610560Y-112416000D01*
X140610560Y-118216000D01*
X140654838Y-118451317D01*
X140793910Y-118667441D01*
X141006110Y-118812431D01*
X141258000Y-118863440D01*
X143709823Y-118863440D01*
X143755852Y-119094839D01*
X143920599Y-119341401D01*
X146814000Y-122234802D01*
X146814000Y-123444000D01*
X146871852Y-123734839D01*
X147036599Y-123981401D01*
X147205954Y-124094560D01*
X143792000Y-124094560D01*
X143556683Y-124138838D01*
X143340559Y-124277910D01*
X143195569Y-124490110D01*
X143144560Y-124742000D01*
X143144560Y-128242000D01*
X143188838Y-128477317D01*
X143327910Y-128693441D01*
X143494109Y-128807000D01*
X142827750Y-128807000D01*
X142669000Y-128965750D01*
X142669000Y-131065000D01*
X144768250Y-131065000D01*
X144927000Y-130906250D01*
X144927000Y-130755750D01*
X150965000Y-130755750D01*
X150965000Y-132096309D01*
X151061673Y-132329698D01*
X151240301Y-132508327D01*
X151473690Y-132605000D01*
X152114250Y-132605000D01*
X152273000Y-132446250D01*
X152273000Y-130597000D01*
X152527000Y-130597000D01*
X152527000Y-132446250D01*
X152685750Y-132605000D01*
X153326310Y-132605000D01*
X153559699Y-132508327D01*
X153738327Y-132329698D01*
X153835000Y-132096309D01*
X153835000Y-130755750D01*
X157823000Y-130755750D01*
X157823000Y-132096309D01*
X157919673Y-132329698D01*
X158098301Y-132508327D01*
X158331690Y-132605000D01*
X158972250Y-132605000D01*
X159131000Y-132446250D01*
X159131000Y-130597000D01*
X159385000Y-130597000D01*
X159385000Y-132446250D01*
X159543750Y-132605000D01*
X160184310Y-132605000D01*
X160417699Y-132508327D01*
X160460025Y-132466000D01*
X169940560Y-132466000D01*
X169940560Y-134166000D01*
X169984838Y-134401317D01*
X170123910Y-134617441D01*
X170336110Y-134762431D01*
X170588000Y-134813440D01*
X172288000Y-134813440D01*
X172523317Y-134769162D01*
X172739441Y-134630090D01*
X172884431Y-134417890D01*
X172898086Y-134350459D01*
X172927946Y-134395147D01*
X173409715Y-134717054D01*
X173978000Y-134830093D01*
X174546285Y-134717054D01*
X175028054Y-134395147D01*
X175248000Y-134065974D01*
X175467946Y-134395147D01*
X175949715Y-134717054D01*
X176518000Y-134830093D01*
X177086285Y-134717054D01*
X177568054Y-134395147D01*
X177788000Y-134065974D01*
X178007946Y-134395147D01*
X178489715Y-134717054D01*
X179058000Y-134830093D01*
X179626285Y-134717054D01*
X180108054Y-134395147D01*
X180328000Y-134065974D01*
X180547946Y-134395147D01*
X181029715Y-134717054D01*
X181598000Y-134830093D01*
X182166285Y-134717054D01*
X182648054Y-134395147D01*
X182875702Y-134054447D01*
X182942817Y-134197358D01*
X183371076Y-134587645D01*
X183781110Y-134757476D01*
X184011000Y-134636155D01*
X184011000Y-133443000D01*
X184265000Y-133443000D01*
X184265000Y-134636155D01*
X184494890Y-134757476D01*
X184904924Y-134587645D01*
X185333183Y-134197358D01*
X185408000Y-134038046D01*
X185482817Y-134197358D01*
X185911076Y-134587645D01*
X186321110Y-134757476D01*
X186551000Y-134636155D01*
X186551000Y-133443000D01*
X184265000Y-133443000D01*
X184011000Y-133443000D01*
X183991000Y-133443000D01*
X183991000Y-133189000D01*
X184011000Y-133189000D01*
X184011000Y-131995845D01*
X184265000Y-131995845D01*
X184265000Y-133189000D01*
X186551000Y-133189000D01*
X186551000Y-131995845D01*
X186805000Y-131995845D01*
X186805000Y-133189000D01*
X186825000Y-133189000D01*
X186825000Y-133443000D01*
X186805000Y-133443000D01*
X186805000Y-134636155D01*
X187034890Y-134757476D01*
X187444924Y-134587645D01*
X187873183Y-134197358D01*
X187940298Y-134054447D01*
X188167946Y-134395147D01*
X188649715Y-134717054D01*
X189218000Y-134830093D01*
X189786285Y-134717054D01*
X190268054Y-134395147D01*
X190589961Y-133913378D01*
X190703000Y-133345093D01*
X190703000Y-133286907D01*
X192833000Y-133286907D01*
X192833000Y-133345093D01*
X192946039Y-133913378D01*
X193267946Y-134395147D01*
X193749715Y-134717054D01*
X194318000Y-134830093D01*
X194886285Y-134717054D01*
X195368054Y-134395147D01*
X195588000Y-134065974D01*
X195807946Y-134395147D01*
X196289715Y-134717054D01*
X196858000Y-134830093D01*
X197426285Y-134717054D01*
X197908054Y-134395147D01*
X198128000Y-134065974D01*
X198347946Y-134395147D01*
X198829715Y-134717054D01*
X199398000Y-134830093D01*
X199966285Y-134717054D01*
X200448054Y-134395147D01*
X200668000Y-134065974D01*
X200887946Y-134395147D01*
X201369715Y-134717054D01*
X201938000Y-134830093D01*
X202506285Y-134717054D01*
X202988054Y-134395147D01*
X203208000Y-134065974D01*
X203427946Y-134395147D01*
X203909715Y-134717054D01*
X204478000Y-134830093D01*
X205046285Y-134717054D01*
X205528054Y-134395147D01*
X205555850Y-134353548D01*
X205564838Y-134401317D01*
X205703910Y-134617441D01*
X205916110Y-134762431D01*
X206168000Y-134813440D01*
X207868000Y-134813440D01*
X208103317Y-134769162D01*
X208319441Y-134630090D01*
X208464431Y-134417890D01*
X208515440Y-134166000D01*
X208515440Y-132466000D01*
X208471162Y-132230683D01*
X208332090Y-132014559D01*
X208119890Y-131869569D01*
X207868000Y-131818560D01*
X206168000Y-131818560D01*
X205932683Y-131862838D01*
X205716559Y-132001910D01*
X205571569Y-132214110D01*
X205557914Y-132281541D01*
X205528054Y-132236853D01*
X205046285Y-131914946D01*
X204478000Y-131801907D01*
X203909715Y-131914946D01*
X203427946Y-132236853D01*
X203208000Y-132566026D01*
X202988054Y-132236853D01*
X202506285Y-131914946D01*
X201938000Y-131801907D01*
X201369715Y-131914946D01*
X200887946Y-132236853D01*
X200668000Y-132566026D01*
X200448054Y-132236853D01*
X199966285Y-131914946D01*
X199398000Y-131801907D01*
X198829715Y-131914946D01*
X198347946Y-132236853D01*
X198128000Y-132566026D01*
X197908054Y-132236853D01*
X197426285Y-131914946D01*
X196858000Y-131801907D01*
X196289715Y-131914946D01*
X195807946Y-132236853D01*
X195588000Y-132566026D01*
X195368054Y-132236853D01*
X194886285Y-131914946D01*
X194318000Y-131801907D01*
X193749715Y-131914946D01*
X193267946Y-132236853D01*
X192946039Y-132718622D01*
X192833000Y-133286907D01*
X190703000Y-133286907D01*
X190589961Y-132718622D01*
X190268054Y-132236853D01*
X189786285Y-131914946D01*
X189218000Y-131801907D01*
X188649715Y-131914946D01*
X188167946Y-132236853D01*
X187940298Y-132577553D01*
X187873183Y-132434642D01*
X187444924Y-132044355D01*
X187034890Y-131874524D01*
X186805000Y-131995845D01*
X186551000Y-131995845D01*
X186321110Y-131874524D01*
X185911076Y-132044355D01*
X185482817Y-132434642D01*
X185408000Y-132593954D01*
X185333183Y-132434642D01*
X184904924Y-132044355D01*
X184494890Y-131874524D01*
X184265000Y-131995845D01*
X184011000Y-131995845D01*
X183781110Y-131874524D01*
X183371076Y-132044355D01*
X182942817Y-132434642D01*
X182875702Y-132577553D01*
X182648054Y-132236853D01*
X182166285Y-131914946D01*
X181598000Y-131801907D01*
X181029715Y-131914946D01*
X180547946Y-132236853D01*
X180328000Y-132566026D01*
X180108054Y-132236853D01*
X179626285Y-131914946D01*
X179058000Y-131801907D01*
X178489715Y-131914946D01*
X178007946Y-132236853D01*
X177788000Y-132566026D01*
X177568054Y-132236853D01*
X177086285Y-131914946D01*
X176518000Y-131801907D01*
X175949715Y-131914946D01*
X175467946Y-132236853D01*
X175248000Y-132566026D01*
X175028054Y-132236853D01*
X174546285Y-131914946D01*
X173978000Y-131801907D01*
X173409715Y-131914946D01*
X172927946Y-132236853D01*
X172900150Y-132278452D01*
X172891162Y-132230683D01*
X172752090Y-132014559D01*
X172539890Y-131869569D01*
X172288000Y-131818560D01*
X170588000Y-131818560D01*
X170352683Y-131862838D01*
X170136559Y-132001910D01*
X169991569Y-132214110D01*
X169940560Y-132466000D01*
X160460025Y-132466000D01*
X160596327Y-132329698D01*
X160693000Y-132096309D01*
X160693000Y-130780775D01*
X175394803Y-130780775D01*
X175567233Y-131198086D01*
X175886235Y-131517645D01*
X176303244Y-131690803D01*
X176754775Y-131691197D01*
X177172086Y-131518767D01*
X177375207Y-131316000D01*
X189992000Y-131316000D01*
X190282839Y-131258148D01*
X190395441Y-131182910D01*
X190724775Y-131183197D01*
X191142086Y-131010767D01*
X191461645Y-130691765D01*
X191634803Y-130274756D01*
X191635197Y-129823225D01*
X191462767Y-129405914D01*
X191143765Y-129086355D01*
X190726756Y-128913197D01*
X190275225Y-128912803D01*
X189857914Y-129085233D01*
X189538355Y-129404235D01*
X189375679Y-129796000D01*
X177375059Y-129796000D01*
X177173765Y-129594355D01*
X176756756Y-129421197D01*
X176305225Y-129420803D01*
X175887914Y-129593233D01*
X175568355Y-129912235D01*
X175395197Y-130329244D01*
X175394803Y-130780775D01*
X160693000Y-130780775D01*
X160693000Y-130755750D01*
X160534250Y-130597000D01*
X159385000Y-130597000D01*
X159131000Y-130597000D01*
X157981750Y-130597000D01*
X157823000Y-130755750D01*
X153835000Y-130755750D01*
X153676250Y-130597000D01*
X152527000Y-130597000D01*
X152273000Y-130597000D01*
X151123750Y-130597000D01*
X150965000Y-130755750D01*
X144927000Y-130755750D01*
X144927000Y-129315690D01*
X144830327Y-129082301D01*
X144651698Y-128903673D01*
X144617337Y-128889440D01*
X147292000Y-128889440D01*
X147527317Y-128845162D01*
X147529602Y-128843691D01*
X150965000Y-128843691D01*
X150965000Y-130184250D01*
X151123750Y-130343000D01*
X152273000Y-130343000D01*
X152273000Y-128493750D01*
X152527000Y-128493750D01*
X152527000Y-130343000D01*
X153676250Y-130343000D01*
X153835000Y-130184250D01*
X153835000Y-128843691D01*
X157823000Y-128843691D01*
X157823000Y-130184250D01*
X157981750Y-130343000D01*
X159131000Y-130343000D01*
X159131000Y-128493750D01*
X159385000Y-128493750D01*
X159385000Y-130343000D01*
X160534250Y-130343000D01*
X160693000Y-130184250D01*
X160693000Y-128843691D01*
X160596327Y-128610302D01*
X160417699Y-128431673D01*
X160184310Y-128335000D01*
X159543750Y-128335000D01*
X159385000Y-128493750D01*
X159131000Y-128493750D01*
X158972250Y-128335000D01*
X158331690Y-128335000D01*
X158098301Y-128431673D01*
X157919673Y-128610302D01*
X157823000Y-128843691D01*
X153835000Y-128843691D01*
X153738327Y-128610302D01*
X153559699Y-128431673D01*
X153326310Y-128335000D01*
X152685750Y-128335000D01*
X152527000Y-128493750D01*
X152273000Y-128493750D01*
X152114250Y-128335000D01*
X151473690Y-128335000D01*
X151240301Y-128431673D01*
X151061673Y-128610302D01*
X150965000Y-128843691D01*
X147529602Y-128843691D01*
X147743441Y-128706090D01*
X147888431Y-128493890D01*
X147939440Y-128242000D01*
X147939440Y-124742000D01*
X147895162Y-124506683D01*
X147756090Y-124290559D01*
X147629407Y-124204000D01*
X148760941Y-124204000D01*
X148962235Y-124405645D01*
X149379244Y-124578803D01*
X149830775Y-124579197D01*
X150248086Y-124406767D01*
X150567645Y-124087765D01*
X150740803Y-123670756D01*
X150741197Y-123219225D01*
X150568767Y-122801914D01*
X150249765Y-122482355D01*
X149832756Y-122309197D01*
X149657415Y-122309044D01*
X149714321Y-122172000D01*
X150654560Y-122172000D01*
X150654560Y-122262000D01*
X150698838Y-122497317D01*
X150837910Y-122713441D01*
X151050110Y-122858431D01*
X151302000Y-122909440D01*
X152192000Y-122909440D01*
X152192000Y-123922560D01*
X151600000Y-123922560D01*
X151364683Y-123966838D01*
X151148559Y-124105910D01*
X151003569Y-124318110D01*
X150952560Y-124570000D01*
X150952560Y-127570000D01*
X150996838Y-127805317D01*
X151135910Y-128021441D01*
X151348110Y-128166431D01*
X151600000Y-128217440D01*
X153200000Y-128217440D01*
X153435317Y-128173162D01*
X153651441Y-128034090D01*
X153796431Y-127821890D01*
X153847440Y-127570000D01*
X153847440Y-126830000D01*
X154854000Y-126830000D01*
X155144839Y-126772148D01*
X155391401Y-126607401D01*
X155641854Y-126356948D01*
X155926775Y-126357197D01*
X156344086Y-126184767D01*
X156663645Y-125865765D01*
X156776699Y-125593501D01*
X157790599Y-126607401D01*
X157810560Y-126620738D01*
X157810560Y-127570000D01*
X157854838Y-127805317D01*
X157993910Y-128021441D01*
X158206110Y-128166431D01*
X158458000Y-128217440D01*
X160058000Y-128217440D01*
X160293317Y-128173162D01*
X160509441Y-128034090D01*
X160654431Y-127821890D01*
X160705440Y-127570000D01*
X160705440Y-126830000D01*
X161569198Y-126830000D01*
X161933052Y-127193854D01*
X161932803Y-127478775D01*
X162105233Y-127896086D01*
X162424235Y-128215645D01*
X162841244Y-128388803D01*
X163292775Y-128389197D01*
X163710086Y-128216767D01*
X164029645Y-127897765D01*
X164202803Y-127480756D01*
X164203197Y-127029225D01*
X164030767Y-126611914D01*
X163711765Y-126292355D01*
X163294756Y-126119197D01*
X163007749Y-126118947D01*
X162421401Y-125532599D01*
X162174839Y-125367852D01*
X161884000Y-125310000D01*
X160705440Y-125310000D01*
X160705440Y-124570000D01*
X160661162Y-124334683D01*
X160522090Y-124118559D01*
X160309890Y-123973569D01*
X160058000Y-123922560D01*
X158458000Y-123922560D01*
X158222683Y-123966838D01*
X158006559Y-124105910D01*
X157861569Y-124318110D01*
X157826094Y-124493292D01*
X156836948Y-123504146D01*
X156837197Y-123219225D01*
X156704056Y-122897000D01*
X158166250Y-122897000D01*
X158325000Y-122738250D01*
X158325000Y-121539000D01*
X158579000Y-121539000D01*
X158579000Y-122738250D01*
X158737750Y-122897000D01*
X160228309Y-122897000D01*
X160265125Y-122881750D01*
X169253000Y-122881750D01*
X169253000Y-124222309D01*
X169349673Y-124455698D01*
X169528301Y-124634327D01*
X169761690Y-124731000D01*
X170402250Y-124731000D01*
X170561000Y-124572250D01*
X170561000Y-122723000D01*
X170815000Y-122723000D01*
X170815000Y-124572250D01*
X170973750Y-124731000D01*
X171614310Y-124731000D01*
X171847699Y-124634327D01*
X172026327Y-124455698D01*
X172123000Y-124222309D01*
X172123000Y-122881750D01*
X171964250Y-122723000D01*
X170815000Y-122723000D01*
X170561000Y-122723000D01*
X169411750Y-122723000D01*
X169253000Y-122881750D01*
X160265125Y-122881750D01*
X160461698Y-122800327D01*
X160640327Y-122621699D01*
X160737000Y-122388310D01*
X160737000Y-121697750D01*
X160578250Y-121539000D01*
X158579000Y-121539000D01*
X158325000Y-121539000D01*
X156325750Y-121539000D01*
X156167000Y-121697750D01*
X156167000Y-122388310D01*
X156176913Y-122412241D01*
X155928756Y-122309197D01*
X155477225Y-122308803D01*
X155218297Y-122415790D01*
X155249440Y-122262000D01*
X155249440Y-120562000D01*
X155225674Y-120435690D01*
X156167000Y-120435690D01*
X156167000Y-121126250D01*
X156325750Y-121285000D01*
X158325000Y-121285000D01*
X158325000Y-120085750D01*
X158579000Y-120085750D01*
X158579000Y-121285000D01*
X160578250Y-121285000D01*
X160737000Y-121126250D01*
X160737000Y-120969691D01*
X169253000Y-120969691D01*
X169253000Y-122310250D01*
X169411750Y-122469000D01*
X170561000Y-122469000D01*
X170561000Y-120619750D01*
X170815000Y-120619750D01*
X170815000Y-122469000D01*
X171964250Y-122469000D01*
X172123000Y-122310250D01*
X172123000Y-120969691D01*
X172026327Y-120736302D01*
X171847699Y-120557673D01*
X171614310Y-120461000D01*
X170973750Y-120461000D01*
X170815000Y-120619750D01*
X170561000Y-120619750D01*
X170402250Y-120461000D01*
X169761690Y-120461000D01*
X169528301Y-120557673D01*
X169349673Y-120736302D01*
X169253000Y-120969691D01*
X160737000Y-120969691D01*
X160737000Y-120435690D01*
X160640327Y-120202301D01*
X160461698Y-120023673D01*
X160228309Y-119927000D01*
X158737750Y-119927000D01*
X158579000Y-120085750D01*
X158325000Y-120085750D01*
X158166250Y-119927000D01*
X156675691Y-119927000D01*
X156442302Y-120023673D01*
X156263673Y-120202301D01*
X156167000Y-120435690D01*
X155225674Y-120435690D01*
X155205162Y-120326683D01*
X155085035Y-120140000D01*
X155194000Y-120140000D01*
X155484839Y-120082148D01*
X155731401Y-119917401D01*
X156049052Y-119599750D01*
X165106000Y-119599750D01*
X165106000Y-120040309D01*
X165202673Y-120273698D01*
X165381301Y-120452327D01*
X165614690Y-120549000D01*
X165830250Y-120549000D01*
X165989000Y-120390250D01*
X165989000Y-119441000D01*
X166243000Y-119441000D01*
X166243000Y-120390250D01*
X166401750Y-120549000D01*
X166617310Y-120549000D01*
X166850699Y-120452327D01*
X167029327Y-120273698D01*
X167126000Y-120040309D01*
X167126000Y-119599750D01*
X166967250Y-119441000D01*
X166243000Y-119441000D01*
X165989000Y-119441000D01*
X165264750Y-119441000D01*
X165106000Y-119599750D01*
X156049052Y-119599750D01*
X156239401Y-119409401D01*
X156361100Y-119227265D01*
X156404148Y-119162839D01*
X156462000Y-118872000D01*
X156462000Y-118645440D01*
X157802000Y-118645440D01*
X158037317Y-118601162D01*
X158253441Y-118462090D01*
X158398431Y-118249890D01*
X158427164Y-118108000D01*
X159044621Y-118108000D01*
X159190000Y-118137440D01*
X160690000Y-118137440D01*
X160925317Y-118093162D01*
X161141441Y-117954090D01*
X161286431Y-117741890D01*
X161293191Y-117708510D01*
X161351673Y-117849699D01*
X161530302Y-118028327D01*
X161763691Y-118125000D01*
X162354250Y-118125000D01*
X162513000Y-117966250D01*
X162513000Y-116967000D01*
X162767000Y-116967000D01*
X162767000Y-117966250D01*
X162925750Y-118125000D01*
X163516309Y-118125000D01*
X163749698Y-118028327D01*
X163928327Y-117849699D01*
X164025000Y-117616310D01*
X164025000Y-117125750D01*
X163866250Y-116967000D01*
X162767000Y-116967000D01*
X162513000Y-116967000D01*
X162493000Y-116967000D01*
X162493000Y-116814000D01*
X165093560Y-116814000D01*
X165093560Y-118014000D01*
X165137838Y-118249317D01*
X165204329Y-118352646D01*
X165202673Y-118354302D01*
X165106000Y-118587691D01*
X165106000Y-119028250D01*
X165264750Y-119187000D01*
X165989000Y-119187000D01*
X165989000Y-119167000D01*
X166243000Y-119167000D01*
X166243000Y-119187000D01*
X166967250Y-119187000D01*
X167126000Y-119028250D01*
X167126000Y-118956000D01*
X169240560Y-118956000D01*
X169240560Y-119696000D01*
X169284838Y-119931317D01*
X169423910Y-120147441D01*
X169636110Y-120292431D01*
X169888000Y-120343440D01*
X171488000Y-120343440D01*
X171723317Y-120299162D01*
X171939441Y-120160090D01*
X172084431Y-119947890D01*
X172135440Y-119696000D01*
X172135440Y-118956000D01*
X173142000Y-118956000D01*
X173432839Y-118898148D01*
X173679401Y-118733401D01*
X174437854Y-117974948D01*
X174722775Y-117975197D01*
X175140086Y-117802767D01*
X175459645Y-117483765D01*
X175632803Y-117066756D01*
X175632846Y-117017648D01*
X176024000Y-117408802D01*
X176024000Y-124122941D01*
X175822355Y-124324235D01*
X175649197Y-124741244D01*
X175648803Y-125192775D01*
X175821233Y-125610086D01*
X176140235Y-125929645D01*
X176557244Y-126102803D01*
X177008775Y-126103197D01*
X177426086Y-125930767D01*
X177745645Y-125611765D01*
X177918803Y-125194756D01*
X177919197Y-124743225D01*
X177746767Y-124325914D01*
X177544000Y-124122793D01*
X177544000Y-119491750D01*
X178547000Y-119491750D01*
X178547000Y-120082309D01*
X178643673Y-120315698D01*
X178822301Y-120494327D01*
X179055690Y-120591000D01*
X179546250Y-120591000D01*
X179705000Y-120432250D01*
X179705000Y-119333000D01*
X179959000Y-119333000D01*
X179959000Y-120432250D01*
X180117750Y-120591000D01*
X180608310Y-120591000D01*
X180841699Y-120494327D01*
X181020327Y-120315698D01*
X181117000Y-120082309D01*
X181117000Y-119491750D01*
X180958250Y-119333000D01*
X179959000Y-119333000D01*
X179705000Y-119333000D01*
X178705750Y-119333000D01*
X178547000Y-119491750D01*
X177544000Y-119491750D01*
X177544000Y-117094000D01*
X177520217Y-116974434D01*
X177486148Y-116803160D01*
X177321401Y-116556599D01*
X176738802Y-115974000D01*
X178534560Y-115974000D01*
X178534560Y-117256000D01*
X178578838Y-117491317D01*
X178717910Y-117707441D01*
X178930110Y-117852431D01*
X178963490Y-117859191D01*
X178822301Y-117917673D01*
X178643673Y-118096302D01*
X178547000Y-118329691D01*
X178547000Y-118920250D01*
X178705750Y-119079000D01*
X179705000Y-119079000D01*
X179705000Y-119059000D01*
X179959000Y-119059000D01*
X179959000Y-119079000D01*
X180958250Y-119079000D01*
X181117000Y-118920250D01*
X181117000Y-118329691D01*
X181020327Y-118096302D01*
X180841699Y-117917673D01*
X180705713Y-117861346D01*
X180717317Y-117859162D01*
X180933441Y-117720090D01*
X181078431Y-117507890D01*
X181129440Y-117256000D01*
X181129440Y-116774000D01*
X181349025Y-116774000D01*
X181512110Y-116885431D01*
X181764000Y-116936440D01*
X183264000Y-116936440D01*
X183298454Y-116929957D01*
X183291560Y-116964000D01*
X183291560Y-117083080D01*
X183151599Y-117176599D01*
X182220599Y-118107599D01*
X182055852Y-118354161D01*
X181998000Y-118645000D01*
X181998000Y-119149666D01*
X181922683Y-119163838D01*
X181706559Y-119302910D01*
X181561569Y-119515110D01*
X181510560Y-119767000D01*
X181510560Y-120517000D01*
X181554838Y-120752317D01*
X181693910Y-120968441D01*
X181906110Y-121113431D01*
X181998000Y-121132039D01*
X181998000Y-122730976D01*
X181805285Y-122810604D01*
X181485726Y-123129606D01*
X181312568Y-123546615D01*
X181312174Y-123998146D01*
X181484604Y-124415457D01*
X181803606Y-124735016D01*
X182220615Y-124908174D01*
X182672146Y-124908568D01*
X183089457Y-124736138D01*
X183409016Y-124417136D01*
X183582174Y-124000127D01*
X183582568Y-123548596D01*
X183518000Y-123392330D01*
X183518000Y-121134334D01*
X183593317Y-121120162D01*
X183696646Y-121053671D01*
X183698302Y-121055327D01*
X183931691Y-121152000D01*
X184372250Y-121152000D01*
X184531000Y-120993250D01*
X184531000Y-120269000D01*
X184511000Y-120269000D01*
X184511000Y-120015000D01*
X184531000Y-120015000D01*
X184531000Y-119290750D01*
X184372250Y-119132000D01*
X183931691Y-119132000D01*
X183698302Y-119228673D01*
X183696932Y-119230043D01*
X183609890Y-119170569D01*
X183518000Y-119151961D01*
X183518000Y-118959802D01*
X183526863Y-118950939D01*
X183687110Y-119060431D01*
X183939000Y-119111440D01*
X184489000Y-119111440D01*
X184594705Y-119091550D01*
X184612690Y-119099000D01*
X184728250Y-119099000D01*
X184824651Y-119002599D01*
X184940441Y-118928090D01*
X185013884Y-118820603D01*
X185054000Y-118882946D01*
X185054000Y-119132000D01*
X184943750Y-119132000D01*
X184785000Y-119290750D01*
X184785000Y-120015000D01*
X184805000Y-120015000D01*
X184805000Y-120269000D01*
X184785000Y-120269000D01*
X184785000Y-120993250D01*
X184943750Y-121152000D01*
X185355198Y-121152000D01*
X193550000Y-129346802D01*
X193550000Y-129710941D01*
X193348355Y-129912235D01*
X193175197Y-130329244D01*
X193174803Y-130780775D01*
X193347233Y-131198086D01*
X193666235Y-131517645D01*
X194083244Y-131690803D01*
X194534775Y-131691197D01*
X194952086Y-131518767D01*
X195271645Y-131199765D01*
X195444803Y-130782756D01*
X195445067Y-130479869D01*
X195461052Y-130495854D01*
X195460803Y-130780775D01*
X195633233Y-131198086D01*
X195952235Y-131517645D01*
X196369244Y-131690803D01*
X196820775Y-131691197D01*
X197238086Y-131518767D01*
X197485151Y-131272133D01*
X197730235Y-131517645D01*
X198147244Y-131690803D01*
X198598775Y-131691197D01*
X199016086Y-131518767D01*
X199307634Y-131227728D01*
X199353161Y-131258148D01*
X199644000Y-131316000D01*
X200576941Y-131316000D01*
X200778235Y-131517645D01*
X201195244Y-131690803D01*
X201646775Y-131691197D01*
X202064086Y-131518767D01*
X202383645Y-131199765D01*
X202437920Y-131069058D01*
X202491233Y-131198086D01*
X202810235Y-131517645D01*
X203227244Y-131690803D01*
X203678775Y-131691197D01*
X204096086Y-131518767D01*
X204415645Y-131199765D01*
X204588803Y-130782756D01*
X204589197Y-130331225D01*
X204416767Y-129913914D01*
X204295065Y-129792000D01*
X204663198Y-129792000D01*
X205367052Y-130495854D01*
X205366803Y-130780775D01*
X205539233Y-131198086D01*
X205858235Y-131517645D01*
X206275244Y-131690803D01*
X206726775Y-131691197D01*
X207144086Y-131518767D01*
X207463645Y-131199765D01*
X207636803Y-130782756D01*
X207637197Y-130331225D01*
X207464767Y-129913914D01*
X207145765Y-129594355D01*
X206728756Y-129421197D01*
X206441749Y-129420947D01*
X205515401Y-128494599D01*
X205268839Y-128329852D01*
X204978000Y-128272000D01*
X200446802Y-128272000D01*
X198430763Y-126255961D01*
X198625827Y-126217160D01*
X198872389Y-126052413D01*
X198911401Y-126013401D01*
X199012411Y-125862229D01*
X199012411Y-126238000D01*
X199070263Y-126528839D01*
X199235010Y-126775401D01*
X199481572Y-126940148D01*
X199772411Y-126998000D01*
X206697740Y-126998000D01*
X206988579Y-126940148D01*
X207235141Y-126775401D01*
X211013411Y-122997131D01*
X211178158Y-122750569D01*
X211236010Y-122459730D01*
X211236010Y-117659750D01*
X211178158Y-117368911D01*
X211013411Y-117122349D01*
X210066841Y-116175779D01*
X210112970Y-116166603D01*
X210481190Y-115920566D01*
X210727227Y-115552346D01*
X210813624Y-115118000D01*
X210727227Y-114683654D01*
X210481190Y-114315434D01*
X210112970Y-114069397D01*
X209678624Y-113983000D01*
X209073376Y-113983000D01*
X208639030Y-114069397D01*
X208270810Y-114315434D01*
X208245049Y-114353987D01*
X205013952Y-111122890D01*
X205676524Y-111122890D01*
X205846355Y-111532924D01*
X206236642Y-111961183D01*
X206761108Y-112207486D01*
X206991000Y-112086819D01*
X206991000Y-110893000D01*
X205797845Y-110893000D01*
X205676524Y-111122890D01*
X205013952Y-111122890D01*
X204681001Y-110789939D01*
X204681001Y-109305999D01*
X204623149Y-109015160D01*
X204458402Y-108768598D01*
X204293415Y-108603611D01*
X204207013Y-108545880D01*
X204243440Y-108366000D01*
X204243440Y-106866000D01*
X204199162Y-106630683D01*
X204060090Y-106414559D01*
X203892650Y-106300152D01*
X204155854Y-106036948D01*
X204440775Y-106037197D01*
X204858086Y-105864767D01*
X205037165Y-105686000D01*
X205603907Y-105686000D01*
X205716946Y-106254285D01*
X206038853Y-106736054D01*
X206368026Y-106956000D01*
X206038853Y-107175946D01*
X205716946Y-107657715D01*
X205603907Y-108226000D01*
X205716946Y-108794285D01*
X206038853Y-109276054D01*
X206379553Y-109503702D01*
X206236642Y-109570817D01*
X205846355Y-109999076D01*
X205676524Y-110409110D01*
X205797845Y-110639000D01*
X206991000Y-110639000D01*
X206991000Y-110619000D01*
X207245000Y-110619000D01*
X207245000Y-110639000D01*
X207265000Y-110639000D01*
X207265000Y-110893000D01*
X207245000Y-110893000D01*
X207245000Y-112086819D01*
X207474892Y-112207486D01*
X207999358Y-111961183D01*
X208389645Y-111532924D01*
X208389655Y-111532899D01*
X208578853Y-111816054D01*
X209060622Y-112137961D01*
X209628907Y-112251000D01*
X209687093Y-112251000D01*
X210255378Y-112137961D01*
X210737147Y-111816054D01*
X211059054Y-111334285D01*
X211172093Y-110766000D01*
X211059054Y-110197715D01*
X210737147Y-109715946D01*
X210407974Y-109496000D01*
X210737147Y-109276054D01*
X211059054Y-108794285D01*
X211172093Y-108226000D01*
X211059054Y-107657715D01*
X210737147Y-107175946D01*
X210695548Y-107148150D01*
X210743317Y-107139162D01*
X210959441Y-107000090D01*
X211104431Y-106787890D01*
X211155440Y-106536000D01*
X211155440Y-104836000D01*
X211111162Y-104600683D01*
X210972090Y-104384559D01*
X210759890Y-104239569D01*
X210508000Y-104188560D01*
X208808000Y-104188560D01*
X208572683Y-104232838D01*
X208356559Y-104371910D01*
X208211569Y-104584110D01*
X208200159Y-104640454D01*
X208197147Y-104635946D01*
X207715378Y-104314039D01*
X207147093Y-104201000D01*
X207088907Y-104201000D01*
X206520622Y-104314039D01*
X206038853Y-104635946D01*
X205716946Y-105117715D01*
X205603907Y-105686000D01*
X205037165Y-105686000D01*
X205177645Y-105545765D01*
X205350803Y-105128756D01*
X205351197Y-104677225D01*
X205178767Y-104259914D01*
X205057065Y-104138000D01*
X207010000Y-104138000D01*
X207300839Y-104080148D01*
X207547401Y-103915401D01*
X207975401Y-103487401D01*
X208140148Y-103240840D01*
X208150571Y-103188441D01*
X208198000Y-102950000D01*
X208198000Y-102133558D01*
X208423317Y-102091162D01*
X208639441Y-101952090D01*
X208784431Y-101739890D01*
X208787081Y-101726803D01*
X208923910Y-101939441D01*
X209136110Y-102084431D01*
X209290763Y-102115749D01*
X209177197Y-102389244D01*
X209176803Y-102840775D01*
X209349233Y-103258086D01*
X209668235Y-103577645D01*
X210085244Y-103750803D01*
X210536775Y-103751197D01*
X210954086Y-103578767D01*
X211273645Y-103259765D01*
X211446803Y-102842756D01*
X211447197Y-102391225D01*
X211281227Y-101989549D01*
X211339441Y-101952090D01*
X211484431Y-101739890D01*
X211535440Y-101488000D01*
X211535440Y-100188000D01*
X211491162Y-99952683D01*
X211395671Y-99804285D01*
X211498431Y-99653890D01*
X211549440Y-99402000D01*
X211549440Y-97702000D01*
X211505162Y-97466683D01*
X211366090Y-97250559D01*
X211153890Y-97105569D01*
X210902000Y-97054560D01*
X207602000Y-97054560D01*
X207366683Y-97098838D01*
X207150559Y-97237910D01*
X207005569Y-97450110D01*
X206954560Y-97702000D01*
X206954560Y-99402000D01*
X206980632Y-99540560D01*
X206688000Y-99540560D01*
X206452683Y-99584838D01*
X206236559Y-99723910D01*
X206091569Y-99936110D01*
X206089834Y-99944679D01*
X206050327Y-99849301D01*
X205940175Y-99739150D01*
X205998431Y-99653890D01*
X206049440Y-99402000D01*
X206049440Y-97702000D01*
X206005162Y-97466683D01*
X205866090Y-97250559D01*
X205653890Y-97105569D01*
X205402000Y-97054560D01*
X202102000Y-97054560D01*
X201866683Y-97098838D01*
X201650559Y-97237910D01*
X201505569Y-97450110D01*
X201454560Y-97702000D01*
X201454560Y-99402000D01*
X201498838Y-99637317D01*
X201637910Y-99853441D01*
X201812417Y-99972676D01*
X201764560Y-100209000D01*
X201764560Y-100359758D01*
X190110948Y-88706146D01*
X190111197Y-88421225D01*
X190098295Y-88390000D01*
X191963198Y-88390000D01*
X198001052Y-94427854D01*
X198000803Y-94712775D01*
X198173233Y-95130086D01*
X198492235Y-95449645D01*
X198909244Y-95622803D01*
X199360775Y-95623197D01*
X199480336Y-95573795D01*
X201668716Y-95573795D01*
X201917106Y-96174943D01*
X202376637Y-96635278D01*
X202977352Y-96884716D01*
X203627795Y-96885284D01*
X204228943Y-96636894D01*
X204689278Y-96177363D01*
X204938716Y-95576648D01*
X204938718Y-95573795D01*
X208168716Y-95573795D01*
X208417106Y-96174943D01*
X208876637Y-96635278D01*
X209477352Y-96884716D01*
X210127795Y-96885284D01*
X210728943Y-96636894D01*
X211189278Y-96177363D01*
X211438716Y-95576648D01*
X211439284Y-94926205D01*
X211190894Y-94325057D01*
X210731363Y-93864722D01*
X210130648Y-93615284D01*
X209480205Y-93614716D01*
X208879057Y-93863106D01*
X208418722Y-94322637D01*
X208169284Y-94923352D01*
X208168716Y-95573795D01*
X204938718Y-95573795D01*
X204939284Y-94926205D01*
X204690894Y-94325057D01*
X204231363Y-93864722D01*
X203630648Y-93615284D01*
X202980205Y-93614716D01*
X202379057Y-93863106D01*
X201918722Y-94322637D01*
X201669284Y-94923352D01*
X201668716Y-95573795D01*
X199480336Y-95573795D01*
X199778086Y-95450767D01*
X200097645Y-95131765D01*
X200270803Y-94714756D01*
X200271197Y-94263225D01*
X200098767Y-93845914D01*
X200039896Y-93786941D01*
X200179244Y-93844803D01*
X200630775Y-93845197D01*
X201048086Y-93672767D01*
X201367645Y-93353765D01*
X201540803Y-92936756D01*
X201541197Y-92485225D01*
X201368767Y-92067914D01*
X201203674Y-91902532D01*
X202331073Y-91902532D01*
X202429736Y-92169387D01*
X203039461Y-92395908D01*
X203689460Y-92371856D01*
X204178264Y-92169387D01*
X204276927Y-91902532D01*
X208831073Y-91902532D01*
X208929736Y-92169387D01*
X209539461Y-92395908D01*
X210189460Y-92371856D01*
X210678264Y-92169387D01*
X210776927Y-91902532D01*
X209804000Y-90929605D01*
X208831073Y-91902532D01*
X204276927Y-91902532D01*
X203304000Y-90929605D01*
X202331073Y-91902532D01*
X201203674Y-91902532D01*
X201131694Y-91830427D01*
X201108148Y-91712055D01*
X200943401Y-91465493D01*
X200150000Y-90672092D01*
X200150000Y-90485461D01*
X201658092Y-90485461D01*
X201682144Y-91135460D01*
X201884613Y-91624264D01*
X202151468Y-91722927D01*
X203124395Y-90750000D01*
X203483605Y-90750000D01*
X204456532Y-91722927D01*
X204723387Y-91624264D01*
X204949908Y-91014539D01*
X204930331Y-90485461D01*
X208158092Y-90485461D01*
X208182144Y-91135460D01*
X208384613Y-91624264D01*
X208651468Y-91722927D01*
X209624395Y-90750000D01*
X209983605Y-90750000D01*
X210956532Y-91722927D01*
X211223387Y-91624264D01*
X211449908Y-91014539D01*
X211425856Y-90364540D01*
X211223387Y-89875736D01*
X210956532Y-89777073D01*
X209983605Y-90750000D01*
X209624395Y-90750000D01*
X208651468Y-89777073D01*
X208384613Y-89875736D01*
X208158092Y-90485461D01*
X204930331Y-90485461D01*
X204925856Y-90364540D01*
X204723387Y-89875736D01*
X204456532Y-89777073D01*
X203483605Y-90750000D01*
X203124395Y-90750000D01*
X202151468Y-89777073D01*
X201884613Y-89875736D01*
X201658092Y-90485461D01*
X200150000Y-90485461D01*
X200150000Y-89597468D01*
X202331073Y-89597468D01*
X203304000Y-90570395D01*
X204276927Y-89597468D01*
X208831073Y-89597468D01*
X209804000Y-90570395D01*
X210776927Y-89597468D01*
X210678264Y-89330613D01*
X210068539Y-89104092D01*
X209418540Y-89128144D01*
X208929736Y-89330613D01*
X208831073Y-89597468D01*
X204276927Y-89597468D01*
X204178264Y-89330613D01*
X203568539Y-89104092D01*
X202918540Y-89128144D01*
X202429736Y-89330613D01*
X202331073Y-89597468D01*
X200150000Y-89597468D01*
X200150000Y-88475059D01*
X200351645Y-88273765D01*
X200524803Y-87856756D01*
X200525197Y-87405225D01*
X200352767Y-86987914D01*
X200035927Y-86670521D01*
X200448054Y-86395147D01*
X200668000Y-86065974D01*
X200887946Y-86395147D01*
X201369715Y-86717054D01*
X201938000Y-86830093D01*
X202506285Y-86717054D01*
X202988054Y-86395147D01*
X203208000Y-86065974D01*
X203427946Y-86395147D01*
X203909715Y-86717054D01*
X204478000Y-86830093D01*
X205046285Y-86717054D01*
X205528054Y-86395147D01*
X205748000Y-86065974D01*
X205967946Y-86395147D01*
X206449715Y-86717054D01*
X207018000Y-86830093D01*
X207586285Y-86717054D01*
X208068054Y-86395147D01*
X208389961Y-85913378D01*
X208503000Y-85345093D01*
X208503000Y-85286907D01*
X208389961Y-84718622D01*
X208068054Y-84236853D01*
X207586285Y-83914946D01*
X207018000Y-83801907D01*
X206449715Y-83914946D01*
X205967946Y-84236853D01*
X205748000Y-84566026D01*
X205528054Y-84236853D01*
X205046285Y-83914946D01*
X204478000Y-83801907D01*
X203909715Y-83914946D01*
X203427946Y-84236853D01*
X203208000Y-84566026D01*
X202988054Y-84236853D01*
X202506285Y-83914946D01*
X201938000Y-83801907D01*
X201369715Y-83914946D01*
X200887946Y-84236853D01*
X200668000Y-84566026D01*
X200448054Y-84236853D01*
X199966285Y-83914946D01*
X199398000Y-83801907D01*
X198829715Y-83914946D01*
X198347946Y-84236853D01*
X198128000Y-84566026D01*
X197908054Y-84236853D01*
X197426285Y-83914946D01*
X196858000Y-83801907D01*
X196289715Y-83914946D01*
X195807946Y-84236853D01*
X195588000Y-84566026D01*
X195368054Y-84236853D01*
X194886285Y-83914946D01*
X194318000Y-83801907D01*
X193749715Y-83914946D01*
X193267946Y-84236853D01*
X193048000Y-84566026D01*
X192828054Y-84236853D01*
X192346285Y-83914946D01*
X191778000Y-83801907D01*
X191209715Y-83914946D01*
X190727946Y-84236853D01*
X190700150Y-84278452D01*
X190691162Y-84230683D01*
X190552090Y-84014559D01*
X190339890Y-83869569D01*
X190088000Y-83818560D01*
X188388000Y-83818560D01*
X188152683Y-83862838D01*
X187936559Y-84001910D01*
X187791569Y-84214110D01*
X187740560Y-84466000D01*
X187740560Y-86044998D01*
X186458016Y-86044998D01*
X186545961Y-85913378D01*
X186659000Y-85345093D01*
X186659000Y-85286907D01*
X186545961Y-84718622D01*
X186224054Y-84236853D01*
X185742285Y-83914946D01*
X185174000Y-83801907D01*
X184605715Y-83914946D01*
X184123946Y-84236853D01*
X183904000Y-84566026D01*
X183684054Y-84236853D01*
X183202285Y-83914946D01*
X182634000Y-83801907D01*
X182065715Y-83914946D01*
X181583946Y-84236853D01*
X181364000Y-84566026D01*
X181144054Y-84236853D01*
X180662285Y-83914946D01*
X180094000Y-83801907D01*
X179525715Y-83914946D01*
X179043946Y-84236853D01*
X178824000Y-84566026D01*
X178604054Y-84236853D01*
X178122285Y-83914946D01*
X177554000Y-83801907D01*
X176985715Y-83914946D01*
X176503946Y-84236853D01*
X176284000Y-84566026D01*
X176064054Y-84236853D01*
X175582285Y-83914946D01*
X175014000Y-83801907D01*
X174445715Y-83914946D01*
X173963946Y-84236853D01*
X173744000Y-84566026D01*
X173524054Y-84236853D01*
X173042285Y-83914946D01*
X172474000Y-83801907D01*
X171905715Y-83914946D01*
X171423946Y-84236853D01*
X171196298Y-84577553D01*
X171129183Y-84434642D01*
X170700924Y-84044355D01*
X170290890Y-83874524D01*
X170061000Y-83995845D01*
X170061000Y-85189000D01*
X170081000Y-85189000D01*
X170081000Y-85443000D01*
X170061000Y-85443000D01*
X170061000Y-86636155D01*
X170290890Y-86757476D01*
X170700924Y-86587645D01*
X171129183Y-86197358D01*
X171196298Y-86054447D01*
X171423946Y-86395147D01*
X171905715Y-86717054D01*
X172474000Y-86830093D01*
X173042285Y-86717054D01*
X173524054Y-86395147D01*
X173744000Y-86065974D01*
X173963946Y-86395147D01*
X174113215Y-86494885D01*
X174019225Y-86494803D01*
X173601914Y-86667233D01*
X173282355Y-86986235D01*
X173109197Y-87403244D01*
X173108803Y-87854775D01*
X173281233Y-88272086D01*
X173484000Y-88475207D01*
X173484000Y-90813001D01*
X173257225Y-90812803D01*
X172839914Y-90985233D01*
X172520355Y-91304235D01*
X172347197Y-91721244D01*
X172346803Y-92172775D01*
X172519233Y-92590086D01*
X172722000Y-92793207D01*
X172722000Y-109783567D01*
X172779852Y-110074406D01*
X172944599Y-110320968D01*
X175550485Y-112926854D01*
X175361034Y-112848187D01*
X174909503Y-112847793D01*
X174492192Y-113020223D01*
X174172633Y-113339225D01*
X174152504Y-113387702D01*
X168154000Y-107389198D01*
X168154000Y-88975072D01*
X168347645Y-88781765D01*
X168520803Y-88364756D01*
X168521197Y-87913225D01*
X168348767Y-87495914D01*
X168029765Y-87176355D01*
X167612756Y-87003197D01*
X167161225Y-87002803D01*
X166743914Y-87175233D01*
X166424355Y-87494235D01*
X166251197Y-87911244D01*
X166250803Y-88362775D01*
X166423233Y-88780086D01*
X166634000Y-88991221D01*
X166634000Y-107704000D01*
X166691852Y-107994839D01*
X166856599Y-108241401D01*
X174320042Y-115704844D01*
X174273225Y-115704803D01*
X173855914Y-115877233D01*
X173536355Y-116196235D01*
X173363197Y-116613244D01*
X173362947Y-116900251D01*
X172827198Y-117436000D01*
X172135440Y-117436000D01*
X172135440Y-116696000D01*
X172091162Y-116460683D01*
X171952090Y-116244559D01*
X171739890Y-116099569D01*
X171488000Y-116048560D01*
X169888000Y-116048560D01*
X169652683Y-116092838D01*
X169436559Y-116231910D01*
X169291569Y-116444110D01*
X169240560Y-116696000D01*
X169240560Y-117436000D01*
X167212802Y-117436000D01*
X167138440Y-117361638D01*
X167138440Y-116814000D01*
X167094162Y-116578683D01*
X166955090Y-116362559D01*
X166742890Y-116217569D01*
X166491000Y-116166560D01*
X165741000Y-116166560D01*
X165505683Y-116210838D01*
X165289559Y-116349910D01*
X165144569Y-116562110D01*
X165093560Y-116814000D01*
X162493000Y-116814000D01*
X162493000Y-116713000D01*
X162513000Y-116713000D01*
X162513000Y-115713750D01*
X162767000Y-115713750D01*
X162767000Y-116713000D01*
X163866250Y-116713000D01*
X164025000Y-116554250D01*
X164025000Y-116063690D01*
X163928327Y-115830301D01*
X163749698Y-115651673D01*
X163516309Y-115555000D01*
X162925750Y-115555000D01*
X162767000Y-115713750D01*
X162513000Y-115713750D01*
X162354250Y-115555000D01*
X161763691Y-115555000D01*
X161530302Y-115651673D01*
X161351673Y-115830301D01*
X161295346Y-115966287D01*
X161293162Y-115954683D01*
X161154090Y-115738559D01*
X160941890Y-115593569D01*
X160700000Y-115544585D01*
X160700000Y-114760802D01*
X161154362Y-114306440D01*
X161702000Y-114306440D01*
X161937317Y-114262162D01*
X162040646Y-114195671D01*
X162042302Y-114197327D01*
X162275691Y-114294000D01*
X162716250Y-114294000D01*
X162875000Y-114135250D01*
X162875000Y-113411000D01*
X163129000Y-113411000D01*
X163129000Y-114135250D01*
X163287750Y-114294000D01*
X163728309Y-114294000D01*
X163961698Y-114197327D01*
X164140327Y-114018699D01*
X164237000Y-113785310D01*
X164237000Y-113569750D01*
X164078250Y-113411000D01*
X163129000Y-113411000D01*
X162875000Y-113411000D01*
X162855000Y-113411000D01*
X162855000Y-113157000D01*
X162875000Y-113157000D01*
X162875000Y-112432750D01*
X163129000Y-112432750D01*
X163129000Y-113157000D01*
X164078250Y-113157000D01*
X164237000Y-112998250D01*
X164237000Y-112782690D01*
X164140327Y-112549301D01*
X163961698Y-112370673D01*
X163728309Y-112274000D01*
X163287750Y-112274000D01*
X163129000Y-112432750D01*
X162875000Y-112432750D01*
X162716250Y-112274000D01*
X162275691Y-112274000D01*
X162042302Y-112370673D01*
X162040932Y-112372043D01*
X161953890Y-112312569D01*
X161702000Y-112261560D01*
X160502000Y-112261560D01*
X160266683Y-112305838D01*
X160050559Y-112444910D01*
X159905569Y-112657110D01*
X159854560Y-112909000D01*
X159854560Y-113456638D01*
X159402599Y-113908599D01*
X159237852Y-114155161D01*
X159180000Y-114446000D01*
X159180000Y-115544442D01*
X158954683Y-115586838D01*
X158738559Y-115725910D01*
X158593569Y-115938110D01*
X158542560Y-116190000D01*
X158542560Y-116588000D01*
X158428742Y-116588000D01*
X158405162Y-116462683D01*
X158266090Y-116246559D01*
X158053890Y-116101569D01*
X157802000Y-116050560D01*
X157790629Y-116050560D01*
X157790231Y-116048560D01*
X157754148Y-115867160D01*
X157589401Y-115620599D01*
X157549000Y-115580198D01*
X157549000Y-115320000D01*
X157566002Y-115320000D01*
X157566002Y-115175752D01*
X157710250Y-115320000D01*
X157790310Y-115320000D01*
X158023699Y-115223327D01*
X158202327Y-115044698D01*
X158299000Y-114811309D01*
X158299000Y-114245750D01*
X158140250Y-114087000D01*
X157661440Y-114087000D01*
X157661440Y-113833000D01*
X158140250Y-113833000D01*
X158299000Y-113674250D01*
X158299000Y-113108691D01*
X158202327Y-112875302D01*
X158101026Y-112774000D01*
X159131002Y-112774000D01*
X159421841Y-112716148D01*
X159668403Y-112551401D01*
X162060402Y-110159402D01*
X162188897Y-109967096D01*
X162398000Y-110009440D01*
X163898000Y-110009440D01*
X164133317Y-109965162D01*
X164349441Y-109826090D01*
X164494431Y-109613890D01*
X164545440Y-109362000D01*
X164545440Y-108062000D01*
X164501162Y-107826683D01*
X164362090Y-107610559D01*
X164149890Y-107465569D01*
X163908000Y-107416585D01*
X163908000Y-107395440D01*
X164226000Y-107395440D01*
X164461317Y-107351162D01*
X164677441Y-107212090D01*
X164822431Y-106999890D01*
X164873440Y-106748000D01*
X164873440Y-105248000D01*
X164829162Y-105012683D01*
X164690090Y-104796559D01*
X164477890Y-104651569D01*
X164444510Y-104644809D01*
X164585699Y-104586327D01*
X164764327Y-104407698D01*
X164861000Y-104174309D01*
X164861000Y-103583750D01*
X164702250Y-103425000D01*
X163703000Y-103425000D01*
X163703000Y-103445000D01*
X163449000Y-103445000D01*
X163449000Y-103425000D01*
X162449750Y-103425000D01*
X162291000Y-103583750D01*
X162291000Y-104174309D01*
X162387673Y-104407698D01*
X162566301Y-104586327D01*
X162702287Y-104642654D01*
X162690683Y-104644838D01*
X162474559Y-104783910D01*
X162329569Y-104996110D01*
X162278560Y-105248000D01*
X162278560Y-105806675D01*
X162225149Y-105538162D01*
X162060402Y-105291600D01*
X161380440Y-104611638D01*
X161380440Y-104389000D01*
X161336162Y-104153683D01*
X161197090Y-103937559D01*
X160984890Y-103792569D01*
X160733000Y-103741560D01*
X160010362Y-103741560D01*
X158690493Y-102421691D01*
X162291000Y-102421691D01*
X162291000Y-103012250D01*
X162449750Y-103171000D01*
X163449000Y-103171000D01*
X163449000Y-102071750D01*
X163703000Y-102071750D01*
X163703000Y-103171000D01*
X164702250Y-103171000D01*
X164861000Y-103012250D01*
X164861000Y-102421691D01*
X164764327Y-102188302D01*
X164585699Y-102009673D01*
X164352310Y-101913000D01*
X163861750Y-101913000D01*
X163703000Y-102071750D01*
X163449000Y-102071750D01*
X163290250Y-101913000D01*
X162799690Y-101913000D01*
X162566301Y-102009673D01*
X162387673Y-102188302D01*
X162291000Y-102421691D01*
X158690493Y-102421691D01*
X158347401Y-102078599D01*
X158100839Y-101913852D01*
X157810000Y-101856000D01*
X152400000Y-101856000D01*
X152109160Y-101913852D01*
X151862599Y-102078599D01*
X151374599Y-102566599D01*
X151209852Y-102813161D01*
X151199031Y-102867560D01*
X151162000Y-102867560D01*
X150926683Y-102911838D01*
X150746687Y-103027662D01*
X150695698Y-102976673D01*
X150462309Y-102880000D01*
X149871750Y-102880000D01*
X149713000Y-103038750D01*
X149713000Y-104013000D01*
X149733000Y-104013000D01*
X149733000Y-104267000D01*
X149713000Y-104267000D01*
X149713000Y-105241250D01*
X149871750Y-105400000D01*
X150462309Y-105400000D01*
X150695698Y-105303327D01*
X150748213Y-105250812D01*
X150910110Y-105361431D01*
X151162000Y-105412440D01*
X152662000Y-105412440D01*
X152897317Y-105368162D01*
X153113441Y-105229090D01*
X153159969Y-105160994D01*
X153302302Y-105303327D01*
X153535691Y-105400000D01*
X154126250Y-105400000D01*
X154285000Y-105241250D01*
X154285000Y-104267000D01*
X154265000Y-104267000D01*
X154265000Y-104013000D01*
X154285000Y-104013000D01*
X154285000Y-103993000D01*
X154539000Y-103993000D01*
X154539000Y-104013000D01*
X154559000Y-104013000D01*
X154559000Y-104267000D01*
X154539000Y-104267000D01*
X154539000Y-105241250D01*
X154697750Y-105400000D01*
X155288309Y-105400000D01*
X155521698Y-105303327D01*
X155700327Y-105124699D01*
X155701261Y-105122444D01*
X155711919Y-105179086D01*
X155698000Y-105212690D01*
X155698000Y-105378250D01*
X155856750Y-105537000D01*
X155937051Y-105537000D01*
X156081110Y-105635431D01*
X156218120Y-105663176D01*
X156097683Y-105685838D01*
X155934257Y-105791000D01*
X155856750Y-105791000D01*
X155852602Y-105795148D01*
X155725890Y-105708569D01*
X155474000Y-105657560D01*
X154274000Y-105657560D01*
X154038683Y-105701838D01*
X153935354Y-105768329D01*
X153933698Y-105766673D01*
X153700309Y-105670000D01*
X153259750Y-105670000D01*
X153101000Y-105828750D01*
X153101000Y-106553000D01*
X153121000Y-106553000D01*
X153121000Y-106807000D01*
X153101000Y-106807000D01*
X153101000Y-106827000D01*
X152847000Y-106827000D01*
X152847000Y-106807000D01*
X152827000Y-106807000D01*
X152827000Y-106553000D01*
X152847000Y-106553000D01*
X152847000Y-105828750D01*
X152688250Y-105670000D01*
X152247691Y-105670000D01*
X152014302Y-105766673D01*
X151906888Y-105874086D01*
X151667401Y-105634599D01*
X151420839Y-105469852D01*
X151130000Y-105412000D01*
X148844000Y-105412000D01*
X148553161Y-105469852D01*
X148306599Y-105634599D01*
X148220000Y-105721198D01*
X148220000Y-105272487D01*
X148287441Y-105229090D01*
X148333969Y-105160994D01*
X148476302Y-105303327D01*
X148709691Y-105400000D01*
X149300250Y-105400000D01*
X149459000Y-105241250D01*
X149459000Y-104267000D01*
X149439000Y-104267000D01*
X149439000Y-104013000D01*
X149459000Y-104013000D01*
X149459000Y-103038750D01*
X149300250Y-102880000D01*
X148709691Y-102880000D01*
X148476302Y-102976673D01*
X148335064Y-103117910D01*
X148300090Y-103063559D01*
X148087890Y-102918569D01*
X147836000Y-102867560D01*
X146336000Y-102867560D01*
X146100683Y-102911838D01*
X145884559Y-103050910D01*
X145739569Y-103263110D01*
X145688560Y-103515000D01*
X145688560Y-104765000D01*
X145732838Y-105000317D01*
X145871910Y-105216441D01*
X146084110Y-105361431D01*
X146336000Y-105412440D01*
X146700000Y-105412440D01*
X146700000Y-106106560D01*
X146360000Y-106106560D01*
X146124683Y-106150838D01*
X145908559Y-106289910D01*
X145769110Y-106494000D01*
X145730000Y-106494000D01*
X145439161Y-106551852D01*
X145192599Y-106716599D01*
X143941395Y-107967803D01*
X143862090Y-107844559D01*
X143649890Y-107699569D01*
X143636803Y-107696919D01*
X143849441Y-107560090D01*
X143994431Y-107347890D01*
X144045440Y-107096000D01*
X144045440Y-105596000D01*
X144001162Y-105360683D01*
X143867730Y-105153323D01*
X143994431Y-104967890D01*
X144045440Y-104716000D01*
X144045440Y-103216000D01*
X144001162Y-102980683D01*
X143862090Y-102764559D01*
X143649890Y-102619569D01*
X143616510Y-102612809D01*
X143757699Y-102554327D01*
X143936327Y-102375698D01*
X144033000Y-102142309D01*
X144033000Y-101551750D01*
X143874250Y-101393000D01*
X142875000Y-101393000D01*
X142875000Y-101413000D01*
X142621000Y-101413000D01*
X142621000Y-101393000D01*
X141621750Y-101393000D01*
X141463000Y-101551750D01*
X141463000Y-102142309D01*
X141559673Y-102375698D01*
X141738301Y-102554327D01*
X141874287Y-102610654D01*
X141862683Y-102612838D01*
X141646559Y-102751910D01*
X141501569Y-102964110D01*
X141450560Y-103216000D01*
X141450560Y-104716000D01*
X141494838Y-104951317D01*
X141628270Y-105158677D01*
X141501569Y-105344110D01*
X141450560Y-105596000D01*
X141450560Y-107096000D01*
X141494838Y-107331317D01*
X141633910Y-107547441D01*
X141846110Y-107692431D01*
X141859197Y-107695081D01*
X141646559Y-107831910D01*
X141501569Y-108044110D01*
X141450560Y-108296000D01*
X141450560Y-109796000D01*
X141494838Y-110031317D01*
X141633910Y-110247441D01*
X141846110Y-110392431D01*
X142023000Y-110428252D01*
X142023000Y-111768560D01*
X141258000Y-111768560D01*
X141022683Y-111812838D01*
X140806559Y-111951910D01*
X140661569Y-112164110D01*
X140610560Y-112416000D01*
X134797000Y-112416000D01*
X134797000Y-100389691D01*
X141463000Y-100389691D01*
X141463000Y-100980250D01*
X141621750Y-101139000D01*
X142621000Y-101139000D01*
X142621000Y-100039750D01*
X142875000Y-100039750D01*
X142875000Y-101139000D01*
X143874250Y-101139000D01*
X144033000Y-100980250D01*
X144033000Y-100389691D01*
X143936327Y-100156302D01*
X143757699Y-99977673D01*
X143524310Y-99881000D01*
X143033750Y-99881000D01*
X142875000Y-100039750D01*
X142621000Y-100039750D01*
X142462250Y-99881000D01*
X141971690Y-99881000D01*
X141738301Y-99977673D01*
X141559673Y-100156302D01*
X141463000Y-100389691D01*
X134797000Y-100389691D01*
X134797000Y-86135736D01*
X136466736Y-84466000D01*
X160816560Y-84466000D01*
X160816560Y-86166000D01*
X160860838Y-86401317D01*
X160999910Y-86617441D01*
X161212110Y-86762431D01*
X161464000Y-86813440D01*
X163164000Y-86813440D01*
X163399317Y-86769162D01*
X163615441Y-86630090D01*
X163760431Y-86417890D01*
X163774086Y-86350459D01*
X163803946Y-86395147D01*
X164285715Y-86717054D01*
X164854000Y-86830093D01*
X165422285Y-86717054D01*
X165904054Y-86395147D01*
X166124000Y-86065974D01*
X166343946Y-86395147D01*
X166825715Y-86717054D01*
X167394000Y-86830093D01*
X167962285Y-86717054D01*
X168444054Y-86395147D01*
X168671702Y-86054447D01*
X168738817Y-86197358D01*
X169167076Y-86587645D01*
X169577110Y-86757476D01*
X169807000Y-86636155D01*
X169807000Y-85443000D01*
X169787000Y-85443000D01*
X169787000Y-85189000D01*
X169807000Y-85189000D01*
X169807000Y-83995845D01*
X169577110Y-83874524D01*
X169167076Y-84044355D01*
X168738817Y-84434642D01*
X168671702Y-84577553D01*
X168444054Y-84236853D01*
X167962285Y-83914946D01*
X167394000Y-83801907D01*
X166825715Y-83914946D01*
X166343946Y-84236853D01*
X166124000Y-84566026D01*
X165904054Y-84236853D01*
X165422285Y-83914946D01*
X164854000Y-83801907D01*
X164285715Y-83914946D01*
X163803946Y-84236853D01*
X163776150Y-84278452D01*
X163767162Y-84230683D01*
X163628090Y-84014559D01*
X163415890Y-83869569D01*
X163164000Y-83818560D01*
X161464000Y-83818560D01*
X161228683Y-83862838D01*
X161012559Y-84001910D01*
X160867569Y-84214110D01*
X160816560Y-84466000D01*
X136466736Y-84466000D01*
X139221736Y-81711000D01*
X210455209Y-81711000D01*
X210979033Y-81884999D01*
G36*
X209716010Y-117974552D02*
X209716010Y-120990437D01*
X209678624Y-120983000D01*
X209073376Y-120983000D01*
X208639030Y-121069397D01*
X208270810Y-121315434D01*
X208024773Y-121683654D01*
X207938376Y-122118000D01*
X208024773Y-122552346D01*
X208270810Y-122920566D01*
X208639030Y-123166603D01*
X208685159Y-123175779D01*
X206382938Y-125478000D01*
X204967447Y-125478000D01*
X204993000Y-125416309D01*
X204993000Y-124825750D01*
X204834250Y-124667000D01*
X203835000Y-124667000D01*
X203835000Y-124687000D01*
X203581000Y-124687000D01*
X203581000Y-124667000D01*
X202581750Y-124667000D01*
X202423000Y-124825750D01*
X202423000Y-125416309D01*
X202448553Y-125478000D01*
X202173447Y-125478000D01*
X202199000Y-125416309D01*
X202199000Y-124825750D01*
X202040250Y-124667000D01*
X201041000Y-124667000D01*
X201041000Y-124687000D01*
X200787000Y-124687000D01*
X200787000Y-124667000D01*
X200767000Y-124667000D01*
X200767000Y-124413000D01*
X200787000Y-124413000D01*
X200787000Y-123313750D01*
X200663250Y-123190000D01*
X200787000Y-123066250D01*
X200787000Y-121967000D01*
X201041000Y-121967000D01*
X201041000Y-123066250D01*
X201164750Y-123190000D01*
X201041000Y-123313750D01*
X201041000Y-124413000D01*
X202040250Y-124413000D01*
X202199000Y-124254250D01*
X202199000Y-123663691D01*
X202102327Y-123430302D01*
X201923699Y-123251673D01*
X201774807Y-123190000D01*
X201923699Y-123128327D01*
X202102327Y-122949698D01*
X202199000Y-122716309D01*
X202199000Y-122125750D01*
X202423000Y-122125750D01*
X202423000Y-122716309D01*
X202519673Y-122949698D01*
X202698301Y-123128327D01*
X202847193Y-123190000D01*
X202698301Y-123251673D01*
X202519673Y-123430302D01*
X202423000Y-123663691D01*
X202423000Y-124254250D01*
X202581750Y-124413000D01*
X203581000Y-124413000D01*
X203581000Y-123313750D01*
X203457250Y-123190000D01*
X203581000Y-123066250D01*
X203581000Y-121967000D01*
X203835000Y-121967000D01*
X203835000Y-123066250D01*
X203958750Y-123190000D01*
X203835000Y-123313750D01*
X203835000Y-124413000D01*
X204834250Y-124413000D01*
X204993000Y-124254250D01*
X204993000Y-123663691D01*
X204896327Y-123430302D01*
X204717699Y-123251673D01*
X204568807Y-123190000D01*
X204717699Y-123128327D01*
X204896327Y-122949698D01*
X204993000Y-122716309D01*
X204993000Y-122125750D01*
X204834250Y-121967000D01*
X203835000Y-121967000D01*
X203581000Y-121967000D01*
X202581750Y-121967000D01*
X202423000Y-122125750D01*
X202199000Y-122125750D01*
X202040250Y-121967000D01*
X201041000Y-121967000D01*
X200787000Y-121967000D01*
X199787750Y-121967000D01*
X199629000Y-122125750D01*
X199629000Y-122716309D01*
X199660033Y-122791229D01*
X199546402Y-122677598D01*
X199384000Y-122569085D01*
X199384000Y-122525750D01*
X199225250Y-122367000D01*
X198501000Y-122367000D01*
X198501000Y-122387000D01*
X198433999Y-122387000D01*
X198433999Y-122093000D01*
X198501000Y-122093000D01*
X198501000Y-122113000D01*
X199225250Y-122113000D01*
X199384000Y-121954250D01*
X199384000Y-121513691D01*
X199287327Y-121280302D01*
X199108699Y-121101673D01*
X198875310Y-121005000D01*
X198659750Y-121005000D01*
X198501002Y-121163748D01*
X198501002Y-121005000D01*
X198433999Y-121005000D01*
X198433999Y-120963691D01*
X199629000Y-120963691D01*
X199629000Y-121554250D01*
X199787750Y-121713000D01*
X200787000Y-121713000D01*
X200787000Y-120613750D01*
X201041000Y-120613750D01*
X201041000Y-121713000D01*
X202040250Y-121713000D01*
X202199000Y-121554250D01*
X202199000Y-120963691D01*
X202102327Y-120730302D01*
X201923699Y-120551673D01*
X201690310Y-120455000D01*
X201199750Y-120455000D01*
X201041000Y-120613750D01*
X200787000Y-120613750D01*
X200628250Y-120455000D01*
X200137690Y-120455000D01*
X199904301Y-120551673D01*
X199725673Y-120730302D01*
X199629000Y-120963691D01*
X198433999Y-120963691D01*
X198433999Y-119298999D01*
X198376466Y-119009764D01*
X198644906Y-118898846D01*
X198918899Y-118625330D01*
X199003910Y-118757441D01*
X199216110Y-118902431D01*
X199468000Y-118953440D01*
X200668000Y-118953440D01*
X200903317Y-118909162D01*
X201119441Y-118770090D01*
X201167134Y-118700289D01*
X201203910Y-118757441D01*
X201416110Y-118902431D01*
X201632242Y-118946199D01*
X201730599Y-119093401D01*
X203092198Y-120455000D01*
X202931690Y-120455000D01*
X202698301Y-120551673D01*
X202519673Y-120730302D01*
X202423000Y-120963691D01*
X202423000Y-121554250D01*
X202581750Y-121713000D01*
X203581000Y-121713000D01*
X203581000Y-121693000D01*
X203835000Y-121693000D01*
X203835000Y-121713000D01*
X204834250Y-121713000D01*
X204993000Y-121554250D01*
X204993000Y-120963691D01*
X204896327Y-120730302D01*
X204844025Y-120678000D01*
X205618775Y-120678000D01*
X205566000Y-120943315D01*
X205566000Y-121292685D01*
X205650494Y-121717464D01*
X205891111Y-122077574D01*
X206251221Y-122318191D01*
X206676000Y-122402685D01*
X207100779Y-122318191D01*
X207460889Y-122077574D01*
X207701506Y-121717464D01*
X207786000Y-121292685D01*
X207786000Y-120943315D01*
X207724167Y-120632458D01*
X207802441Y-120582090D01*
X207947431Y-120369890D01*
X207998440Y-120118000D01*
X207998440Y-119718000D01*
X207974056Y-119588411D01*
X207998440Y-119468000D01*
X207998440Y-119068000D01*
X207974056Y-118938411D01*
X207998440Y-118818000D01*
X207998440Y-118418000D01*
X207978550Y-118312295D01*
X207986000Y-118294310D01*
X207986000Y-118226750D01*
X207956996Y-118197746D01*
X207954162Y-118182683D01*
X207815090Y-117966559D01*
X207813701Y-117965610D01*
X207947431Y-117769890D01*
X207953035Y-117742215D01*
X207986000Y-117709250D01*
X207986000Y-117641690D01*
X207977532Y-117621247D01*
X207998440Y-117518000D01*
X207998440Y-117118000D01*
X207954162Y-116882683D01*
X207815090Y-116666559D01*
X207724010Y-116604327D01*
X207786000Y-116292685D01*
X207786000Y-116044542D01*
X209716010Y-117974552D01*
X209716010Y-117974552D01*
G37*
X209716010Y-117974552D02*
X209716010Y-120990437D01*
X209678624Y-120983000D01*
X209073376Y-120983000D01*
X208639030Y-121069397D01*
X208270810Y-121315434D01*
X208024773Y-121683654D01*
X207938376Y-122118000D01*
X208024773Y-122552346D01*
X208270810Y-122920566D01*
X208639030Y-123166603D01*
X208685159Y-123175779D01*
X206382938Y-125478000D01*
X204967447Y-125478000D01*
X204993000Y-125416309D01*
X204993000Y-124825750D01*
X204834250Y-124667000D01*
X203835000Y-124667000D01*
X203835000Y-124687000D01*
X203581000Y-124687000D01*
X203581000Y-124667000D01*
X202581750Y-124667000D01*
X202423000Y-124825750D01*
X202423000Y-125416309D01*
X202448553Y-125478000D01*
X202173447Y-125478000D01*
X202199000Y-125416309D01*
X202199000Y-124825750D01*
X202040250Y-124667000D01*
X201041000Y-124667000D01*
X201041000Y-124687000D01*
X200787000Y-124687000D01*
X200787000Y-124667000D01*
X200767000Y-124667000D01*
X200767000Y-124413000D01*
X200787000Y-124413000D01*
X200787000Y-123313750D01*
X200663250Y-123190000D01*
X200787000Y-123066250D01*
X200787000Y-121967000D01*
X201041000Y-121967000D01*
X201041000Y-123066250D01*
X201164750Y-123190000D01*
X201041000Y-123313750D01*
X201041000Y-124413000D01*
X202040250Y-124413000D01*
X202199000Y-124254250D01*
X202199000Y-123663691D01*
X202102327Y-123430302D01*
X201923699Y-123251673D01*
X201774807Y-123190000D01*
X201923699Y-123128327D01*
X202102327Y-122949698D01*
X202199000Y-122716309D01*
X202199000Y-122125750D01*
X202423000Y-122125750D01*
X202423000Y-122716309D01*
X202519673Y-122949698D01*
X202698301Y-123128327D01*
X202847193Y-123190000D01*
X202698301Y-123251673D01*
X202519673Y-123430302D01*
X202423000Y-123663691D01*
X202423000Y-124254250D01*
X202581750Y-124413000D01*
X203581000Y-124413000D01*
X203581000Y-123313750D01*
X203457250Y-123190000D01*
X203581000Y-123066250D01*
X203581000Y-121967000D01*
X203835000Y-121967000D01*
X203835000Y-123066250D01*
X203958750Y-123190000D01*
X203835000Y-123313750D01*
X203835000Y-124413000D01*
X204834250Y-124413000D01*
X204993000Y-124254250D01*
X204993000Y-123663691D01*
X204896327Y-123430302D01*
X204717699Y-123251673D01*
X204568807Y-123190000D01*
X204717699Y-123128327D01*
X204896327Y-122949698D01*
X204993000Y-122716309D01*
X204993000Y-122125750D01*
X204834250Y-121967000D01*
X203835000Y-121967000D01*
X203581000Y-121967000D01*
X202581750Y-121967000D01*
X202423000Y-122125750D01*
X202199000Y-122125750D01*
X202040250Y-121967000D01*
X201041000Y-121967000D01*
X200787000Y-121967000D01*
X199787750Y-121967000D01*
X199629000Y-122125750D01*
X199629000Y-122716309D01*
X199660033Y-122791229D01*
X199546402Y-122677598D01*
X199384000Y-122569085D01*
X199384000Y-122525750D01*
X199225250Y-122367000D01*
X198501000Y-122367000D01*
X198501000Y-122387000D01*
X198433999Y-122387000D01*
X198433999Y-122093000D01*
X198501000Y-122093000D01*
X198501000Y-122113000D01*
X199225250Y-122113000D01*
X199384000Y-121954250D01*
X199384000Y-121513691D01*
X199287327Y-121280302D01*
X199108699Y-121101673D01*
X198875310Y-121005000D01*
X198659750Y-121005000D01*
X198501002Y-121163748D01*
X198501002Y-121005000D01*
X198433999Y-121005000D01*
X198433999Y-120963691D01*
X199629000Y-120963691D01*
X199629000Y-121554250D01*
X199787750Y-121713000D01*
X200787000Y-121713000D01*
X200787000Y-120613750D01*
X201041000Y-120613750D01*
X201041000Y-121713000D01*
X202040250Y-121713000D01*
X202199000Y-121554250D01*
X202199000Y-120963691D01*
X202102327Y-120730302D01*
X201923699Y-120551673D01*
X201690310Y-120455000D01*
X201199750Y-120455000D01*
X201041000Y-120613750D01*
X200787000Y-120613750D01*
X200628250Y-120455000D01*
X200137690Y-120455000D01*
X199904301Y-120551673D01*
X199725673Y-120730302D01*
X199629000Y-120963691D01*
X198433999Y-120963691D01*
X198433999Y-119298999D01*
X198376466Y-119009764D01*
X198644906Y-118898846D01*
X198918899Y-118625330D01*
X199003910Y-118757441D01*
X199216110Y-118902431D01*
X199468000Y-118953440D01*
X200668000Y-118953440D01*
X200903317Y-118909162D01*
X201119441Y-118770090D01*
X201167134Y-118700289D01*
X201203910Y-118757441D01*
X201416110Y-118902431D01*
X201632242Y-118946199D01*
X201730599Y-119093401D01*
X203092198Y-120455000D01*
X202931690Y-120455000D01*
X202698301Y-120551673D01*
X202519673Y-120730302D01*
X202423000Y-120963691D01*
X202423000Y-121554250D01*
X202581750Y-121713000D01*
X203581000Y-121713000D01*
X203581000Y-121693000D01*
X203835000Y-121693000D01*
X203835000Y-121713000D01*
X204834250Y-121713000D01*
X204993000Y-121554250D01*
X204993000Y-120963691D01*
X204896327Y-120730302D01*
X204844025Y-120678000D01*
X205618775Y-120678000D01*
X205566000Y-120943315D01*
X205566000Y-121292685D01*
X205650494Y-121717464D01*
X205891111Y-122077574D01*
X206251221Y-122318191D01*
X206676000Y-122402685D01*
X207100779Y-122318191D01*
X207460889Y-122077574D01*
X207701506Y-121717464D01*
X207786000Y-121292685D01*
X207786000Y-120943315D01*
X207724167Y-120632458D01*
X207802441Y-120582090D01*
X207947431Y-120369890D01*
X207998440Y-120118000D01*
X207998440Y-119718000D01*
X207974056Y-119588411D01*
X207998440Y-119468000D01*
X207998440Y-119068000D01*
X207974056Y-118938411D01*
X207998440Y-118818000D01*
X207998440Y-118418000D01*
X207978550Y-118312295D01*
X207986000Y-118294310D01*
X207986000Y-118226750D01*
X207956996Y-118197746D01*
X207954162Y-118182683D01*
X207815090Y-117966559D01*
X207813701Y-117965610D01*
X207947431Y-117769890D01*
X207953035Y-117742215D01*
X207986000Y-117709250D01*
X207986000Y-117641690D01*
X207977532Y-117621247D01*
X207998440Y-117518000D01*
X207998440Y-117118000D01*
X207954162Y-116882683D01*
X207815090Y-116666559D01*
X207724010Y-116604327D01*
X207786000Y-116292685D01*
X207786000Y-116044542D01*
X209716010Y-117974552D01*
G36*
X196913999Y-123149999D02*
X196971851Y-123440838D01*
X197136598Y-123687400D01*
X197201598Y-123752400D01*
X197351560Y-123852601D01*
X197351560Y-124394758D01*
X194922011Y-121965209D01*
X195099244Y-122038803D01*
X195550775Y-122039197D01*
X195968086Y-121866767D01*
X196287645Y-121547765D01*
X196460803Y-121130756D01*
X196461187Y-120690292D01*
X196632839Y-120656148D01*
X196636480Y-120653715D01*
X196857317Y-120612162D01*
X196913999Y-120575688D01*
X196913999Y-123149999D01*
X196913999Y-123149999D01*
G37*
X196913999Y-123149999D02*
X196971851Y-123440838D01*
X197136598Y-123687400D01*
X197201598Y-123752400D01*
X197351560Y-123852601D01*
X197351560Y-124394758D01*
X194922011Y-121965209D01*
X195099244Y-122038803D01*
X195550775Y-122039197D01*
X195968086Y-121866767D01*
X196287645Y-121547765D01*
X196460803Y-121130756D01*
X196461187Y-120690292D01*
X196632839Y-120656148D01*
X196636480Y-120653715D01*
X196857317Y-120612162D01*
X196913999Y-120575688D01*
X196913999Y-123149999D01*
G36*
X193866598Y-118553401D02*
X193866601Y-118553403D01*
X193994998Y-118681800D01*
X193994998Y-118782748D01*
X193836250Y-118624000D01*
X193395691Y-118624000D01*
X193162302Y-118720673D01*
X192983673Y-118899301D01*
X192887000Y-119132690D01*
X192887000Y-119348250D01*
X193045750Y-119507000D01*
X193995000Y-119507000D01*
X193995000Y-119487000D01*
X194249000Y-119487000D01*
X194249000Y-119507000D01*
X194269000Y-119507000D01*
X194269000Y-119761000D01*
X194249000Y-119761000D01*
X194249000Y-120485250D01*
X194264489Y-120500739D01*
X194191197Y-120677244D01*
X194190803Y-121128775D01*
X194264897Y-121308095D01*
X193600802Y-120644000D01*
X193836250Y-120644000D01*
X193995000Y-120485250D01*
X193995000Y-119761000D01*
X193045750Y-119761000D01*
X192887000Y-119919750D01*
X192887000Y-119930198D01*
X192650948Y-119694146D01*
X192651197Y-119409225D01*
X192525330Y-119104604D01*
X192724317Y-119067162D01*
X192940441Y-118928090D01*
X193085431Y-118715890D01*
X193134415Y-118474000D01*
X193787197Y-118474000D01*
X193866598Y-118553401D01*
X193866598Y-118553401D01*
G37*
X193866598Y-118553401D02*
X193866601Y-118553403D01*
X193994998Y-118681800D01*
X193994998Y-118782748D01*
X193836250Y-118624000D01*
X193395691Y-118624000D01*
X193162302Y-118720673D01*
X192983673Y-118899301D01*
X192887000Y-119132690D01*
X192887000Y-119348250D01*
X193045750Y-119507000D01*
X193995000Y-119507000D01*
X193995000Y-119487000D01*
X194249000Y-119487000D01*
X194249000Y-119507000D01*
X194269000Y-119507000D01*
X194269000Y-119761000D01*
X194249000Y-119761000D01*
X194249000Y-120485250D01*
X194264489Y-120500739D01*
X194191197Y-120677244D01*
X194190803Y-121128775D01*
X194264897Y-121308095D01*
X193600802Y-120644000D01*
X193836250Y-120644000D01*
X193995000Y-120485250D01*
X193995000Y-119761000D01*
X193045750Y-119761000D01*
X192887000Y-119919750D01*
X192887000Y-119930198D01*
X192650948Y-119694146D01*
X192651197Y-119409225D01*
X192525330Y-119104604D01*
X192724317Y-119067162D01*
X192940441Y-118928090D01*
X193085431Y-118715890D01*
X193134415Y-118474000D01*
X193787197Y-118474000D01*
X193866598Y-118553401D01*
G36*
X199271910Y-111337441D02*
X199484110Y-111482431D01*
X199736000Y-111533440D01*
X201236000Y-111533440D01*
X201471317Y-111489162D01*
X201687441Y-111350090D01*
X201706383Y-111322367D01*
X201831910Y-111517441D01*
X202044110Y-111662431D01*
X202296000Y-111713440D01*
X203454898Y-111713440D01*
X206591568Y-114850110D01*
X206251221Y-114917809D01*
X205891111Y-115158426D01*
X205650494Y-115518536D01*
X205566000Y-115943315D01*
X205566000Y-116292685D01*
X205627833Y-116603542D01*
X205549559Y-116653910D01*
X205404569Y-116866110D01*
X205353560Y-117118000D01*
X205353560Y-117145758D01*
X204779989Y-116572187D01*
X204779989Y-114939989D01*
X204722137Y-114649150D01*
X204557390Y-114402588D01*
X203915440Y-113760638D01*
X203915440Y-112888000D01*
X203871162Y-112652683D01*
X203732090Y-112436559D01*
X203519890Y-112291569D01*
X203268000Y-112240560D01*
X201768000Y-112240560D01*
X201532683Y-112284838D01*
X201316559Y-112423910D01*
X201171569Y-112636110D01*
X201168919Y-112649197D01*
X201032090Y-112436559D01*
X200819890Y-112291569D01*
X200568000Y-112240560D01*
X199068000Y-112240560D01*
X198832683Y-112284838D01*
X198616559Y-112423910D01*
X198471569Y-112636110D01*
X198442836Y-112778000D01*
X197490250Y-112778000D01*
X197447250Y-112735000D01*
X196723000Y-112735000D01*
X196723000Y-112755000D01*
X196469000Y-112755000D01*
X196469000Y-112735000D01*
X195744750Y-112735000D01*
X195701750Y-112778000D01*
X195326000Y-112778000D01*
X195299000Y-112783371D01*
X195299000Y-112686998D01*
X195160600Y-112686998D01*
X195204495Y-112622755D01*
X195299000Y-112528250D01*
X195299000Y-112412690D01*
X195290532Y-112392247D01*
X195311440Y-112289000D01*
X195311440Y-112263974D01*
X195607244Y-112386803D01*
X195650591Y-112386841D01*
X195744750Y-112481000D01*
X196469000Y-112481000D01*
X196469000Y-112461000D01*
X196723000Y-112461000D01*
X196723000Y-112481000D01*
X197447250Y-112481000D01*
X197606000Y-112322250D01*
X197606000Y-111881691D01*
X197509327Y-111648302D01*
X197394466Y-111533440D01*
X198536000Y-111533440D01*
X198771317Y-111489162D01*
X198987441Y-111350090D01*
X199132431Y-111137890D01*
X199135081Y-111124803D01*
X199271910Y-111337441D01*
X199271910Y-111337441D01*
G37*
X199271910Y-111337441D02*
X199484110Y-111482431D01*
X199736000Y-111533440D01*
X201236000Y-111533440D01*
X201471317Y-111489162D01*
X201687441Y-111350090D01*
X201706383Y-111322367D01*
X201831910Y-111517441D01*
X202044110Y-111662431D01*
X202296000Y-111713440D01*
X203454898Y-111713440D01*
X206591568Y-114850110D01*
X206251221Y-114917809D01*
X205891111Y-115158426D01*
X205650494Y-115518536D01*
X205566000Y-115943315D01*
X205566000Y-116292685D01*
X205627833Y-116603542D01*
X205549559Y-116653910D01*
X205404569Y-116866110D01*
X205353560Y-117118000D01*
X205353560Y-117145758D01*
X204779989Y-116572187D01*
X204779989Y-114939989D01*
X204722137Y-114649150D01*
X204557390Y-114402588D01*
X203915440Y-113760638D01*
X203915440Y-112888000D01*
X203871162Y-112652683D01*
X203732090Y-112436559D01*
X203519890Y-112291569D01*
X203268000Y-112240560D01*
X201768000Y-112240560D01*
X201532683Y-112284838D01*
X201316559Y-112423910D01*
X201171569Y-112636110D01*
X201168919Y-112649197D01*
X201032090Y-112436559D01*
X200819890Y-112291569D01*
X200568000Y-112240560D01*
X199068000Y-112240560D01*
X198832683Y-112284838D01*
X198616559Y-112423910D01*
X198471569Y-112636110D01*
X198442836Y-112778000D01*
X197490250Y-112778000D01*
X197447250Y-112735000D01*
X196723000Y-112735000D01*
X196723000Y-112755000D01*
X196469000Y-112755000D01*
X196469000Y-112735000D01*
X195744750Y-112735000D01*
X195701750Y-112778000D01*
X195326000Y-112778000D01*
X195299000Y-112783371D01*
X195299000Y-112686998D01*
X195160600Y-112686998D01*
X195204495Y-112622755D01*
X195299000Y-112528250D01*
X195299000Y-112412690D01*
X195290532Y-112392247D01*
X195311440Y-112289000D01*
X195311440Y-112263974D01*
X195607244Y-112386803D01*
X195650591Y-112386841D01*
X195744750Y-112481000D01*
X196469000Y-112481000D01*
X196469000Y-112461000D01*
X196723000Y-112461000D01*
X196723000Y-112481000D01*
X197447250Y-112481000D01*
X197606000Y-112322250D01*
X197606000Y-111881691D01*
X197509327Y-111648302D01*
X197394466Y-111533440D01*
X198536000Y-111533440D01*
X198771317Y-111489162D01*
X198987441Y-111350090D01*
X199132431Y-111137890D01*
X199135081Y-111124803D01*
X199271910Y-111337441D01*
G36*
X191939000Y-107711440D02*
X192078999Y-107711440D01*
X192078999Y-111749001D01*
X192136851Y-112039840D01*
X192301598Y-112286402D01*
X192529000Y-112513804D01*
X192529000Y-112528250D01*
X192625401Y-112624651D01*
X192699910Y-112740441D01*
X192807397Y-112813884D01*
X192712559Y-112874910D01*
X192623505Y-113005245D01*
X192529000Y-113099750D01*
X192529000Y-113215310D01*
X192537468Y-113235753D01*
X192516560Y-113339000D01*
X192516560Y-113889000D01*
X192540944Y-114018589D01*
X192516560Y-114139000D01*
X192516560Y-114477360D01*
X192343161Y-114511852D01*
X192096599Y-114676599D01*
X191676599Y-115096599D01*
X191511852Y-115343161D01*
X191454000Y-115634000D01*
X191454000Y-116549025D01*
X191414116Y-116607397D01*
X191353090Y-116512559D01*
X191222755Y-116423505D01*
X191128250Y-116329000D01*
X191012690Y-116329000D01*
X190992247Y-116337468D01*
X190889000Y-116316560D01*
X190339000Y-116316560D01*
X190209411Y-116340944D01*
X190089000Y-116316560D01*
X189539000Y-116316560D01*
X189409411Y-116340944D01*
X189289000Y-116316560D01*
X188739000Y-116316560D01*
X188609411Y-116340944D01*
X188489000Y-116316560D01*
X187939000Y-116316560D01*
X187809411Y-116340944D01*
X187689000Y-116316560D01*
X187139000Y-116316560D01*
X187009411Y-116340944D01*
X186889000Y-116316560D01*
X186339000Y-116316560D01*
X186209411Y-116340944D01*
X186089000Y-116316560D01*
X185539000Y-116316560D01*
X185433295Y-116336450D01*
X185415310Y-116329000D01*
X185299750Y-116329000D01*
X185203349Y-116425401D01*
X185087559Y-116499910D01*
X185014116Y-116607397D01*
X184974000Y-116545054D01*
X184974000Y-116328802D01*
X185703401Y-115599401D01*
X185868148Y-115352840D01*
X185926000Y-115062000D01*
X185926000Y-109574000D01*
X189636000Y-109574000D01*
X189926839Y-109516148D01*
X190173401Y-109351401D01*
X191151401Y-108373401D01*
X191316148Y-108126840D01*
X191374000Y-107836000D01*
X191374000Y-107711440D01*
X191689000Y-107711440D01*
X191818589Y-107687056D01*
X191939000Y-107711440D01*
X191939000Y-107711440D01*
G37*
X191939000Y-107711440D02*
X192078999Y-107711440D01*
X192078999Y-111749001D01*
X192136851Y-112039840D01*
X192301598Y-112286402D01*
X192529000Y-112513804D01*
X192529000Y-112528250D01*
X192625401Y-112624651D01*
X192699910Y-112740441D01*
X192807397Y-112813884D01*
X192712559Y-112874910D01*
X192623505Y-113005245D01*
X192529000Y-113099750D01*
X192529000Y-113215310D01*
X192537468Y-113235753D01*
X192516560Y-113339000D01*
X192516560Y-113889000D01*
X192540944Y-114018589D01*
X192516560Y-114139000D01*
X192516560Y-114477360D01*
X192343161Y-114511852D01*
X192096599Y-114676599D01*
X191676599Y-115096599D01*
X191511852Y-115343161D01*
X191454000Y-115634000D01*
X191454000Y-116549025D01*
X191414116Y-116607397D01*
X191353090Y-116512559D01*
X191222755Y-116423505D01*
X191128250Y-116329000D01*
X191012690Y-116329000D01*
X190992247Y-116337468D01*
X190889000Y-116316560D01*
X190339000Y-116316560D01*
X190209411Y-116340944D01*
X190089000Y-116316560D01*
X189539000Y-116316560D01*
X189409411Y-116340944D01*
X189289000Y-116316560D01*
X188739000Y-116316560D01*
X188609411Y-116340944D01*
X188489000Y-116316560D01*
X187939000Y-116316560D01*
X187809411Y-116340944D01*
X187689000Y-116316560D01*
X187139000Y-116316560D01*
X187009411Y-116340944D01*
X186889000Y-116316560D01*
X186339000Y-116316560D01*
X186209411Y-116340944D01*
X186089000Y-116316560D01*
X185539000Y-116316560D01*
X185433295Y-116336450D01*
X185415310Y-116329000D01*
X185299750Y-116329000D01*
X185203349Y-116425401D01*
X185087559Y-116499910D01*
X185014116Y-116607397D01*
X184974000Y-116545054D01*
X184974000Y-116328802D01*
X185703401Y-115599401D01*
X185868148Y-115352840D01*
X185926000Y-115062000D01*
X185926000Y-109574000D01*
X189636000Y-109574000D01*
X189926839Y-109516148D01*
X190173401Y-109351401D01*
X191151401Y-108373401D01*
X191316148Y-108126840D01*
X191374000Y-107836000D01*
X191374000Y-107711440D01*
X191689000Y-107711440D01*
X191818589Y-107687056D01*
X191939000Y-107711440D01*
G36*
X177592560Y-99456000D02*
X177636838Y-99691317D01*
X177775910Y-99907441D01*
X177988110Y-100052431D01*
X178099523Y-100074993D01*
X178004683Y-100092838D01*
X177788559Y-100231910D01*
X177643569Y-100444110D01*
X177592560Y-100696000D01*
X177592560Y-101996000D01*
X177636838Y-102231317D01*
X177775910Y-102447441D01*
X177988110Y-102592431D01*
X178240000Y-102643440D01*
X179740000Y-102643440D01*
X179975317Y-102599162D01*
X180191441Y-102460090D01*
X180336431Y-102247890D01*
X180339081Y-102234803D01*
X180475910Y-102447441D01*
X180688110Y-102592431D01*
X180930000Y-102641415D01*
X180930000Y-103966000D01*
X180987852Y-104256839D01*
X181152599Y-104503401D01*
X183291560Y-106642362D01*
X183291560Y-107064000D01*
X183299087Y-107104000D01*
X182799750Y-107104000D01*
X182641000Y-107262750D01*
X182641000Y-107887000D01*
X183740250Y-107887000D01*
X183899000Y-107728250D01*
X183899000Y-107703340D01*
X183939000Y-107711440D01*
X184489000Y-107711440D01*
X184618589Y-107687056D01*
X184739000Y-107711440D01*
X185289000Y-107711440D01*
X185418589Y-107687056D01*
X185539000Y-107711440D01*
X186089000Y-107711440D01*
X186218589Y-107687056D01*
X186339000Y-107711440D01*
X186889000Y-107711440D01*
X187018589Y-107687056D01*
X187139000Y-107711440D01*
X187689000Y-107711440D01*
X187818589Y-107687056D01*
X187939000Y-107711440D01*
X188489000Y-107711440D01*
X188618589Y-107687056D01*
X188739000Y-107711440D01*
X189289000Y-107711440D01*
X189394705Y-107691550D01*
X189412690Y-107699000D01*
X189528250Y-107699000D01*
X189624651Y-107602599D01*
X189686998Y-107562480D01*
X189686998Y-107688200D01*
X189321198Y-108054000D01*
X183678975Y-108054000D01*
X183515890Y-107942569D01*
X183264000Y-107891560D01*
X182367000Y-107891560D01*
X182367000Y-107887000D01*
X182387000Y-107887000D01*
X182387000Y-107262750D01*
X182228250Y-107104000D01*
X181637691Y-107104000D01*
X181404302Y-107200673D01*
X181225673Y-107379301D01*
X181211568Y-107413353D01*
X181165705Y-107367490D01*
X181233698Y-107339327D01*
X181412327Y-107160699D01*
X181509000Y-106927310D01*
X181509000Y-106711750D01*
X181350250Y-106553000D01*
X180401000Y-106553000D01*
X180401000Y-106573000D01*
X180363468Y-106573000D01*
X180140253Y-106423853D01*
X180127000Y-106421217D01*
X180127000Y-106299000D01*
X180147000Y-106299000D01*
X180147000Y-105574750D01*
X180401000Y-105574750D01*
X180401000Y-106299000D01*
X181350250Y-106299000D01*
X181509000Y-106140250D01*
X181509000Y-105924690D01*
X181412327Y-105691301D01*
X181233698Y-105512673D01*
X181000309Y-105416000D01*
X180559750Y-105416000D01*
X180401000Y-105574750D01*
X180147000Y-105574750D01*
X179988250Y-105416000D01*
X179547691Y-105416000D01*
X179314302Y-105512673D01*
X179312932Y-105514043D01*
X179225890Y-105454569D01*
X178974000Y-105403560D01*
X178201362Y-105403560D01*
X177480999Y-104683197D01*
X177480999Y-99404801D01*
X177592560Y-99293240D01*
X177592560Y-99456000D01*
X177592560Y-99456000D01*
G37*
X177592560Y-99456000D02*
X177636838Y-99691317D01*
X177775910Y-99907441D01*
X177988110Y-100052431D01*
X178099523Y-100074993D01*
X178004683Y-100092838D01*
X177788559Y-100231910D01*
X177643569Y-100444110D01*
X177592560Y-100696000D01*
X177592560Y-101996000D01*
X177636838Y-102231317D01*
X177775910Y-102447441D01*
X177988110Y-102592431D01*
X178240000Y-102643440D01*
X179740000Y-102643440D01*
X179975317Y-102599162D01*
X180191441Y-102460090D01*
X180336431Y-102247890D01*
X180339081Y-102234803D01*
X180475910Y-102447441D01*
X180688110Y-102592431D01*
X180930000Y-102641415D01*
X180930000Y-103966000D01*
X180987852Y-104256839D01*
X181152599Y-104503401D01*
X183291560Y-106642362D01*
X183291560Y-107064000D01*
X183299087Y-107104000D01*
X182799750Y-107104000D01*
X182641000Y-107262750D01*
X182641000Y-107887000D01*
X183740250Y-107887000D01*
X183899000Y-107728250D01*
X183899000Y-107703340D01*
X183939000Y-107711440D01*
X184489000Y-107711440D01*
X184618589Y-107687056D01*
X184739000Y-107711440D01*
X185289000Y-107711440D01*
X185418589Y-107687056D01*
X185539000Y-107711440D01*
X186089000Y-107711440D01*
X186218589Y-107687056D01*
X186339000Y-107711440D01*
X186889000Y-107711440D01*
X187018589Y-107687056D01*
X187139000Y-107711440D01*
X187689000Y-107711440D01*
X187818589Y-107687056D01*
X187939000Y-107711440D01*
X188489000Y-107711440D01*
X188618589Y-107687056D01*
X188739000Y-107711440D01*
X189289000Y-107711440D01*
X189394705Y-107691550D01*
X189412690Y-107699000D01*
X189528250Y-107699000D01*
X189624651Y-107602599D01*
X189686998Y-107562480D01*
X189686998Y-107688200D01*
X189321198Y-108054000D01*
X183678975Y-108054000D01*
X183515890Y-107942569D01*
X183264000Y-107891560D01*
X182367000Y-107891560D01*
X182367000Y-107887000D01*
X182387000Y-107887000D01*
X182387000Y-107262750D01*
X182228250Y-107104000D01*
X181637691Y-107104000D01*
X181404302Y-107200673D01*
X181225673Y-107379301D01*
X181211568Y-107413353D01*
X181165705Y-107367490D01*
X181233698Y-107339327D01*
X181412327Y-107160699D01*
X181509000Y-106927310D01*
X181509000Y-106711750D01*
X181350250Y-106553000D01*
X180401000Y-106553000D01*
X180401000Y-106573000D01*
X180363468Y-106573000D01*
X180140253Y-106423853D01*
X180127000Y-106421217D01*
X180127000Y-106299000D01*
X180147000Y-106299000D01*
X180147000Y-105574750D01*
X180401000Y-105574750D01*
X180401000Y-106299000D01*
X181350250Y-106299000D01*
X181509000Y-106140250D01*
X181509000Y-105924690D01*
X181412327Y-105691301D01*
X181233698Y-105512673D01*
X181000309Y-105416000D01*
X180559750Y-105416000D01*
X180401000Y-105574750D01*
X180147000Y-105574750D01*
X179988250Y-105416000D01*
X179547691Y-105416000D01*
X179314302Y-105512673D01*
X179312932Y-105514043D01*
X179225890Y-105454569D01*
X178974000Y-105403560D01*
X178201362Y-105403560D01*
X177480999Y-104683197D01*
X177480999Y-99404801D01*
X177592560Y-99293240D01*
X177592560Y-99456000D01*
G36*
X203456000Y-103880802D02*
X203456000Y-104056941D01*
X203254355Y-104258235D01*
X203081197Y-104675244D01*
X203080947Y-104962251D01*
X202730999Y-105312199D01*
X202730999Y-103384440D01*
X202959638Y-103384440D01*
X203456000Y-103880802D01*
X203456000Y-103880802D01*
G37*
X203456000Y-103880802D02*
X203456000Y-104056941D01*
X203254355Y-104258235D01*
X203081197Y-104675244D01*
X203080947Y-104962251D01*
X202730999Y-105312199D01*
X202730999Y-103384440D01*
X202959638Y-103384440D01*
X203456000Y-103880802D01*
G36*
X187841197Y-88419244D02*
X187840803Y-88870775D01*
X188013233Y-89288086D01*
X188332235Y-89607645D01*
X188749244Y-89780803D01*
X189036251Y-89781053D01*
X201210999Y-101955801D01*
X201210999Y-103121560D01*
X200144000Y-103121560D01*
X199908683Y-103165838D01*
X199692559Y-103304910D01*
X199646031Y-103373006D01*
X199503698Y-103230673D01*
X199270309Y-103134000D01*
X198679750Y-103134000D01*
X198521000Y-103292750D01*
X198521000Y-104267000D01*
X198541000Y-104267000D01*
X198541000Y-104521000D01*
X198521000Y-104521000D01*
X198521000Y-104541000D01*
X198267000Y-104541000D01*
X198267000Y-104521000D01*
X198247000Y-104521000D01*
X198247000Y-104267000D01*
X198267000Y-104267000D01*
X198267000Y-103292750D01*
X198108250Y-103134000D01*
X197937186Y-103134000D01*
X198065645Y-103005765D01*
X198238803Y-102588756D01*
X198239197Y-102137225D01*
X198066767Y-101719914D01*
X197747765Y-101400355D01*
X197330756Y-101227197D01*
X196879225Y-101226803D01*
X196461914Y-101399233D01*
X196142355Y-101718235D01*
X195969197Y-102135244D01*
X195968947Y-102422251D01*
X195738599Y-102652599D01*
X195573852Y-102899161D01*
X195524748Y-103146020D01*
X195440683Y-103161838D01*
X195337354Y-103228329D01*
X195335698Y-103226673D01*
X195102309Y-103130000D01*
X194661750Y-103130000D01*
X194503000Y-103288750D01*
X194503000Y-104013000D01*
X194523000Y-104013000D01*
X194523000Y-104080187D01*
X194229000Y-104079930D01*
X194229000Y-104013000D01*
X194249000Y-104013000D01*
X194249000Y-103288750D01*
X194090250Y-103130000D01*
X193649691Y-103130000D01*
X193416302Y-103226673D01*
X193237673Y-103405301D01*
X193177267Y-103551135D01*
X193057769Y-103431637D01*
X193240441Y-103314090D01*
X193385431Y-103101890D01*
X193436440Y-102850000D01*
X193436440Y-100350000D01*
X193392162Y-100114683D01*
X193253090Y-99898559D01*
X193040890Y-99753569D01*
X192789000Y-99702560D01*
X192233212Y-99702560D01*
X192256000Y-99588000D01*
X192256000Y-98298558D01*
X192481317Y-98256162D01*
X192697441Y-98117090D01*
X192842431Y-97904890D01*
X192893440Y-97653000D01*
X192893440Y-96403000D01*
X192849162Y-96167683D01*
X192710090Y-95951559D01*
X192497890Y-95806569D01*
X192246000Y-95755560D01*
X190746000Y-95755560D01*
X190510683Y-95799838D01*
X190294559Y-95938910D01*
X190248031Y-96007006D01*
X190105698Y-95864673D01*
X189872309Y-95768000D01*
X189281750Y-95768000D01*
X189123000Y-95926750D01*
X189123000Y-96901000D01*
X189143000Y-96901000D01*
X189143000Y-97155000D01*
X189123000Y-97155000D01*
X189123000Y-98129250D01*
X189281750Y-98288000D01*
X189872309Y-98288000D01*
X190105698Y-98191327D01*
X190246936Y-98050090D01*
X190281910Y-98104441D01*
X190494110Y-98249431D01*
X190736000Y-98298415D01*
X190736000Y-99273198D01*
X190589099Y-99420099D01*
X190424352Y-99666661D01*
X190417211Y-99702560D01*
X189464000Y-99702560D01*
X189228683Y-99746838D01*
X189012559Y-99885910D01*
X188867569Y-100098110D01*
X188816560Y-100350000D01*
X188816560Y-102127758D01*
X187751401Y-101062599D01*
X187611440Y-100969080D01*
X187611440Y-100350000D01*
X187567162Y-100114683D01*
X187428090Y-99898559D01*
X187215890Y-99753569D01*
X186964000Y-99702560D01*
X185857918Y-99702560D01*
X185838901Y-99674099D01*
X184930000Y-98765198D01*
X184930000Y-98298558D01*
X185155317Y-98256162D01*
X185371441Y-98117090D01*
X185417969Y-98048994D01*
X185560302Y-98191327D01*
X185793691Y-98288000D01*
X186384250Y-98288000D01*
X186543000Y-98129250D01*
X186543000Y-97155000D01*
X186797000Y-97155000D01*
X186797000Y-98129250D01*
X186955750Y-98288000D01*
X187546309Y-98288000D01*
X187779698Y-98191327D01*
X187833000Y-98138025D01*
X187886302Y-98191327D01*
X188119691Y-98288000D01*
X188710250Y-98288000D01*
X188869000Y-98129250D01*
X188869000Y-97155000D01*
X186797000Y-97155000D01*
X186543000Y-97155000D01*
X186523000Y-97155000D01*
X186523000Y-96901000D01*
X186543000Y-96901000D01*
X186543000Y-95926750D01*
X186797000Y-95926750D01*
X186797000Y-96901000D01*
X188869000Y-96901000D01*
X188869000Y-95926750D01*
X188710250Y-95768000D01*
X188119691Y-95768000D01*
X187886302Y-95864673D01*
X187833000Y-95917975D01*
X187779698Y-95864673D01*
X187546309Y-95768000D01*
X186955750Y-95768000D01*
X186797000Y-95926750D01*
X186543000Y-95926750D01*
X186384250Y-95768000D01*
X185793691Y-95768000D01*
X185560302Y-95864673D01*
X185419064Y-96005910D01*
X185384090Y-95951559D01*
X185171890Y-95806569D01*
X184920000Y-95755560D01*
X183420000Y-95755560D01*
X183184683Y-95799838D01*
X182968559Y-95938910D01*
X182823569Y-96151110D01*
X182772560Y-96403000D01*
X182772560Y-97614688D01*
X182691890Y-97559569D01*
X182440000Y-97508560D01*
X181367362Y-97508560D01*
X181152400Y-97293598D01*
X180905838Y-97128851D01*
X180614999Y-97070999D01*
X177979999Y-97070999D01*
X177689160Y-97128851D01*
X177442598Y-97293598D01*
X177440227Y-97295969D01*
X177480998Y-97091002D01*
X177480998Y-88764944D01*
X177770775Y-88765197D01*
X178188086Y-88592767D01*
X178391207Y-88390000D01*
X187853340Y-88390000D01*
X187841197Y-88419244D01*
X187841197Y-88419244D01*
G37*
X187841197Y-88419244D02*
X187840803Y-88870775D01*
X188013233Y-89288086D01*
X188332235Y-89607645D01*
X188749244Y-89780803D01*
X189036251Y-89781053D01*
X201210999Y-101955801D01*
X201210999Y-103121560D01*
X200144000Y-103121560D01*
X199908683Y-103165838D01*
X199692559Y-103304910D01*
X199646031Y-103373006D01*
X199503698Y-103230673D01*
X199270309Y-103134000D01*
X198679750Y-103134000D01*
X198521000Y-103292750D01*
X198521000Y-104267000D01*
X198541000Y-104267000D01*
X198541000Y-104521000D01*
X198521000Y-104521000D01*
X198521000Y-104541000D01*
X198267000Y-104541000D01*
X198267000Y-104521000D01*
X198247000Y-104521000D01*
X198247000Y-104267000D01*
X198267000Y-104267000D01*
X198267000Y-103292750D01*
X198108250Y-103134000D01*
X197937186Y-103134000D01*
X198065645Y-103005765D01*
X198238803Y-102588756D01*
X198239197Y-102137225D01*
X198066767Y-101719914D01*
X197747765Y-101400355D01*
X197330756Y-101227197D01*
X196879225Y-101226803D01*
X196461914Y-101399233D01*
X196142355Y-101718235D01*
X195969197Y-102135244D01*
X195968947Y-102422251D01*
X195738599Y-102652599D01*
X195573852Y-102899161D01*
X195524748Y-103146020D01*
X195440683Y-103161838D01*
X195337354Y-103228329D01*
X195335698Y-103226673D01*
X195102309Y-103130000D01*
X194661750Y-103130000D01*
X194503000Y-103288750D01*
X194503000Y-104013000D01*
X194523000Y-104013000D01*
X194523000Y-104080187D01*
X194229000Y-104079930D01*
X194229000Y-104013000D01*
X194249000Y-104013000D01*
X194249000Y-103288750D01*
X194090250Y-103130000D01*
X193649691Y-103130000D01*
X193416302Y-103226673D01*
X193237673Y-103405301D01*
X193177267Y-103551135D01*
X193057769Y-103431637D01*
X193240441Y-103314090D01*
X193385431Y-103101890D01*
X193436440Y-102850000D01*
X193436440Y-100350000D01*
X193392162Y-100114683D01*
X193253090Y-99898559D01*
X193040890Y-99753569D01*
X192789000Y-99702560D01*
X192233212Y-99702560D01*
X192256000Y-99588000D01*
X192256000Y-98298558D01*
X192481317Y-98256162D01*
X192697441Y-98117090D01*
X192842431Y-97904890D01*
X192893440Y-97653000D01*
X192893440Y-96403000D01*
X192849162Y-96167683D01*
X192710090Y-95951559D01*
X192497890Y-95806569D01*
X192246000Y-95755560D01*
X190746000Y-95755560D01*
X190510683Y-95799838D01*
X190294559Y-95938910D01*
X190248031Y-96007006D01*
X190105698Y-95864673D01*
X189872309Y-95768000D01*
X189281750Y-95768000D01*
X189123000Y-95926750D01*
X189123000Y-96901000D01*
X189143000Y-96901000D01*
X189143000Y-97155000D01*
X189123000Y-97155000D01*
X189123000Y-98129250D01*
X189281750Y-98288000D01*
X189872309Y-98288000D01*
X190105698Y-98191327D01*
X190246936Y-98050090D01*
X190281910Y-98104441D01*
X190494110Y-98249431D01*
X190736000Y-98298415D01*
X190736000Y-99273198D01*
X190589099Y-99420099D01*
X190424352Y-99666661D01*
X190417211Y-99702560D01*
X189464000Y-99702560D01*
X189228683Y-99746838D01*
X189012559Y-99885910D01*
X188867569Y-100098110D01*
X188816560Y-100350000D01*
X188816560Y-102127758D01*
X187751401Y-101062599D01*
X187611440Y-100969080D01*
X187611440Y-100350000D01*
X187567162Y-100114683D01*
X187428090Y-99898559D01*
X187215890Y-99753569D01*
X186964000Y-99702560D01*
X185857918Y-99702560D01*
X185838901Y-99674099D01*
X184930000Y-98765198D01*
X184930000Y-98298558D01*
X185155317Y-98256162D01*
X185371441Y-98117090D01*
X185417969Y-98048994D01*
X185560302Y-98191327D01*
X185793691Y-98288000D01*
X186384250Y-98288000D01*
X186543000Y-98129250D01*
X186543000Y-97155000D01*
X186797000Y-97155000D01*
X186797000Y-98129250D01*
X186955750Y-98288000D01*
X187546309Y-98288000D01*
X187779698Y-98191327D01*
X187833000Y-98138025D01*
X187886302Y-98191327D01*
X188119691Y-98288000D01*
X188710250Y-98288000D01*
X188869000Y-98129250D01*
X188869000Y-97155000D01*
X186797000Y-97155000D01*
X186543000Y-97155000D01*
X186523000Y-97155000D01*
X186523000Y-96901000D01*
X186543000Y-96901000D01*
X186543000Y-95926750D01*
X186797000Y-95926750D01*
X186797000Y-96901000D01*
X188869000Y-96901000D01*
X188869000Y-95926750D01*
X188710250Y-95768000D01*
X188119691Y-95768000D01*
X187886302Y-95864673D01*
X187833000Y-95917975D01*
X187779698Y-95864673D01*
X187546309Y-95768000D01*
X186955750Y-95768000D01*
X186797000Y-95926750D01*
X186543000Y-95926750D01*
X186384250Y-95768000D01*
X185793691Y-95768000D01*
X185560302Y-95864673D01*
X185419064Y-96005910D01*
X185384090Y-95951559D01*
X185171890Y-95806569D01*
X184920000Y-95755560D01*
X183420000Y-95755560D01*
X183184683Y-95799838D01*
X182968559Y-95938910D01*
X182823569Y-96151110D01*
X182772560Y-96403000D01*
X182772560Y-97614688D01*
X182691890Y-97559569D01*
X182440000Y-97508560D01*
X181367362Y-97508560D01*
X181152400Y-97293598D01*
X180905838Y-97128851D01*
X180614999Y-97070999D01*
X177979999Y-97070999D01*
X177689160Y-97128851D01*
X177442598Y-97293598D01*
X177440227Y-97295969D01*
X177480998Y-97091002D01*
X177480998Y-88764944D01*
X177770775Y-88765197D01*
X178188086Y-88592767D01*
X178391207Y-88390000D01*
X187853340Y-88390000D01*
X187841197Y-88419244D01*
G36*
X205039000Y-100457000D02*
X205059000Y-100457000D01*
X205059000Y-100711000D01*
X205039000Y-100711000D01*
X205039000Y-101435250D01*
X205076750Y-101473000D01*
X205039000Y-101510750D01*
X205039000Y-102235000D01*
X205988250Y-102235000D01*
X206147000Y-102076250D01*
X206147000Y-101860690D01*
X206099602Y-101746260D01*
X206223910Y-101939441D01*
X206436110Y-102084431D01*
X206678000Y-102133415D01*
X206678000Y-102618000D01*
X206117250Y-102618000D01*
X205988250Y-102489000D01*
X205039000Y-102489000D01*
X205039000Y-102509000D01*
X204785000Y-102509000D01*
X204785000Y-102489000D01*
X204765000Y-102489000D01*
X204765000Y-102235000D01*
X204785000Y-102235000D01*
X204785000Y-101510750D01*
X204747250Y-101473000D01*
X204785000Y-101435250D01*
X204785000Y-100711000D01*
X204765000Y-100711000D01*
X204765000Y-100457000D01*
X204785000Y-100457000D01*
X204785000Y-100437000D01*
X205039000Y-100437000D01*
X205039000Y-100457000D01*
X205039000Y-100457000D01*
G37*
X205039000Y-100457000D02*
X205059000Y-100457000D01*
X205059000Y-100711000D01*
X205039000Y-100711000D01*
X205039000Y-101435250D01*
X205076750Y-101473000D01*
X205039000Y-101510750D01*
X205039000Y-102235000D01*
X205988250Y-102235000D01*
X206147000Y-102076250D01*
X206147000Y-101860690D01*
X206099602Y-101746260D01*
X206223910Y-101939441D01*
X206436110Y-102084431D01*
X206678000Y-102133415D01*
X206678000Y-102618000D01*
X206117250Y-102618000D01*
X205988250Y-102489000D01*
X205039000Y-102489000D01*
X205039000Y-102509000D01*
X204785000Y-102509000D01*
X204785000Y-102489000D01*
X204765000Y-102489000D01*
X204765000Y-102235000D01*
X204785000Y-102235000D01*
X204785000Y-101510750D01*
X204747250Y-101473000D01*
X204785000Y-101435250D01*
X204785000Y-100711000D01*
X204765000Y-100711000D01*
X204765000Y-100457000D01*
X204785000Y-100457000D01*
X204785000Y-100437000D01*
X205039000Y-100437000D01*
X205039000Y-100457000D01*
G36*
X153592000Y-115550802D02*
X153592000Y-116052442D01*
X153366683Y-116094838D01*
X153150559Y-116233910D01*
X153005569Y-116446110D01*
X152954560Y-116698000D01*
X152954560Y-117496638D01*
X152493000Y-117958198D01*
X152493000Y-117881750D01*
X152334250Y-117723000D01*
X150885000Y-117723000D01*
X150885000Y-118672250D01*
X151043750Y-118831000D01*
X151700632Y-118831000D01*
X151697852Y-118835161D01*
X151640000Y-119126000D01*
X151640000Y-119914560D01*
X151302000Y-119914560D01*
X151066683Y-119958838D01*
X150850559Y-120097910D01*
X150705569Y-120310110D01*
X150654560Y-120562000D01*
X150654560Y-120652000D01*
X149098000Y-120652000D01*
X148807161Y-120709852D01*
X148718804Y-120768890D01*
X148694559Y-120785090D01*
X148365225Y-120784803D01*
X147947914Y-120957233D01*
X147816860Y-121088058D01*
X145592242Y-118863440D01*
X147658000Y-118863440D01*
X147893317Y-118819162D01*
X148109441Y-118680090D01*
X148254431Y-118467890D01*
X148305440Y-118216000D01*
X148305440Y-117881750D01*
X149023000Y-117881750D01*
X149023000Y-118322310D01*
X149119673Y-118555699D01*
X149298302Y-118734327D01*
X149531691Y-118831000D01*
X150472250Y-118831000D01*
X150631000Y-118672250D01*
X150631000Y-117723000D01*
X149181750Y-117723000D01*
X149023000Y-117881750D01*
X148305440Y-117881750D01*
X148305440Y-116076000D01*
X149040666Y-116076000D01*
X149054838Y-116151317D01*
X149193910Y-116367441D01*
X149315527Y-116450538D01*
X149298302Y-116457673D01*
X149119673Y-116636301D01*
X149023000Y-116869690D01*
X149023000Y-117310250D01*
X149181750Y-117469000D01*
X150631000Y-117469000D01*
X150631000Y-117449000D01*
X150885000Y-117449000D01*
X150885000Y-117469000D01*
X152334250Y-117469000D01*
X152493000Y-117310250D01*
X152493000Y-116869690D01*
X152396327Y-116636301D01*
X152217698Y-116457673D01*
X152200162Y-116450409D01*
X152309441Y-116380090D01*
X152454431Y-116167890D01*
X152505440Y-115916000D01*
X152505440Y-114716000D01*
X152461162Y-114480683D01*
X152351570Y-114310372D01*
X153592000Y-115550802D01*
X153592000Y-115550802D01*
G37*
X153592000Y-115550802D02*
X153592000Y-116052442D01*
X153366683Y-116094838D01*
X153150559Y-116233910D01*
X153005569Y-116446110D01*
X152954560Y-116698000D01*
X152954560Y-117496638D01*
X152493000Y-117958198D01*
X152493000Y-117881750D01*
X152334250Y-117723000D01*
X150885000Y-117723000D01*
X150885000Y-118672250D01*
X151043750Y-118831000D01*
X151700632Y-118831000D01*
X151697852Y-118835161D01*
X151640000Y-119126000D01*
X151640000Y-119914560D01*
X151302000Y-119914560D01*
X151066683Y-119958838D01*
X150850559Y-120097910D01*
X150705569Y-120310110D01*
X150654560Y-120562000D01*
X150654560Y-120652000D01*
X149098000Y-120652000D01*
X148807161Y-120709852D01*
X148718804Y-120768890D01*
X148694559Y-120785090D01*
X148365225Y-120784803D01*
X147947914Y-120957233D01*
X147816860Y-121088058D01*
X145592242Y-118863440D01*
X147658000Y-118863440D01*
X147893317Y-118819162D01*
X148109441Y-118680090D01*
X148254431Y-118467890D01*
X148305440Y-118216000D01*
X148305440Y-117881750D01*
X149023000Y-117881750D01*
X149023000Y-118322310D01*
X149119673Y-118555699D01*
X149298302Y-118734327D01*
X149531691Y-118831000D01*
X150472250Y-118831000D01*
X150631000Y-118672250D01*
X150631000Y-117723000D01*
X149181750Y-117723000D01*
X149023000Y-117881750D01*
X148305440Y-117881750D01*
X148305440Y-116076000D01*
X149040666Y-116076000D01*
X149054838Y-116151317D01*
X149193910Y-116367441D01*
X149315527Y-116450538D01*
X149298302Y-116457673D01*
X149119673Y-116636301D01*
X149023000Y-116869690D01*
X149023000Y-117310250D01*
X149181750Y-117469000D01*
X150631000Y-117469000D01*
X150631000Y-117449000D01*
X150885000Y-117449000D01*
X150885000Y-117469000D01*
X152334250Y-117469000D01*
X152493000Y-117310250D01*
X152493000Y-116869690D01*
X152396327Y-116636301D01*
X152217698Y-116457673D01*
X152200162Y-116450409D01*
X152309441Y-116380090D01*
X152454431Y-116167890D01*
X152505440Y-115916000D01*
X152505440Y-114716000D01*
X152461162Y-114480683D01*
X152351570Y-114310372D01*
X153592000Y-115550802D01*
M02*
