G04 #@! TF.FileFunction,Soldermask,Top*
%FSLAX46Y46*%
G04 Gerber Fmt 4.6, Leading zero omitted, Abs format (unit mm)*
G04 Created by KiCad (PCBNEW 4.0.7) date Sunday, July 29, 2018 'PMt' 07:28:34 PM*
%MOMM*%
%LPD*%
G01*
G04 APERTURE LIST*
%ADD10C,0.100000*%
%ADD11R,1.500000X1.250000*%
%ADD12R,1.600000X3.000000*%
%ADD13R,1.200000X0.750000*%
%ADD14R,0.750000X1.200000*%
%ADD15R,1.700000X1.700000*%
%ADD16O,1.700000X1.700000*%
%ADD17R,3.300000X1.700000*%
%ADD18R,1.500000X1.300000*%
%ADD19R,1.300000X1.500000*%
%ADD20R,1.350000X0.400000*%
%ADD21O,0.950000X1.250000*%
%ADD22O,1.550000X1.000000*%
%ADD23R,3.500000X3.500000*%
%ADD24R,1.200000X0.900000*%
%ADD25R,2.200000X1.000000*%
%ADD26C,2.000000*%
%ADD27R,2.200000X1.200000*%
%ADD28R,6.400000X5.800000*%
%ADD29R,1.500000X0.550000*%
%ADD30R,0.550000X1.500000*%
%ADD31R,0.450000X1.450000*%
%ADD32R,1.650000X0.650000*%
%ADD33R,3.325000X2.500000*%
G04 APERTURE END LIST*
D10*
D11*
X184170000Y-97028000D03*
X186670000Y-97028000D03*
X191496000Y-97028000D03*
X188996000Y-97028000D03*
D12*
X170688000Y-118196000D03*
X170688000Y-122596000D03*
D13*
X203012000Y-102362000D03*
X204912000Y-102362000D03*
D14*
X166116000Y-117414000D03*
X166116000Y-119314000D03*
X198374000Y-124140000D03*
X198374000Y-122240000D03*
D11*
X198394000Y-104394000D03*
X200894000Y-104394000D03*
D13*
X203012000Y-100584000D03*
X204912000Y-100584000D03*
D12*
X152400000Y-126070000D03*
X152400000Y-130470000D03*
D14*
X196596000Y-114954000D03*
X196596000Y-112608000D03*
D12*
X159258000Y-126070000D03*
X159258000Y-130470000D03*
D13*
X161102000Y-113284000D03*
X163002000Y-113284000D03*
D11*
X147086000Y-104140000D03*
X149586000Y-104140000D03*
D13*
X154874000Y-106680000D03*
X152974000Y-106680000D03*
D11*
X154412000Y-104140000D03*
X151912000Y-104140000D03*
D13*
X194376000Y-104140000D03*
X196276000Y-104140000D03*
X184658000Y-120142000D03*
X182758000Y-120142000D03*
X180274000Y-106426000D03*
X178374000Y-106426000D03*
X194122000Y-119634000D03*
X196022000Y-119634000D03*
D15*
X209658000Y-105686000D03*
D16*
X207118000Y-105686000D03*
X209658000Y-108226000D03*
X207118000Y-108226000D03*
X209658000Y-110766000D03*
X207118000Y-110766000D03*
D17*
X203752000Y-98552000D03*
X209252000Y-98552000D03*
X152952000Y-121412000D03*
X158452000Y-121412000D03*
D18*
X181690000Y-101346000D03*
X178990000Y-101346000D03*
X197786000Y-110236000D03*
X200486000Y-110236000D03*
D19*
X142748000Y-101266000D03*
X142748000Y-103966000D03*
X163576000Y-103298000D03*
X163576000Y-105998000D03*
D20*
X206676000Y-119918000D03*
X206676000Y-119268000D03*
X206676000Y-118618000D03*
X206676000Y-117968000D03*
X206676000Y-117318000D03*
D21*
X206676000Y-121118000D03*
X206676000Y-116118000D03*
D22*
X209376000Y-122118000D03*
X209376000Y-115118000D03*
D23*
X145542000Y-126492000D03*
X139542000Y-126492000D03*
X142542000Y-131192000D03*
D15*
X171438000Y-133316000D03*
D16*
X173978000Y-133316000D03*
X176518000Y-133316000D03*
X179058000Y-133316000D03*
X181598000Y-133316000D03*
X184138000Y-133316000D03*
X186678000Y-133316000D03*
X189218000Y-133316000D03*
D15*
X162314000Y-85316000D03*
D16*
X164854000Y-85316000D03*
X167394000Y-85316000D03*
X169934000Y-85316000D03*
X172474000Y-85316000D03*
X175014000Y-85316000D03*
X177554000Y-85316000D03*
X180094000Y-85316000D03*
X182634000Y-85316000D03*
X185174000Y-85316000D03*
D15*
X189238000Y-85316000D03*
D16*
X191778000Y-85316000D03*
X194318000Y-85316000D03*
X196858000Y-85316000D03*
X199398000Y-85316000D03*
X201938000Y-85316000D03*
X204478000Y-85316000D03*
X207018000Y-85316000D03*
D15*
X207018000Y-133316000D03*
D16*
X204478000Y-133316000D03*
X201938000Y-133316000D03*
X199398000Y-133316000D03*
X196858000Y-133316000D03*
X194318000Y-133316000D03*
D24*
X200068000Y-117856000D03*
X202268000Y-117856000D03*
D25*
X147460000Y-107254000D03*
X147460000Y-109154000D03*
X150360000Y-108204000D03*
D18*
X199818000Y-113538000D03*
X202518000Y-113538000D03*
X199818000Y-115570000D03*
X202518000Y-115570000D03*
X207438000Y-100838000D03*
X210138000Y-100838000D03*
D19*
X200914000Y-124540000D03*
X200914000Y-121840000D03*
X203708000Y-124540000D03*
X203708000Y-121840000D03*
X179832000Y-119206000D03*
X179832000Y-116506000D03*
D18*
X181690000Y-98806000D03*
X178990000Y-98806000D03*
D19*
X202946000Y-107616000D03*
X202946000Y-110316000D03*
X142748000Y-109046000D03*
X142748000Y-106346000D03*
D18*
X154352000Y-117348000D03*
X157052000Y-117348000D03*
X159940000Y-116840000D03*
X162640000Y-116840000D03*
X160448000Y-108712000D03*
X163148000Y-108712000D03*
D26*
X209804000Y-90750000D03*
X209804000Y-95250000D03*
X203304000Y-90750000D03*
X203304000Y-95250000D03*
D27*
X150758000Y-117596000D03*
X150758000Y-115316000D03*
X150758000Y-113036000D03*
D28*
X144458000Y-115316000D03*
D29*
X193914000Y-116014000D03*
X193914000Y-115214000D03*
X193914000Y-114414000D03*
X193914000Y-113614000D03*
X193914000Y-112814000D03*
X193914000Y-112014000D03*
X193914000Y-111214000D03*
X193914000Y-110414000D03*
X193914000Y-109614000D03*
X193914000Y-108814000D03*
X193914000Y-108014000D03*
D30*
X192214000Y-106314000D03*
X191414000Y-106314000D03*
X190614000Y-106314000D03*
X189814000Y-106314000D03*
X189014000Y-106314000D03*
X188214000Y-106314000D03*
X187414000Y-106314000D03*
X186614000Y-106314000D03*
X185814000Y-106314000D03*
X185014000Y-106314000D03*
X184214000Y-106314000D03*
D29*
X182514000Y-108014000D03*
X182514000Y-108814000D03*
X182514000Y-109614000D03*
X182514000Y-110414000D03*
X182514000Y-111214000D03*
X182514000Y-112014000D03*
X182514000Y-112814000D03*
X182514000Y-113614000D03*
X182514000Y-114414000D03*
X182514000Y-115214000D03*
X182514000Y-116014000D03*
D30*
X184214000Y-117714000D03*
X185014000Y-117714000D03*
X185814000Y-117714000D03*
X186614000Y-117714000D03*
X187414000Y-117714000D03*
X188214000Y-117714000D03*
X189014000Y-117714000D03*
X189814000Y-117714000D03*
X190614000Y-117714000D03*
X191414000Y-117714000D03*
X192214000Y-117714000D03*
D31*
X155489000Y-113960000D03*
X156139000Y-113960000D03*
X156789000Y-113960000D03*
X157439000Y-113960000D03*
X157439000Y-109560000D03*
X156789000Y-109560000D03*
X156139000Y-109560000D03*
X155489000Y-109560000D03*
D32*
X157158000Y-104714000D03*
X157158000Y-105664000D03*
X157158000Y-106614000D03*
X159908000Y-106614000D03*
X159908000Y-104714000D03*
D33*
X185301500Y-101600000D03*
X191126500Y-101600000D03*
M02*
