M48
INCH,LZ
T1C0.020
T2C0.022
T3C0.031
T4C0.039
T5C0.043
%
G90
G05
T3
X0583Y-0514
X0585Y-048
X0589Y-0486
X06Y-0429
X0603Y-0456
X0605Y-047
X0613Y-0486
X0613Y-0493
X062506Y-045525
X0627Y-0434
X0627Y-047
X0642Y-0501
X065578Y-0404
X0659Y-0347
X0683Y-0362
X0686Y-0345
X0687Y-046
X068951Y-044875
X069479Y-043619
X0695Y-0514
X0696Y-0492
X0699Y-0345
X070138Y-043878
X070253Y-044444
X0708Y-0438
X07183Y-04873
X072663Y-041078
X073134Y-0411
X0733Y-051075
X073607Y-041098
X074078Y-041133
X0744Y-0349
X075Y-0512
X0754Y-0471
X075674Y-041285
X0765Y-041423
X0765Y-0514
X0769Y-0476
X077048Y-04182
X077081Y-04247
X077097Y-043119
X0771Y-0438
X077177Y-048318
X0774Y-0514
X0775Y-0345
X0775Y-0427
X0776Y-0403
X077954Y-046432
X0781Y-0514
X0782Y-0403
X0783Y-0382
X0784Y-0372
X0785Y-0345
X0789Y-0365
X0793Y-0514
X0799Y-0411
X0801Y-0514
X0804Y-0413
X0805Y-0445
X0813Y-0514
X0828Y-0404
T4
X063903Y-033589
X064903Y-033589
X065903Y-033589
X066903Y-033589
X067495Y-052487
X067903Y-033589
X068495Y-052487
X068903Y-033589
X069495Y-052487
X069903Y-033589
X070495Y-052487
X070903Y-033589
X071495Y-052487
X071903Y-033589
X072495Y-052487
X072903Y-033589
X073495Y-052487
X074495Y-052487
X074503Y-033589
X075503Y-033589
X076503Y-033589
X076503Y-052487
X077503Y-033589
X077503Y-052487
X078503Y-033589
X078503Y-052487
X079503Y-033589
X079503Y-052487
X080503Y-033589
X080503Y-052487
X081503Y-033589
X081503Y-052487
X081543Y-041609
X081543Y-042609
X081543Y-043609
X082543Y-041609
X082543Y-042609
X082543Y-043609
T5
X080041Y-035728
X080041Y-0375
X0826Y-035728
X0826Y-0375
T1
X082559Y-045322G85X082304Y-045322
G05
X082559Y-048078G85X082304Y-048078
G05
T2
X081369Y-045775G85X081369Y-045657
G05
X081369Y-047743G85X081369Y-047625
G05
T4
X054938Y-049406G85X054938Y-050194
G05
X055725Y-05165G85X056513Y-05165
G05
X0573Y-049406G85X0573Y-050194
G05
T0
M30
