M48
METRIC,LZ
T1C0.400
T2C0.500
T3C0.550
T4C0.800
T5C1.000
T6C1.100
%
G90
G05
T1
X0Y0
X147046Y-097048
X147046Y-098248
X147046Y-099448
X147046Y-100648
X148246Y-097048
X148246Y-098248
X148246Y-099448
X148246Y-100648
X149446Y-097048
X149446Y-098248
X149446Y-099448
X149446Y-100648
X150646Y-097048
X150646Y-098248
X150646Y-099448
X150646Y-100648
T4
X148082Y-130556
X14859Y-12192
X149606Y-123444
X1524Y-108966
X153162Y-115824
X15367Y-11938
X155702Y-123444
X155702Y-125222
X158766Y-115633
X159258Y-110236
X159258Y-11938
X163068Y-127254
X166569Y-102616
X167386Y-088138
X173482Y-091948
X174244Y-08763
X174498Y-11684
X175134Y-113983
X176476Y-110793
X17653Y-130556
X176784Y-124968
X177546Y-08763
X17815Y-111449
X178444Y-112888
X179832Y-111252
X182447Y-123773
X184563Y-104338
X185762Y-104394
X186182Y-129731
X186962Y-10439
X188158Y-104479
X188976Y-088646
X1905Y-130048
X191516Y-119634
X192213Y-104864
X19431Y-105215
X19431Y-130556
X195326Y-120904
X195701Y-106223
X195786Y-107873
X195827Y-109523
X195834Y-111252
X19603Y-122727
X196596Y-130556
X19685Y-08763
X19685Y-108458
X197104Y-102362
X198003Y-117936
X198374Y-130556
X198628Y-102362
X198882Y-097028
X199136Y-094488
X19939Y-08763
X200406Y-09271
X201422Y-130556
X202946Y-104394
X203454Y-130556
X204216Y-104902
X20447Y-11303
X206502Y-130556
X210312Y-102616
T5
X162314Y-085316
X164854Y-085316
X167394Y-085316
X169934Y-085316
X171438Y-133316
X172474Y-085316
X173978Y-133316
X175014Y-085316
X176518Y-133316
X177554Y-085316
X179058Y-133316
X180094Y-085316
X181598Y-133316
X182634Y-085316
X184138Y-133316
X185174Y-085316
X186678Y-133316
X189218Y-133316
X189238Y-085316
X191778Y-085316
X194318Y-085316
X194318Y-133316
X196858Y-085316
X196858Y-133316
X199398Y-085316
X199398Y-133316
X201938Y-085316
X201938Y-133316
X204478Y-085316
X204478Y-133316
X207018Y-085316
X207018Y-133316
X207118Y-105686
X207118Y-108226
X207118Y-110766
X209658Y-105686
X209658Y-108226
X209658Y-110766
T6
X203304Y-09075
X203304Y-09525
X209804Y-09075
X209804Y-09525
T2
X209701Y-115118G85X209051Y-115118
G05
X209701Y-122118G85X209051Y-122118
G05
T3
X206676Y-116268G85X206676Y-115968
G05
X206676Y-121268G85X206676Y-120968
G05
T5
X139542Y-125492G85X139542Y-127492
G05
X141542Y-131192G85X143542Y-131192
G05
X145542Y-125492G85X145542Y-127492
G05
T0
M30
